  0
SECTION
  2
ENTITIES
  0
LINE
  8
LIVELLO_1
 10
12.026477
 11
12.162762
 20
10.036838
 21
9.001563
  0
LINE
  8
LIVELLO_1
 10
12.162762
 11
12.562389
 20
9.001563
 21
8.036814
  0
LINE
  8
LIVELLO_1
 10
12.562389
 11
13.198038
 20
8.036814
 21
7.208407
  0
LINE
  8
LIVELLO_1
 10
13.198038
 11
14.026473
 20
7.208407
 21
6.57273
  0
LINE
  8
LIVELLO_1
 10
14.026473
 11
14.991193
 20
6.57273
 21
6.173131
  0
LINE
  8
LIVELLO_1
 10
14.991193
 11
16.026469
 20
6.173131
 21
6.036818
  0
LINE
  8
LIVELLO_1
 10
16.026469
 11
24.089304
 20
6.036818
 21
6.036818
  0
LINE
  8
LIVELLO_1
 10
24.089304
 11
25.057721
 20
6.036818
 21
6.173131
  0
LINE
  8
LIVELLO_1
 10
25.057721
 11
26.022441
 20
6.173131
 21
6.57273
  0
LINE
  8
LIVELLO_1
 10
26.022441
 11
26.850877
 20
6.57273
 21
7.208407
  0
LINE
  8
LIVELLO_1
 10
26.850877
 11
27.486554
 20
7.208407
 21
8.036814
  0
LINE
  8
LIVELLO_1
 10
27.486554
 11
27.886152
 20
8.036814
 21
9.001563
  0
LINE
  8
LIVELLO_1
 10
27.886152
 11
28.022437
 20
9.001563
 21
10.036838
  0
LINE
  8
LIVELLO_1
 10
28.022437
 11
27.886152
 20
10.036838
 21
11.072114
  0
LINE
  8
LIVELLO_1
 10
27.886152
 11
27.486554
 20
11.072114
 21
12.036834
  0
LINE
  8
LIVELLO_1
 10
27.486554
 11
26.850877
 20
12.036834
 21
12.865241
  0
LINE
  8
LIVELLO_1
 10
26.850877
 11
26.022441
 20
12.865241
 21
13.500919
  0
LINE
  8
LIVELLO_1
 10
26.022441
 11
25.057721
 20
13.500919
 21
13.900517
  0
LINE
  8
LIVELLO_1
 10
25.057721
 11
24.022445
 20
13.900517
 21
14.03683
  0
LINE
  8
LIVELLO_1
 10
24.022445
 11
16.026469
 20
14.03683
 21
14.03683
  0
LINE
  8
LIVELLO_1
 10
16.026469
 11
14.991193
 20
14.03683
 21
13.900517
  0
LINE
  8
LIVELLO_1
 10
14.991193
 11
14.026473
 20
13.900517
 21
13.500919
  0
LINE
  8
LIVELLO_1
 10
14.026473
 11
13.198038
 20
13.500919
 21
12.865241
  0
LINE
  8
LIVELLO_1
 10
13.198038
 11
12.562389
 20
12.865241
 21
12.036834
  0
LINE
  8
LIVELLO_1
 10
12.562389
 11
12.162762
 20
12.036834
 21
11.072114
  0
LINE
  8
LIVELLO_1
 10
12.162762
 11
12.026477
 20
11.072114
 21
10.036838
  0
LINE
  8
LIVELLO_1
 10
333.674249
 11
333.612849
 20
184.999969
 21
185.465861
  0
LINE
  8
LIVELLO_1
 10
333.612849
 11
333.432966
 20
185.465861
 21
185.899947
  0
LINE
  8
LIVELLO_1
 10
333.432966
 11
333.146858
 20
185.899947
 21
186.272706
  0
LINE
  8
LIVELLO_1
 10
333.146858
 11
332.774025
 20
186.272706
 21
186.55871
  0
LINE
  8
LIVELLO_1
 10
332.774025
 11
332.339874
 20
186.55871
 21
186.738458
  0
LINE
  8
LIVELLO_1
 10
332.339874
 11
331.87399
 20
186.738458
 21
186.799728
  0
LINE
  8
LIVELLO_1
 10
331.87399
 11
331.408126
 20
186.799728
 21
186.738317
  0
LINE
  8
LIVELLO_1
 10
331.408126
 11
330.974026
 20
186.738317
 21
186.558428
  0
LINE
  8
LIVELLO_1
 10
330.974026
 11
330.601275
 20
186.558428
 21
186.272339
  0
LINE
  8
LIVELLO_1
 10
330.601275
 11
330.315274
 20
186.272339
 21
185.899496
  0
LINE
  8
LIVELLO_1
 10
330.315274
 11
330.135515
 20
185.899496
 21
185.465353
  0
LINE
  8
LIVELLO_1
 10
330.135515
 11
330.074248
 20
185.465353
 21
184.999461
  0
LINE
  8
LIVELLO_1
 10
330.074248
 11
330.135648
 20
184.999461
 21
184.533597
  0
LINE
  8
LIVELLO_1
 10
330.135648
 11
330.315531
 20
184.533597
 21
184.099511
  0
LINE
  8
LIVELLO_1
 10
330.315531
 11
330.601639
 20
184.099511
 21
183.726751
  0
LINE
  8
LIVELLO_1
 10
330.601639
 11
330.974472
 20
183.726751
 21
183.440747
  0
LINE
  8
LIVELLO_1
 10
330.974472
 11
331.408623
 20
183.440747
 21
183.261
  0
LINE
  8
LIVELLO_1
 10
331.408623
 11
331.874507
 20
183.261
 21
183.19973
  0
LINE
  8
LIVELLO_1
 10
331.874507
 11
332.340371
 20
183.19973
 21
183.261113
  0
LINE
  8
LIVELLO_1
 10
332.340371
 11
332.774471
 20
183.261113
 21
183.441001
  0
LINE
  8
LIVELLO_1
 10
332.774471
 11
333.147222
 20
183.441001
 21
183.727118
  0
LINE
  8
LIVELLO_1
 10
333.147222
 11
333.433223
 20
183.727118
 21
184.099934
  0
LINE
  8
LIVELLO_1
 10
333.433223
 11
333.612981
 20
184.099934
 21
184.534105
  0
LINE
  8
LIVELLO_1
 10
333.612981
 11
333.674249
 20
184.534105
 21
184.999969
  0
LINE
  8
LIVELLO_1
 10
333.686977
 11
333.622625
 20
340.000082
 21
340.465551
  0
LINE
  8
LIVELLO_1
 10
333.622625
 11
333.439996
 20
340.465551
 21
340.898508
  0
LINE
  8
LIVELLO_1
 10
333.439996
 11
333.151531
 20
340.898508
 21
341.269433
  0
LINE
  8
LIVELLO_1
 10
333.151531
 11
332.776892
 20
341.269433
 21
341.553066
  0
LINE
  8
LIVELLO_1
 10
332.776892
 11
332.34161
 20
341.553066
 21
341.730076
  0
LINE
  8
LIVELLO_1
 10
332.34161
 11
331.87535
 20
341.730076
 21
341.788383
  0
LINE
  8
LIVELLO_1
 10
331.87535
 11
331.409881
 20
341.788383
 21
341.724037
  0
LINE
  8
LIVELLO_1
 10
331.409881
 11
330.97693
 20
341.724037
 21
341.541411
  0
LINE
  8
LIVELLO_1
 10
330.97693
 11
330.606
 20
341.541411
 21
341.252923
  0
LINE
  8
LIVELLO_1
 10
330.606
 11
330.322369
 20
341.252923
 21
340.878301
  0
LINE
  8
LIVELLO_1
 10
330.322369
 11
330.145365
 20
340.878301
 21
340.443002
  0
LINE
  8
LIVELLO_1
 10
330.145365
 11
330.087052
 20
340.443002
 21
339.976742
  0
LINE
  8
LIVELLO_1
 10
330.087052
 11
330.151404
 20
339.976742
 21
339.511273
  0
LINE
  8
LIVELLO_1
 10
330.151404
 11
330.334036
 20
339.511273
 21
339.078344
  0
LINE
  8
LIVELLO_1
 10
330.334036
 11
330.622498
 20
339.078344
 21
338.707391
  0
LINE
  8
LIVELLO_1
 10
330.622498
 11
330.997137
 20
338.707391
 21
338.423786
  0
LINE
  8
LIVELLO_1
 10
330.997137
 11
331.43242
 20
338.423786
 21
338.246777
  0
LINE
  8
LIVELLO_1
 10
331.43242
 11
331.898682
 20
338.246777
 21
338.188469
  0
LINE
  8
LIVELLO_1
 10
331.898682
 11
332.364148
 20
338.188469
 21
338.252816
  0
LINE
  8
LIVELLO_1
 10
332.364148
 11
332.7971
 20
338.252816
 21
338.435442
  0
LINE
  8
LIVELLO_1
 10
332.7971
 11
333.16803
 20
338.435442
 21
338.723901
  0
LINE
  8
LIVELLO_1
 10
333.16803
 11
333.45166
 20
338.723901
 21
339.098551
  0
LINE
  8
LIVELLO_1
 10
333.45166
 11
333.628664
 20
339.098551
 21
339.533823
  0
LINE
  8
LIVELLO_1
 10
333.628664
 11
333.686977
 20
339.533823
 21
340.000082
  0
LINE
  8
LIVELLO_1
 10
346.502982
 11
346.037115
 20
361.790347
 21
361.728964
  0
LINE
  8
LIVELLO_1
 10
346.037115
 11
345.603015
 20
361.728964
 21
361.549075
  0
LINE
  8
LIVELLO_1
 10
345.603015
 11
345.230264
 20
361.549075
 21
361.262958
  0
LINE
  8
LIVELLO_1
 10
345.230264
 11
344.944266
 20
361.262958
 21
360.890143
  0
LINE
  8
LIVELLO_1
 10
344.944266
 11
344.764507
 20
360.890143
 21
360.455972
  0
LINE
  8
LIVELLO_1
 10
344.764507
 11
344.703239
 20
360.455972
 21
359.990108
  0
LINE
  8
LIVELLO_1
 10
344.703239
 11
344.76464
 20
359.990108
 21
359.524244
  0
LINE
  8
LIVELLO_1
 10
344.76464
 11
344.944523
 20
359.524244
 21
359.090129
  0
LINE
  8
LIVELLO_1
 10
344.944523
 11
345.230628
 20
359.090129
 21
358.717399
  0
LINE
  8
LIVELLO_1
 10
345.230628
 11
345.603461
 20
358.717399
 21
358.431395
  0
LINE
  8
LIVELLO_1
 10
345.603461
 11
346.037614
 20
358.431395
 21
358.251619
  0
LINE
  8
LIVELLO_1
 10
346.037614
 11
346.503496
 20
358.251619
 21
358.190349
  0
LINE
  8
LIVELLO_1
 10
346.503496
 11
346.969363
 20
358.190349
 21
358.25176
  0
LINE
  8
LIVELLO_1
 10
346.969363
 11
347.403463
 20
358.25176
 21
358.431649
  0
LINE
  8
LIVELLO_1
 10
347.403463
 11
347.776213
 20
358.431649
 21
358.717737
  0
LINE
  8
LIVELLO_1
 10
347.776213
 11
348.062214
 20
358.717737
 21
359.090581
  0
LINE
  8
LIVELLO_1
 10
348.062214
 11
348.241973
 20
359.090581
 21
359.524723
  0
LINE
  8
LIVELLO_1
 10
348.241973
 11
348.303238
 20
359.524723
 21
359.990616
  0
LINE
  8
LIVELLO_1
 10
348.303238
 11
348.241838
 20
359.990616
 21
360.45648
  0
LINE
  8
LIVELLO_1
 10
348.241838
 11
348.061955
 20
360.45648
 21
360.890594
  0
LINE
  8
LIVELLO_1
 10
348.061955
 11
347.775849
 20
360.890594
 21
361.263325
  0
LINE
  8
LIVELLO_1
 10
347.775849
 11
347.403017
 20
361.263325
 21
361.549329
  0
LINE
  8
LIVELLO_1
 10
347.403017
 11
346.968863
 20
361.549329
 21
361.729105
  0
LINE
  8
LIVELLO_1
 10
346.968863
 11
346.502982
 20
361.729105
 21
361.790347
  0
LINE
  8
LIVELLO_1
 10
368.216166
 11
368.036283
 20
360.4895
 21
360.923586
  0
LINE
  8
LIVELLO_1
 10
368.036283
 11
367.750175
 20
360.923586
 21
361.296345
  0
LINE
  8
LIVELLO_1
 10
367.750175
 11
367.377343
 20
361.296345
 21
361.582349
  0
LINE
  8
LIVELLO_1
 10
367.377343
 11
366.943192
 20
361.582349
 21
361.762097
  0
LINE
  8
LIVELLO_1
 10
366.943192
 11
366.477308
 20
361.762097
 21
361.823367
  0
LINE
  8
LIVELLO_1
 10
366.477308
 11
366.011443
 20
361.823367
 21
361.761984
  0
LINE
  8
LIVELLO_1
 10
366.011443
 11
365.577343
 20
361.761984
 21
361.582095
  0
LINE
  8
LIVELLO_1
 10
365.577343
 11
365.204593
 20
361.582095
 21
361.295978
  0
LINE
  8
LIVELLO_1
 10
365.204593
 11
364.918591
 20
361.295978
 21
360.923163
  0
LINE
  8
LIVELLO_1
 10
364.918591
 11
364.738833
 20
360.923163
 21
360.488992
  0
LINE
  8
LIVELLO_1
 10
364.738833
 11
364.677565
 20
360.488992
 21
360.023128
  0
LINE
  8
LIVELLO_1
 10
364.677565
 11
364.738965
 20
360.023128
 21
359.557264
  0
LINE
  8
LIVELLO_1
 10
364.738965
 11
364.918848
 20
359.557264
 21
359.123149
  0
LINE
  8
LIVELLO_1
 10
364.918848
 11
365.204957
 20
359.123149
 21
358.75039
  0
LINE
  8
LIVELLO_1
 10
365.204957
 11
365.577789
 20
358.75039
 21
358.464415
  0
LINE
  8
LIVELLO_1
 10
365.577789
 11
366.01194
 20
358.464415
 21
358.284639
  0
LINE
  8
LIVELLO_1
 10
366.01194
 11
366.477824
 20
358.284639
 21
358.223369
  0
LINE
  8
LIVELLO_1
 10
366.477824
 11
366.943688
 20
358.223369
 21
358.28478
  0
LINE
  8
LIVELLO_1
 10
366.943688
 11
367.377788
 20
358.28478
 21
358.464669
  0
LINE
  8
LIVELLO_1
 10
367.377788
 11
367.750542
 20
358.464669
 21
358.750757
  0
LINE
  8
LIVELLO_1
 10
367.750542
 11
368.03654
 20
358.750757
 21
359.123601
  0
LINE
  8
LIVELLO_1
 10
368.03654
 11
368.216299
 20
359.123601
 21
359.557743
  0
LINE
  8
LIVELLO_1
 10
368.216299
 11
368.277566
 20
359.557743
 21
360.023636
  0
LINE
  8
LIVELLO_1
 10
368.277566
 11
368.216166
 20
360.023636
 21
360.4895
  0
LINE
  8
LIVELLO_1
 10
346.048048
 11
345.613948
 20
41.729632
 21
41.549743
  0
LINE
  8
LIVELLO_1
 10
345.613948
 11
345.241197
 20
41.549743
 21
41.263655
  0
LINE
  8
LIVELLO_1
 10
345.241197
 11
344.955196
 20
41.263655
 21
40.890811
  0
LINE
  8
LIVELLO_1
 10
344.955196
 11
344.775438
 20
40.890811
 21
40.456669
  0
LINE
  8
LIVELLO_1
 10
344.775438
 11
344.714173
 20
40.456669
 21
39.990776
  0
LINE
  8
LIVELLO_1
 10
344.714173
 11
344.775573
 20
39.990776
 21
39.524912
  0
LINE
  8
LIVELLO_1
 10
344.775573
 11
344.955456
 20
39.524912
 21
39.090826
  0
LINE
  8
LIVELLO_1
 10
344.955456
 11
345.241561
 20
39.090826
 21
38.718067
  0
LINE
  8
LIVELLO_1
 10
345.241561
 11
345.614394
 20
38.718067
 21
38.432063
  0
LINE
  8
LIVELLO_1
 10
345.614394
 11
346.048548
 20
38.432063
 21
38.252315
  0
LINE
  8
LIVELLO_1
 10
346.048548
 11
346.514429
 20
38.252315
 21
38.191045
  0
LINE
  8
LIVELLO_1
 10
346.514429
 11
346.980296
 20
38.191045
 21
38.252428
  0
LINE
  8
LIVELLO_1
 10
346.980296
 11
347.414396
 20
38.252428
 21
38.432317
  0
LINE
  8
LIVELLO_1
 10
347.414396
 11
347.787147
 20
38.432317
 21
38.718434
  0
LINE
  8
LIVELLO_1
 10
347.787147
 11
348.073145
 20
38.718434
 21
39.091249
  0
LINE
  8
LIVELLO_1
 10
348.073145
 11
348.252904
 20
39.091249
 21
39.52542
  0
LINE
  8
LIVELLO_1
 10
348.252904
 11
348.314171
 20
39.52542
 21
39.991284
  0
LINE
  8
LIVELLO_1
 10
348.314171
 11
348.252771
 20
39.991284
 21
40.457148
  0
LINE
  8
LIVELLO_1
 10
348.252771
 11
348.072888
 20
40.457148
 21
40.891263
  0
LINE
  8
LIVELLO_1
 10
348.072888
 11
347.786783
 20
40.891263
 21
41.264022
  0
LINE
  8
LIVELLO_1
 10
347.786783
 11
347.41395
 20
41.264022
 21
41.549997
  0
LINE
  8
LIVELLO_1
 10
347.41395
 11
346.979796
 20
41.549997
 21
41.729773
  0
LINE
  8
LIVELLO_1
 10
346.979796
 11
346.513915
 20
41.729773
 21
41.791043
  0
LINE
  8
LIVELLO_1
 10
346.513915
 11
346.048048
 20
41.791043
 21
41.729632
  0
LINE
  8
LIVELLO_1
 10
366.95914
 11
367.393237
 20
38.20764
 21
38.387528
  0
LINE
  8
LIVELLO_1
 10
367.393237
 11
367.765991
 20
38.387528
 21
38.673645
  0
LINE
  8
LIVELLO_1
 10
367.765991
 11
368.051989
 20
38.673645
 21
39.046461
  0
LINE
  8
LIVELLO_1
 10
368.051989
 11
368.231748
 20
39.046461
 21
39.480603
  0
LINE
  8
LIVELLO_1
 10
368.231748
 11
368.293015
 20
39.480603
 21
39.946495
  0
LINE
  8
LIVELLO_1
 10
368.293015
 11
368.231615
 20
39.946495
 21
40.41236
  0
LINE
  8
LIVELLO_1
 10
368.231615
 11
368.051732
 20
40.41236
 21
40.846474
  0
LINE
  8
LIVELLO_1
 10
368.051732
 11
367.765627
 20
40.846474
 21
41.219205
  0
LINE
  8
LIVELLO_1
 10
367.765627
 11
367.392791
 20
41.219205
 21
41.505209
  0
LINE
  8
LIVELLO_1
 10
367.392791
 11
366.95864
 20
41.505209
 21
41.684984
  0
LINE
  8
LIVELLO_1
 10
366.95864
 11
366.492759
 20
41.684984
 21
41.746255
  0
LINE
  8
LIVELLO_1
 10
366.492759
 11
366.026892
 20
41.746255
 21
41.684843
  0
LINE
  8
LIVELLO_1
 10
366.026892
 11
365.592792
 20
41.684843
 21
41.504955
  0
LINE
  8
LIVELLO_1
 10
365.592792
 11
365.220041
 20
41.504955
 21
41.218838
  0
LINE
  8
LIVELLO_1
 10
365.220041
 11
364.93404
 20
41.218838
 21
40.846022
  0
LINE
  8
LIVELLO_1
 10
364.93404
 11
364.754282
 20
40.846022
 21
40.41188
  0
LINE
  8
LIVELLO_1
 10
364.754282
 11
364.693017
 20
40.41188
 21
39.945987
  0
LINE
  8
LIVELLO_1
 10
364.693017
 11
364.754417
 20
39.945987
 21
39.480123
  0
LINE
  8
LIVELLO_1
 10
364.754417
 11
364.9343
 20
39.480123
 21
39.046009
  0
LINE
  8
LIVELLO_1
 10
364.9343
 11
365.220406
 20
39.046009
 21
38.673278
  0
LINE
  8
LIVELLO_1
 10
365.220406
 11
365.593238
 20
38.673278
 21
38.387274
  0
LINE
  8
LIVELLO_1
 10
365.593238
 11
366.027389
 20
38.387274
 21
38.207499
  0
LINE
  8
LIVELLO_1
 10
366.027389
 11
366.493273
 20
38.207499
 21
38.146228
  0
LINE
  8
LIVELLO_1
 10
366.493273
 11
366.95914
 20
38.146228
 21
38.20764
  0
LINE
  8
LIVELLO_1
 10
358.06231
 11
357.776205
 20
20.867624
 21
21.240383
  0
LINE
  8
LIVELLO_1
 10
357.776205
 11
357.403369
 20
21.240383
 21
21.526359
  0
LINE
  8
LIVELLO_1
 10
357.403369
 11
356.969218
 20
21.526359
 21
21.706135
  0
LINE
  8
LIVELLO_1
 10
356.969218
 11
356.503337
 20
21.706135
 21
21.767405
  0
LINE
  8
LIVELLO_1
 10
356.503337
 11
356.03747
 20
21.767405
 21
21.705993
  0
LINE
  8
LIVELLO_1
 10
356.03747
 11
355.60337
 20
21.705993
 21
21.526105
  0
LINE
  8
LIVELLO_1
 10
355.60337
 11
355.230619
 20
21.526105
 21
21.240016
  0
LINE
  8
LIVELLO_1
 10
355.230619
 11
354.944618
 20
21.240016
 21
20.867173
  0
LINE
  8
LIVELLO_1
 10
354.944618
 11
354.76486
 20
20.867173
 21
20.43303
  0
LINE
  8
LIVELLO_1
 10
354.76486
 11
354.703595
 20
20.43303
 21
19.967138
  0
LINE
  8
LIVELLO_1
 10
354.703595
 11
354.764995
 20
19.967138
 21
19.501273
  0
LINE
  8
LIVELLO_1
 10
354.764995
 11
354.944878
 20
19.501273
 21
19.067187
  0
LINE
  8
LIVELLO_1
 10
354.944878
 11
355.230983
 20
19.067187
 21
18.694428
  0
LINE
  8
LIVELLO_1
 10
355.230983
 11
355.603816
 20
18.694428
 21
18.408424
  0
LINE
  8
LIVELLO_1
 10
355.603816
 11
356.037967
 20
18.408424
 21
18.228677
  0
LINE
  8
LIVELLO_1
 10
356.037967
 11
356.503851
 20
18.228677
 21
18.167407
  0
LINE
  8
LIVELLO_1
 10
356.503851
 11
356.969718
 20
18.167407
 21
18.22879
  0
LINE
  8
LIVELLO_1
 10
356.969718
 11
357.403818
 20
18.22879
 21
18.408678
  0
LINE
  8
LIVELLO_1
 10
357.403818
 11
357.776569
 20
18.408678
 21
18.694795
  0
LINE
  8
LIVELLO_1
 10
357.776569
 11
358.062567
 20
18.694795
 21
19.067611
  0
LINE
  8
LIVELLO_1
 10
358.062567
 11
358.242326
 20
19.067611
 21
19.501781
  0
LINE
  8
LIVELLO_1
 10
358.242326
 11
358.303593
 20
19.501781
 21
19.967646
  0
LINE
  8
LIVELLO_1
 10
358.303593
 11
358.242193
 20
19.967646
 21
20.43351
  0
LINE
  8
LIVELLO_1
 10
358.242193
 11
358.06231
 20
20.43351
 21
20.867624
  0
LINE
  8
LIVELLO_1
 10
333.674249
 11
333.612939
 20
25.000007
 21
25.465701
  0
LINE
  8
LIVELLO_1
 10
333.612939
 11
333.433192
 20
25.465701
 21
25.899646
  0
LINE
  8
LIVELLO_1
 10
333.433192
 11
333.147253
 20
25.899646
 21
26.272293
  0
LINE
  8
LIVELLO_1
 10
333.147253
 11
332.774609
 20
26.272293
 21
26.558212
  0
LINE
  8
LIVELLO_1
 10
332.774609
 11
332.340659
 20
26.558212
 21
26.737959
  0
LINE
  8
LIVELLO_1
 10
332.340659
 11
331.874972
 20
26.737959
 21
26.799286
  0
LINE
  8
LIVELLO_1
 10
331.874972
 11
331.409283
 20
26.799286
 21
26.737959
  0
LINE
  8
LIVELLO_1
 10
331.409283
 11
330.975333
 20
26.737959
 21
26.558212
  0
LINE
  8
LIVELLO_1
 10
330.975333
 11
330.602689
 20
26.558212
 21
26.272293
  0
LINE
  8
LIVELLO_1
 10
330.602689
 11
330.31675
 20
26.272293
 21
25.899646
  0
LINE
  8
LIVELLO_1
 10
330.31675
 11
330.137003
 20
25.899646
 21
25.465701
  0
LINE
  8
LIVELLO_1
 10
330.137003
 11
330.075693
 20
25.465701
 21
25.000007
  0
LINE
  8
LIVELLO_1
 10
330.075693
 11
330.137003
 20
25.000007
 21
24.534312
  0
LINE
  8
LIVELLO_1
 10
330.137003
 11
330.31675
 20
24.534312
 21
24.100367
  0
LINE
  8
LIVELLO_1
 10
330.31675
 11
330.602689
 20
24.100367
 21
23.727721
  0
LINE
  8
LIVELLO_1
 10
330.602689
 11
330.975333
 20
23.727721
 21
23.441773
  0
LINE
  8
LIVELLO_1
 10
330.975333
 11
331.409283
 20
23.441773
 21
23.262026
  0
LINE
  8
LIVELLO_1
 10
331.409283
 11
331.874972
 20
23.262026
 21
23.200727
  0
LINE
  8
LIVELLO_1
 10
331.874972
 11
332.340659
 20
23.200727
 21
23.262026
  0
LINE
  8
LIVELLO_1
 10
332.340659
 11
332.774609
 20
23.262026
 21
23.441773
  0
LINE
  8
LIVELLO_1
 10
332.774609
 11
333.147253
 20
23.441773
 21
23.727721
  0
LINE
  8
LIVELLO_1
 10
333.147253
 11
333.433192
 20
23.727721
 21
24.100367
  0
LINE
  8
LIVELLO_1
 10
333.433192
 11
333.612939
 20
24.100367
 21
24.534312
  0
LINE
  8
LIVELLO_1
 10
333.612939
 11
333.674249
 20
24.534312
 21
25.000007
  0
LINE
  8
LIVELLO_1
 10
10.434518
 11
9.968654
 20
41.759435
 21
41.820677
  0
LINE
  8
LIVELLO_1
 10
9.968654
 11
9.502789
 20
41.820677
 21
41.759293
  0
LINE
  8
LIVELLO_1
 10
9.502789
 11
9.068675
 20
41.759293
 21
41.579405
  0
LINE
  8
LIVELLO_1
 10
9.068675
 11
8.695916
 20
41.579405
 21
41.293288
  0
LINE
  8
LIVELLO_1
 10
8.695916
 11
8.40994
 20
41.293288
 21
40.920473
  0
LINE
  8
LIVELLO_1
 10
8.40994
 11
8.230165
 20
40.920473
 21
40.486302
  0
LINE
  8
LIVELLO_1
 10
8.230165
 11
8.168894
 20
40.486302
 21
40.020438
  0
LINE
  8
LIVELLO_1
 10
8.168894
 11
8.230306
 20
40.020438
 21
39.554573
  0
LINE
  8
LIVELLO_1
 10
8.230306
 11
8.410194
 20
39.554573
 21
39.120459
  0
LINE
  8
LIVELLO_1
 10
8.410194
 11
8.696283
 20
39.120459
 21
38.747728
  0
LINE
  8
LIVELLO_1
 10
8.696283
 11
9.069127
 20
38.747728
 21
38.461724
  0
LINE
  8
LIVELLO_1
 10
9.069127
 11
9.503269
 20
38.461724
 21
38.281949
  0
LINE
  8
LIVELLO_1
 10
9.503269
 11
9.969162
 20
38.281949
 21
38.220678
  0
LINE
  8
LIVELLO_1
 10
9.969162
 11
10.435026
 20
38.220678
 21
38.28209
  0
LINE
  8
LIVELLO_1
 10
10.435026
 11
10.869112
 20
38.28209
 21
38.461978
  0
LINE
  8
LIVELLO_1
 10
10.869112
 11
11.241871
 20
38.461978
 21
38.748067
  0
LINE
  8
LIVELLO_1
 10
11.241871
 11
11.527875
 20
38.748067
 21
39.120911
  0
LINE
  8
LIVELLO_1
 10
11.527875
 11
11.707622
 20
39.120911
 21
39.555053
  0
LINE
  8
LIVELLO_1
 10
11.707622
 11
11.768893
 20
39.555053
 21
40.020946
  0
LINE
  8
LIVELLO_1
 10
11.768893
 11
11.707509
 20
40.020946
 21
40.48681
  0
LINE
  8
LIVELLO_1
 10
11.707509
 11
11.527621
 20
40.48681
 21
40.920924
  0
LINE
  8
LIVELLO_1
 10
11.527621
 11
11.241504
 20
40.920924
 21
41.293655
  0
LINE
  8
LIVELLO_1
 10
11.241504
 11
10.868689
 20
41.293655
 21
41.579659
  0
LINE
  8
LIVELLO_1
 10
10.868689
 11
10.434518
 20
41.579659
 21
41.759435
  0
LINE
  8
LIVELLO_1
 10
29.516607
 11
29.082521
 20
41.759293
 21
41.579405
  0
LINE
  8
LIVELLO_1
 10
29.082521
 11
28.709761
 20
41.579405
 21
41.293288
  0
LINE
  8
LIVELLO_1
 10
28.709761
 11
28.423757
 20
41.293288
 21
40.920473
  0
LINE
  8
LIVELLO_1
 10
28.423757
 11
28.24401
 20
40.920473
 21
40.486302
  0
LINE
  8
LIVELLO_1
 10
28.24401
 11
28.18274
 20
40.486302
 21
40.020438
  0
LINE
  8
LIVELLO_1
 10
28.18274
 11
28.244151
 20
40.020438
 21
39.554573
  0
LINE
  8
LIVELLO_1
 10
28.244151
 11
28.424011
 20
39.554573
 21
39.120459
  0
LINE
  8
LIVELLO_1
 10
28.424011
 11
28.710128
 20
39.120459
 21
38.747728
  0
LINE
  8
LIVELLO_1
 10
28.710128
 11
29.082972
 20
38.747728
 21
38.461724
  0
LINE
  8
LIVELLO_1
 10
29.082972
 11
29.517115
 20
38.461724
 21
38.281949
  0
LINE
  8
LIVELLO_1
 10
29.517115
 11
29.983007
 20
38.281949
 21
38.220678
  0
LINE
  8
LIVELLO_1
 10
29.983007
 11
30.448871
 20
38.220678
 21
38.28209
  0
LINE
  8
LIVELLO_1
 10
30.448871
 11
30.882957
 20
38.28209
 21
38.461978
  0
LINE
  8
LIVELLO_1
 10
30.882957
 11
31.255716
 20
38.461978
 21
38.748067
  0
LINE
  8
LIVELLO_1
 10
31.255716
 11
31.54172
 20
38.748067
 21
39.120911
  0
LINE
  8
LIVELLO_1
 10
31.54172
 11
31.721468
 20
39.120911
 21
39.555053
  0
LINE
  8
LIVELLO_1
 10
31.721468
 11
31.782738
 20
39.555053
 21
40.020946
  0
LINE
  8
LIVELLO_1
 10
31.782738
 11
31.721327
 20
40.020946
 21
40.48681
  0
LINE
  8
LIVELLO_1
 10
31.721327
 11
31.541466
 20
40.48681
 21
40.920924
  0
LINE
  8
LIVELLO_1
 10
31.541466
 11
31.255349
 20
40.920924
 21
41.293655
  0
LINE
  8
LIVELLO_1
 10
31.255349
 11
30.882506
 20
41.293655
 21
41.579659
  0
LINE
  8
LIVELLO_1
 10
30.882506
 11
30.448363
 20
41.579659
 21
41.759435
  0
LINE
  8
LIVELLO_1
 10
30.448363
 11
29.982471
 20
41.759435
 21
41.820677
  0
LINE
  8
LIVELLO_1
 10
29.982471
 11
29.516607
 20
41.820677
 21
41.759293
  0
LINE
  8
LIVELLO_1
 10
21.534544
 11
21.248427
 20
20.907079
 21
21.27981
  0
LINE
  8
LIVELLO_1
 10
21.248427
 11
20.875611
 20
21.27981
 21
21.565814
  0
LINE
  8
LIVELLO_1
 10
20.875611
 11
20.441441
 20
21.565814
 21
21.745589
  0
LINE
  8
LIVELLO_1
 10
20.441441
 11
19.975576
 20
21.745589
 21
21.806831
  0
LINE
  8
LIVELLO_1
 10
19.975576
 11
19.509712
 20
21.806831
 21
21.745448
  0
LINE
  8
LIVELLO_1
 10
19.509712
 11
19.075598
 20
21.745448
 21
21.56556
  0
LINE
  8
LIVELLO_1
 10
19.075598
 11
18.702839
 20
21.56556
 21
21.279443
  0
LINE
  8
LIVELLO_1
 10
18.702839
 11
18.416863
 20
21.279443
 21
20.906627
  0
LINE
  8
LIVELLO_1
 10
18.416863
 11
18.237087
 20
20.906627
 21
20.472485
  0
LINE
  8
LIVELLO_1
 10
18.237087
 11
18.175817
 20
20.472485
 21
20.006592
  0
LINE
  8
LIVELLO_1
 10
18.175817
 11
18.237229
 20
20.006592
 21
19.540728
  0
LINE
  8
LIVELLO_1
 10
18.237229
 11
18.417117
 20
19.540728
 21
19.106614
  0
LINE
  8
LIVELLO_1
 10
18.417117
 11
18.703206
 20
19.106614
 21
18.733883
  0
LINE
  8
LIVELLO_1
 10
18.703206
 11
19.076049
 20
18.733883
 21
18.447879
  0
LINE
  8
LIVELLO_1
 10
19.076049
 11
19.510192
 20
18.447879
 21
18.268103
  0
LINE
  8
LIVELLO_1
 10
19.510192
 11
19.976084
 20
18.268103
 21
18.206833
  0
LINE
  8
LIVELLO_1
 10
19.976084
 11
20.441949
 20
18.206833
 21
18.268245
  0
LINE
  8
LIVELLO_1
 10
20.441949
 11
20.876035
 20
18.268245
 21
18.448133
  0
LINE
  8
LIVELLO_1
 10
20.876035
 11
21.248794
 20
18.448133
 21
18.734222
  0
LINE
  8
LIVELLO_1
 10
21.248794
 11
21.534798
 20
18.734222
 21
19.107065
  0
LINE
  8
LIVELLO_1
 10
21.534798
 11
21.714545
 20
19.107065
 21
19.541208
  0
LINE
  8
LIVELLO_1
 10
21.714545
 11
21.775815
 20
19.541208
 21
20.0071
  0
LINE
  8
LIVELLO_1
 10
21.775815
 11
21.714432
 20
20.0071
 21
20.472965
  0
LINE
  8
LIVELLO_1
 10
21.714432
 11
21.534544
 20
20.472965
 21
20.907079
  0
LINE
  8
LIVELLO_1
 10
43.335561
 11
43.708405
 20
23.737344
 21
23.45134
  0
LINE
  8
LIVELLO_1
 10
43.708405
 11
44.142547
 20
23.45134
 21
23.271565
  0
LINE
  8
LIVELLO_1
 10
44.142547
 11
44.60844
 20
23.271565
 21
23.210294
  0
LINE
  8
LIVELLO_1
 10
44.60844
 11
45.074304
 20
23.210294
 21
23.271706
  0
LINE
  8
LIVELLO_1
 10
45.074304
 11
45.508418
 20
23.271706
 21
23.451594
  0
LINE
  8
LIVELLO_1
 10
45.508418
 11
45.881149
 20
23.451594
 21
23.737683
  0
LINE
  8
LIVELLO_1
 10
45.881149
 11
46.167153
 20
23.737683
 21
24.110527
  0
LINE
  8
LIVELLO_1
 10
46.167153
 11
46.346929
 20
24.110527
 21
24.544669
  0
LINE
  8
LIVELLO_1
 10
46.346929
 11
46.408171
 20
24.544669
 21
25.010562
  0
LINE
  8
LIVELLO_1
 10
46.408171
 11
46.346788
 20
25.010562
 21
25.476426
  0
LINE
  8
LIVELLO_1
 10
46.346788
 11
46.166899
 20
25.476426
 21
25.91054
  0
LINE
  8
LIVELLO_1
 10
46.166899
 11
45.880782
 20
25.91054
 21
26.283271
  0
LINE
  8
LIVELLO_1
 10
45.880782
 11
45.507967
 20
26.283271
 21
26.569275
  0
LINE
  8
LIVELLO_1
 10
45.507967
 11
45.073796
 20
26.569275
 21
26.749051
  0
LINE
  8
LIVELLO_1
 10
45.073796
 11
44.607932
 20
26.749051
 21
26.810293
  0
LINE
  8
LIVELLO_1
 10
44.607932
 11
44.142068
 20
26.810293
 21
26.748909
  0
LINE
  8
LIVELLO_1
 10
44.142068
 11
43.707953
 20
26.748909
 21
26.569021
  0
LINE
  8
LIVELLO_1
 10
43.707953
 11
43.335194
 20
26.569021
 21
26.282904
  0
LINE
  8
LIVELLO_1
 10
43.335194
 11
43.049219
 20
26.282904
 21
25.910089
  0
LINE
  8
LIVELLO_1
 10
43.049219
 11
42.869443
 20
25.910089
 21
25.475918
  0
LINE
  8
LIVELLO_1
 10
42.869443
 11
42.808173
 20
25.475918
 21
25.010054
  0
LINE
  8
LIVELLO_1
 10
42.808173
 11
42.869584
 20
25.010054
 21
24.544189
  0
LINE
  8
LIVELLO_1
 10
42.869584
 11
43.049473
 20
24.544189
 21
24.110075
  0
LINE
  8
LIVELLO_1
 10
43.049473
 11
43.335561
 20
24.110075
 21
23.737344
  0
LINE
  8
LIVELLO_1
 10
44.184599
 11
44.650491
 20
183.258121
 21
183.196851
  0
LINE
  8
LIVELLO_1
 10
44.650491
 11
45.116355
 20
183.196851
 21
183.258263
  0
LINE
  8
LIVELLO_1
 10
45.116355
 11
45.550441
 20
183.258263
 21
183.438151
  0
LINE
  8
LIVELLO_1
 10
45.550441
 11
45.9232
 20
183.438151
 21
183.72424
  0
LINE
  8
LIVELLO_1
 10
45.9232
 11
46.209204
 20
183.72424
 21
184.097083
  0
LINE
  8
LIVELLO_1
 10
46.209204
 11
46.388952
 20
184.097083
 21
184.531226
  0
LINE
  8
LIVELLO_1
 10
46.388952
 11
46.450222
 20
184.531226
 21
184.997118
  0
LINE
  8
LIVELLO_1
 10
46.450222
 11
46.388839
 20
184.997118
 21
185.462983
  0
LINE
  8
LIVELLO_1
 10
46.388839
 11
46.20895
 20
185.462983
 21
185.897097
  0
LINE
  8
LIVELLO_1
 10
46.20895
 11
45.922833
 20
185.897097
 21
186.269828
  0
LINE
  8
LIVELLO_1
 10
45.922833
 11
45.550018
 20
186.269828
 21
186.555832
  0
LINE
  8
LIVELLO_1
 10
45.550018
 11
45.115847
 20
186.555832
 21
186.735607
  0
LINE
  8
LIVELLO_1
 10
45.115847
 11
44.649983
 20
186.735607
 21
186.796849
  0
LINE
  8
LIVELLO_1
 10
44.649983
 11
44.184119
 20
186.796849
 21
186.735466
  0
LINE
  8
LIVELLO_1
 10
44.184119
 11
43.750005
 20
186.735466
 21
186.555578
  0
LINE
  8
LIVELLO_1
 10
43.750005
 11
43.377245
 20
186.555578
 21
186.269461
  0
LINE
  8
LIVELLO_1
 10
43.377245
 11
43.09127
 20
186.269461
 21
185.896645
  0
LINE
  8
LIVELLO_1
 10
43.09127
 11
42.911494
 20
185.896645
 21
185.462475
  0
LINE
  8
LIVELLO_1
 10
42.911494
 11
42.850224
 20
185.462475
 21
184.99661
  0
LINE
  8
LIVELLO_1
 10
42.850224
 11
42.911635
 20
184.99661
 21
184.530746
  0
LINE
  8
LIVELLO_1
 10
42.911635
 11
43.091524
 20
184.530746
 21
184.096632
  0
LINE
  8
LIVELLO_1
 10
43.091524
 11
43.377612
 20
184.096632
 21
183.723901
  0
LINE
  8
LIVELLO_1
 10
43.377612
 11
43.750456
 20
183.723901
 21
183.437897
  0
LINE
  8
LIVELLO_1
 10
43.750456
 11
44.184599
 20
183.437897
 21
183.258121
  0
LINE
  8
LIVELLO_1
 10
10.004722
 11
10.470586
 20
358.213491
 21
358.274874
  0
LINE
  8
LIVELLO_1
 10
10.470586
 11
10.904672
 20
358.274874
 21
358.454763
  0
LINE
  8
LIVELLO_1
 10
10.904672
 11
11.277431
 20
358.454763
 21
358.740879
  0
LINE
  8
LIVELLO_1
 10
11.277431
 11
11.563435
 20
358.740879
 21
359.113695
  0
LINE
  8
LIVELLO_1
 10
11.563435
 11
11.743182
 20
359.113695
 21
359.547866
  0
LINE
  8
LIVELLO_1
 10
11.743182
 11
11.804453
 20
359.547866
 21
360.01373
  0
LINE
  8
LIVELLO_1
 10
11.804453
 11
11.743069
 20
360.01373
 21
360.479594
  0
LINE
  8
LIVELLO_1
 10
11.743069
 11
11.563181
 20
360.479594
 21
360.913708
  0
LINE
  8
LIVELLO_1
 10
11.563181
 11
11.277064
 20
360.913708
 21
361.286467
  0
LINE
  8
LIVELLO_1
 10
11.277064
 11
10.90422
 20
361.286467
 21
361.572443
  0
LINE
  8
LIVELLO_1
 10
10.90422
 11
10.470078
 20
361.572443
 21
361.752219
  0
LINE
  8
LIVELLO_1
 10
10.470078
 11
10.004214
 20
361.752219
 21
361.813489
  0
LINE
  8
LIVELLO_1
 10
10.004214
 11
9.538321
 20
361.813489
 21
361.752078
  0
LINE
  8
LIVELLO_1
 10
9.538321
 11
9.104235
 20
361.752078
 21
361.572189
  0
LINE
  8
LIVELLO_1
 10
9.104235
 11
8.731476
 20
361.572189
 21
361.286101
  0
LINE
  8
LIVELLO_1
 10
8.731476
 11
8.445472
 20
361.286101
 21
360.913257
  0
LINE
  8
LIVELLO_1
 10
8.445472
 11
8.265725
 20
360.913257
 21
360.479114
  0
LINE
  8
LIVELLO_1
 10
8.265725
 11
8.204454
 20
360.479114
 21
360.013222
  0
LINE
  8
LIVELLO_1
 10
8.204454
 11
8.265866
 20
360.013222
 21
359.547358
  0
LINE
  8
LIVELLO_1
 10
8.265866
 11
8.445754
 20
359.547358
 21
359.113243
  0
LINE
  8
LIVELLO_1
 10
8.445754
 11
8.731843
 20
359.113243
 21
358.740513
  0
LINE
  8
LIVELLO_1
 10
8.731843
 11
9.104687
 20
358.740513
 21
358.454509
  0
LINE
  8
LIVELLO_1
 10
9.104687
 11
9.538829
 20
358.454509
 21
358.274761
  0
LINE
  8
LIVELLO_1
 10
9.538829
 11
10.004722
 20
358.274761
 21
358.213491
  0
LINE
  8
LIVELLO_1
 10
28.749922
 11
28.463918
 20
361.286101
 21
360.913257
  0
LINE
  8
LIVELLO_1
 10
28.463918
 11
28.28417
 20
360.913257
 21
360.479114
  0
LINE
  8
LIVELLO_1
 10
28.28417
 11
28.2229
 20
360.479114
 21
360.013222
  0
LINE
  8
LIVELLO_1
 10
28.2229
 11
28.284311
 20
360.013222
 21
359.547358
  0
LINE
  8
LIVELLO_1
 10
28.284311
 11
28.464172
 20
359.547358
 21
359.113243
  0
LINE
  8
LIVELLO_1
 10
28.464172
 11
28.750289
 20
359.113243
 21
358.740513
  0
LINE
  8
LIVELLO_1
 10
28.750289
 11
29.123132
 20
358.740513
 21
358.454509
  0
LINE
  8
LIVELLO_1
 10
29.123132
 11
29.557275
 20
358.454509
 21
358.274761
  0
LINE
  8
LIVELLO_1
 10
29.557275
 11
30.023167
 20
358.274761
 21
358.213491
  0
LINE
  8
LIVELLO_1
 10
30.023167
 11
30.489031
 20
358.213491
 21
358.274874
  0
LINE
  8
LIVELLO_1
 10
30.489031
 11
30.923117
 20
358.274874
 21
358.454763
  0
LINE
  8
LIVELLO_1
 10
30.923117
 11
31.295877
 20
358.454763
 21
358.740879
  0
LINE
  8
LIVELLO_1
 10
31.295877
 11
31.581881
 20
358.740879
 21
359.113695
  0
LINE
  8
LIVELLO_1
 10
31.581881
 11
31.761628
 20
359.113695
 21
359.547866
  0
LINE
  8
LIVELLO_1
 10
31.761628
 11
31.822898
 20
359.547866
 21
360.01373
  0
LINE
  8
LIVELLO_1
 10
31.822898
 11
31.761487
 20
360.01373
 21
360.479594
  0
LINE
  8
LIVELLO_1
 10
31.761487
 11
31.581627
 20
360.479594
 21
360.913708
  0
LINE
  8
LIVELLO_1
 10
31.581627
 11
31.29551
 20
360.913708
 21
361.286467
  0
LINE
  8
LIVELLO_1
 10
31.29551
 11
30.922666
 20
361.286467
 21
361.572443
  0
LINE
  8
LIVELLO_1
 10
30.922666
 11
30.488523
 20
361.572443
 21
361.752219
  0
LINE
  8
LIVELLO_1
 10
30.488523
 11
30.022631
 20
361.752219
 21
361.813489
  0
LINE
  8
LIVELLO_1
 10
30.022631
 11
29.556767
 20
361.813489
 21
361.752078
  0
LINE
  8
LIVELLO_1
 10
29.556767
 11
29.122681
 20
361.752078
 21
361.572189
  0
LINE
  8
LIVELLO_1
 10
29.122681
 11
28.749922
 20
361.572189
 21
361.286101
  0
LINE
  8
LIVELLO_1
 10
45.922833
 11
45.550018
 20
341.267994
 21
341.553998
  0
LINE
  8
LIVELLO_1
 10
45.550018
 11
45.115847
 20
341.553998
 21
341.733773
  0
LINE
  8
LIVELLO_1
 10
45.115847
 11
44.649983
 20
341.733773
 21
341.795044
  0
LINE
  8
LIVELLO_1
 10
44.649983
 11
44.184119
 20
341.795044
 21
341.733632
  0
LINE
  8
LIVELLO_1
 10
44.184119
 11
43.750005
 20
341.733632
 21
341.553744
  0
LINE
  8
LIVELLO_1
 10
43.750005
 11
43.377245
 20
341.553744
 21
341.267655
  0
LINE
  8
LIVELLO_1
 10
43.377245
 11
43.09127
 20
341.267655
 21
340.894811
  0
LINE
  8
LIVELLO_1
 10
43.09127
 11
42.911494
 20
340.894811
 21
340.460669
  0
LINE
  8
LIVELLO_1
 10
42.911494
 11
42.850224
 20
340.460669
 21
339.994776
  0
LINE
  8
LIVELLO_1
 10
42.850224
 11
42.911635
 20
339.994776
 21
339.528912
  0
LINE
  8
LIVELLO_1
 10
42.911635
 11
43.091524
 20
339.528912
 21
339.094798
  0
LINE
  8
LIVELLO_1
 10
43.091524
 11
43.377612
 20
339.094798
 21
338.722067
  0
LINE
  8
LIVELLO_1
 10
43.377612
 11
43.750456
 20
338.722067
 21
338.436063
  0
LINE
  8
LIVELLO_1
 10
43.750456
 11
44.184599
 20
338.436063
 21
338.256287
  0
LINE
  8
LIVELLO_1
 10
44.184599
 11
44.650491
 20
338.256287
 21
338.195045
  0
LINE
  8
LIVELLO_1
 10
44.650491
 11
45.116355
 20
338.195045
 21
338.256429
  0
LINE
  8
LIVELLO_1
 10
45.116355
 11
45.550441
 20
338.256429
 21
338.436317
  0
LINE
  8
LIVELLO_1
 10
45.550441
 11
45.9232
 20
338.436317
 21
338.722434
  0
LINE
  8
LIVELLO_1
 10
45.9232
 11
46.209204
 20
338.722434
 21
339.095249
  0
LINE
  8
LIVELLO_1
 10
46.209204
 11
46.388952
 20
339.095249
 21
339.52942
  0
LINE
  8
LIVELLO_1
 10
46.388952
 11
46.450222
 20
339.52942
 21
339.995284
  0
LINE
  8
LIVELLO_1
 10
46.450222
 11
46.388839
 20
339.995284
 21
340.461149
  0
LINE
  8
LIVELLO_1
 10
46.388839
 11
46.20895
 20
340.461149
 21
340.895263
  0
LINE
  8
LIVELLO_1
 10
46.20895
 11
45.922833
 20
340.895263
 21
341.267994
  0
LINE
  8
LIVELLO_1
 10
174.116422
 11
173.682271
 20
195.565409
 21
195.745157
  0
LINE
  8
LIVELLO_1
 10
173.682271
 11
173.216387
 20
195.745157
 21
195.806427
  0
LINE
  8
LIVELLO_1
 10
173.216387
 11
173.17963
 20
195.806427
 21
195.801629
  0
LINE
  8
LIVELLO_1
 10
173.17963
 11
172.750523
 20
195.801629
 21
195.745015
  0
LINE
  8
LIVELLO_1
 10
172.750523
 11
172.316423
 20
195.745015
 21
195.565127
  0
LINE
  8
LIVELLO_1
 10
172.316423
 11
171.943672
 20
195.565127
 21
195.279038
  0
LINE
  8
LIVELLO_1
 10
171.943672
 11
171.657671
 20
195.279038
 21
194.906195
  0
LINE
  8
LIVELLO_1
 10
171.657671
 11
171.477912
 20
194.906195
 21
194.472052
  0
LINE
  8
LIVELLO_1
 10
171.477912
 11
171.416644
 20
194.472052
 21
194.00616
  0
LINE
  8
LIVELLO_1
 10
171.416644
 11
171.478045
 20
194.00616
 21
193.540295
  0
LINE
  8
LIVELLO_1
 10
171.478045
 11
171.657928
 20
193.540295
 21
193.106209
  0
LINE
  8
LIVELLO_1
 10
171.657928
 11
171.944036
 20
193.106209
 21
192.73345
  0
LINE
  8
LIVELLO_1
 10
171.944036
 11
172.316868
 20
192.73345
 21
192.447446
  0
LINE
  8
LIVELLO_1
 10
172.316868
 11
172.751019
 20
192.447446
 21
192.267699
  0
LINE
  8
LIVELLO_1
 10
172.751019
 11
173.17963
 20
192.267699
 21
192.211311
  0
LINE
  8
LIVELLO_1
 10
173.17963
 11
173.216903
 20
192.211311
 21
192.206513
  0
LINE
  8
LIVELLO_1
 10
173.216903
 11
173.682768
 20
192.206513
 21
192.267812
  0
LINE
  8
LIVELLO_1
 10
173.682768
 11
174.116868
 20
192.267812
 21
192.4477
  0
LINE
  8
LIVELLO_1
 10
174.116868
 11
174.489618
 20
192.4477
 21
192.733817
  0
LINE
  8
LIVELLO_1
 10
174.489618
 11
174.77562
 20
192.733817
 21
193.106633
  0
LINE
  8
LIVELLO_1
 10
174.77562
 11
174.955378
 20
193.106633
 21
193.540803
  0
LINE
  8
LIVELLO_1
 10
174.955378
 11
175.016646
 20
193.540803
 21
194.006668
  0
LINE
  8
LIVELLO_1
 10
175.016646
 11
174.955245
 20
194.006668
 21
194.47256
  0
LINE
  8
LIVELLO_1
 10
174.955245
 11
174.775363
 20
194.47256
 21
194.906646
  0
LINE
  8
LIVELLO_1
 10
174.775363
 11
174.489254
 20
194.906646
 21
195.279405
  0
LINE
  8
LIVELLO_1
 10
174.489254
 11
174.116422
 20
195.279405
 21
195.565409
  0
LINE
  8
LIVELLO_1
 10
408.794447
 11
409.430122
 20
362.063679
 21
362.892114
  0
LINE
  8
LIVELLO_1
 10
409.430122
 11
410.258549
 20
362.892114
 21
363.527792
  0
LINE
  8
LIVELLO_1
 10
410.258549
 11
411.223272
 20
363.527792
 21
363.92739
  0
LINE
  8
LIVELLO_1
 10
411.223272
 11
412.258547
 20
363.92739
 21
364.063675
  0
LINE
  8
LIVELLO_1
 10
412.258547
 11
420.321377
 20
364.063675
 21
364.063675
  0
LINE
  8
LIVELLO_1
 10
420.321377
 11
421.289793
 20
364.063675
 21
363.92739
  0
LINE
  8
LIVELLO_1
 10
421.289793
 11
422.254516
 20
363.92739
 21
363.527792
  0
LINE
  8
LIVELLO_1
 10
422.254516
 11
423.082943
 20
363.527792
 21
362.892114
  0
LINE
  8
LIVELLO_1
 10
423.082943
 11
423.718617
 20
362.892114
 21
362.063679
  0
LINE
  8
LIVELLO_1
 10
423.718617
 11
424.118218
 20
362.063679
 21
361.098959
  0
LINE
  8
LIVELLO_1
 10
424.118218
 11
424.254515
 20
361.098959
 21
360.063683
  0
LINE
  8
LIVELLO_1
 10
424.254515
 11
424.118218
 20
360.063683
 21
359.028407
  0
LINE
  8
LIVELLO_1
 10
424.118218
 11
423.718617
 20
359.028407
 21
358.063687
  0
LINE
  8
LIVELLO_1
 10
423.718617
 11
423.082943
 20
358.063687
 21
357.235252
  0
LINE
  8
LIVELLO_1
 10
423.082943
 11
422.254516
 20
357.235252
 21
356.599575
  0
LINE
  8
LIVELLO_1
 10
422.254516
 11
421.289793
 20
356.599575
 21
356.199976
  0
LINE
  8
LIVELLO_1
 10
421.289793
 11
420.254518
 20
356.199976
 21
356.063691
  0
LINE
  8
LIVELLO_1
 10
420.254518
 11
412.258547
 20
356.063691
 21
356.063691
  0
LINE
  8
LIVELLO_1
 10
412.258547
 11
411.223272
 20
356.063691
 21
356.199976
  0
LINE
  8
LIVELLO_1
 10
411.223272
 11
410.258549
 20
356.199976
 21
356.599575
  0
LINE
  8
LIVELLO_1
 10
410.258549
 11
409.430122
 20
356.599575
 21
357.235252
  0
LINE
  8
LIVELLO_1
 10
409.430122
 11
408.794447
 20
357.235252
 21
358.063687
  0
LINE
  8
LIVELLO_1
 10
408.794447
 11
408.394846
 20
358.063687
 21
359.028407
  0
LINE
  8
LIVELLO_1
 10
408.394846
 11
408.258547
 20
359.028407
 21
360.063683
  0
LINE
  8
LIVELLO_1
 10
408.258547
 11
408.394846
 20
360.063683
 21
361.098959
  0
LINE
  8
LIVELLO_1
 10
408.394846
 11
408.794447
 20
361.098959
 21
362.063679
  0
LINE
  8
LIVELLO_1
 10
591.147585
 11
591.97602
 20
12.828439
 21
13.464117
  0
LINE
  8
LIVELLO_1
 10
591.97602
 11
592.94074
 20
13.464117
 21
13.863715
  0
LINE
  8
LIVELLO_1
 10
592.94074
 11
593.976016
 20
13.863715
 21
14.0
  0
LINE
  8
LIVELLO_1
 10
593.976016
 11
601.971993
 20
14.0
 21
14.0
  0
LINE
  8
LIVELLO_1
 10
601.971993
 11
603.007268
 20
14.0
 21
13.863715
  0
LINE
  8
LIVELLO_1
 10
603.007268
 11
603.972017
 20
13.863715
 21
13.464117
  0
LINE
  8
LIVELLO_1
 10
603.972017
 11
604.800424
 20
13.464117
 21
12.828439
  0
LINE
  8
LIVELLO_1
 10
604.800424
 11
605.436101
 20
12.828439
 21
12.000004
  0
LINE
  8
LIVELLO_1
 10
605.436101
 11
605.8357
 20
12.000004
 21
11.035284
  0
LINE
  8
LIVELLO_1
 10
605.8357
 11
605.972013
 20
11.035284
 21
10.000008
  0
LINE
  8
LIVELLO_1
 10
605.972013
 11
605.8357
 20
10.000008
 21
8.964733
  0
LINE
  8
LIVELLO_1
 10
605.8357
 11
605.436101
 20
8.964733
 21
8.000012
  0
LINE
  8
LIVELLO_1
 10
605.436101
 11
604.800424
 20
8.000012
 21
7.171577
  0
LINE
  8
LIVELLO_1
 10
604.800424
 11
603.972017
 20
7.171577
 21
6.5359
  0
LINE
  8
LIVELLO_1
 10
603.972017
 11
603.007268
 20
6.5359
 21
6.136301
  0
LINE
  8
LIVELLO_1
 10
603.007268
 11
601.971964
 20
6.136301
 21
6.000016
  0
LINE
  8
LIVELLO_1
 10
601.971964
 11
593.909158
 20
6.000016
 21
6.000016
  0
LINE
  8
LIVELLO_1
 10
593.909158
 11
592.94074
 20
6.000016
 21
6.136301
  0
LINE
  8
LIVELLO_1
 10
592.94074
 11
591.97602
 20
6.136301
 21
6.5359
  0
LINE
  8
LIVELLO_1
 10
591.97602
 11
591.147585
 20
6.5359
 21
7.171577
  0
LINE
  8
LIVELLO_1
 10
591.147585
 11
590.511936
 20
7.171577
 21
8.000012
  0
LINE
  8
LIVELLO_1
 10
590.511936
 11
590.112309
 20
8.000012
 21
8.964733
  0
LINE
  8
LIVELLO_1
 10
590.112309
 11
589.976024
 20
8.964733
 21
10.000008
  0
LINE
  8
LIVELLO_1
 10
589.976024
 11
590.112309
 20
10.000008
 21
11.035284
  0
LINE
  8
LIVELLO_1
 10
590.112309
 11
590.511936
 20
11.035284
 21
12.000004
  0
LINE
  8
LIVELLO_1
 10
590.511936
 11
591.147585
 20
12.000004
 21
12.828439
  0
LINE
  8
LIVELLO_1
 10
505.743997
 11
505.682729
 20
158.66745
 21
159.133314
  0
LINE
  8
LIVELLO_1
 10
505.682729
 11
505.744129
 20
159.133314
 21
159.599179
  0
LINE
  8
LIVELLO_1
 10
505.744129
 11
505.924012
 20
159.599179
 21
160.033293
  0
LINE
  8
LIVELLO_1
 10
505.924012
 11
506.210121
 20
160.033293
 21
160.406024
  0
LINE
  8
LIVELLO_1
 10
506.210121
 11
506.582953
 20
160.406024
 21
160.692028
  0
LINE
  8
LIVELLO_1
 10
506.582953
 11
507.017104
 20
160.692028
 21
160.871803
  0
LINE
  8
LIVELLO_1
 10
507.017104
 11
507.482988
 20
160.871803
 21
160.933074
  0
LINE
  8
LIVELLO_1
 10
507.482988
 11
507.948852
 20
160.933074
 21
160.871662
  0
LINE
  8
LIVELLO_1
 10
507.948852
 11
508.382952
 20
160.871662
 21
160.691774
  0
LINE
  8
LIVELLO_1
 10
508.382952
 11
508.755703
 20
160.691774
 21
160.405685
  0
LINE
  8
LIVELLO_1
 10
508.755703
 11
509.041704
 20
160.405685
 21
160.032841
  0
LINE
  8
LIVELLO_1
 10
509.041704
 11
509.221463
 20
160.032841
 21
159.598699
  0
LINE
  8
LIVELLO_1
 10
509.221463
 11
509.275223
 20
159.598699
 21
159.1899
  0
LINE
  8
LIVELLO_1
 10
509.275223
 11
509.28273
 20
159.1899
 21
159.132806
  0
LINE
  8
LIVELLO_1
 10
509.28273
 11
509.22133
 20
159.132806
 21
158.666942
  0
LINE
  8
LIVELLO_1
 10
509.22133
 11
509.041447
 20
158.666942
 21
158.232828
  0
LINE
  8
LIVELLO_1
 10
509.041447
 11
508.755339
 20
158.232828
 21
157.860097
  0
LINE
  8
LIVELLO_1
 10
508.755339
 11
508.382506
 20
157.860097
 21
157.574093
  0
LINE
  8
LIVELLO_1
 10
508.382506
 11
507.948355
 20
157.574093
 21
157.394317
  0
LINE
  8
LIVELLO_1
 10
507.948355
 11
507.482471
 20
157.394317
 21
157.333075
  0
LINE
  8
LIVELLO_1
 10
507.482471
 11
507.428036
 20
157.333075
 21
157.340131
  0
LINE
  8
LIVELLO_1
 10
507.428036
 11
507.016607
 20
157.340131
 21
157.394459
  0
LINE
  8
LIVELLO_1
 10
507.016607
 11
506.582507
 20
157.394459
 21
157.574347
  0
LINE
  8
LIVELLO_1
 10
506.582507
 11
506.209756
 20
157.574347
 21
157.860464
  0
LINE
  8
LIVELLO_1
 10
506.209756
 11
505.923755
 20
157.860464
 21
158.233279
  0
LINE
  8
LIVELLO_1
 10
505.923755
 11
505.743997
 20
158.233279
 21
158.66745
  0
LINE
  8
LIVELLO_1
 10
604.238745
 11
604.299987
 20
63.687847
 21
63.221955
  0
LINE
  8
LIVELLO_1
 10
604.299987
 11
604.238604
 20
63.221955
 21
62.756091
  0
LINE
  8
LIVELLO_1
 10
604.238604
 11
604.058744
 20
62.756091
 21
62.322005
  0
LINE
  8
LIVELLO_1
 10
604.058744
 11
603.772627
 20
62.322005
 21
61.949245
  0
LINE
  8
LIVELLO_1
 10
603.772627
 11
603.399783
 20
61.949245
 21
61.663241
  0
LINE
  8
LIVELLO_1
 10
603.399783
 11
602.965641
 20
61.663241
 21
61.483494
  0
LINE
  8
LIVELLO_1
 10
602.965641
 11
602.499748
 20
61.483494
 21
61.422224
  0
LINE
  8
LIVELLO_1
 10
602.499748
 11
602.033884
 20
61.422224
 21
61.483635
  0
LINE
  8
LIVELLO_1
 10
602.033884
 11
601.599798
 20
61.483635
 21
61.663495
  0
LINE
  8
LIVELLO_1
 10
601.599798
 11
601.227039
 20
61.663495
 21
61.949612
  0
LINE
  8
LIVELLO_1
 10
601.227039
 11
600.941035
 20
61.949612
 21
62.322456
  0
LINE
  8
LIVELLO_1
 10
600.941035
 11
600.761288
 20
62.322456
 21
62.756599
  0
LINE
  8
LIVELLO_1
 10
600.761288
 11
600.704279
 20
62.756599
 21
63.19012
  0
LINE
  8
LIVELLO_1
 10
600.704279
 11
600.700045
 20
63.19012
 21
63.222491
  0
LINE
  8
LIVELLO_1
 10
600.700045
 11
600.761429
 20
63.222491
 21
63.688355
  0
LINE
  8
LIVELLO_1
 10
600.761429
 11
600.941289
 20
63.688355
 21
64.122441
  0
LINE
  8
LIVELLO_1
 10
600.941289
 11
601.227406
 20
64.122441
 21
64.4952
  0
LINE
  8
LIVELLO_1
 10
601.227406
 11
601.600221
 20
64.4952
 21
64.781204
  0
LINE
  8
LIVELLO_1
 10
601.600221
 11
602.034392
 20
64.781204
 21
64.960952
  0
LINE
  8
LIVELLO_1
 10
602.034392
 11
602.428036
 20
64.960952
 21
65.012711
  0
LINE
  8
LIVELLO_1
 10
602.428036
 11
602.500284
 20
65.012711
 21
65.022307
  0
LINE
  8
LIVELLO_1
 10
602.500284
 11
602.966149
 20
65.022307
 21
64.960811
  0
LINE
  8
LIVELLO_1
 10
602.966149
 11
603.400235
 20
64.960811
 21
64.78095
  0
LINE
  8
LIVELLO_1
 10
603.400235
 11
603.772994
 20
64.78095
 21
64.494833
  0
LINE
  8
LIVELLO_1
 10
603.772994
 11
604.058998
 20
64.494833
 21
64.12199
  0
LINE
  8
LIVELLO_1
 10
604.058998
 11
604.238745
 20
64.12199
 21
63.687847
  0
LINE
  8
LIVELLO_1
 10
508.779537
 11
508.406704
 20
61.992821
 21
61.706817
  0
LINE
  8
LIVELLO_1
 10
508.406704
 11
507.972553
 20
61.706817
 21
61.527069
  0
LINE
  8
LIVELLO_1
 10
507.972553
 11
507.506669
 20
61.527069
 21
61.465799
  0
LINE
  8
LIVELLO_1
 10
507.506669
 11
507.040805
 20
61.465799
 21
61.52721
  0
LINE
  8
LIVELLO_1
 10
507.040805
 11
506.606705
 20
61.52721
 21
61.707071
  0
LINE
  8
LIVELLO_1
 10
506.606705
 11
506.233951
 20
61.707071
 21
61.993187
  0
LINE
  8
LIVELLO_1
 10
506.233951
 11
505.947953
 20
61.993187
 21
62.366031
  0
LINE
  8
LIVELLO_1
 10
505.947953
 11
505.768194
 20
62.366031
 21
62.800174
  0
LINE
  8
LIVELLO_1
 10
505.768194
 11
505.706927
 20
62.800174
 21
63.266066
  0
LINE
  8
LIVELLO_1
 10
505.706927
 11
505.768327
 20
63.266066
 21
63.73193
  0
LINE
  8
LIVELLO_1
 10
505.768327
 11
505.94821
 20
63.73193
 21
64.166016
  0
LINE
  8
LIVELLO_1
 10
505.94821
 11
506.234318
 20
64.166016
 21
64.538775
  0
LINE
  8
LIVELLO_1
 10
506.234318
 11
506.607151
 20
64.538775
 21
64.824779
  0
LINE
  8
LIVELLO_1
 10
506.607151
 11
507.041302
 20
64.824779
 21
65.004527
  0
LINE
  8
LIVELLO_1
 10
507.041302
 11
507.428036
 20
65.004527
 21
65.055383
  0
LINE
  8
LIVELLO_1
 10
507.428036
 11
507.507186
 20
65.055383
 21
65.065825
  0
LINE
  8
LIVELLO_1
 10
507.507186
 11
507.97305
 20
65.065825
 21
65.004386
  0
LINE
  8
LIVELLO_1
 10
507.97305
 11
508.40715
 20
65.004386
 21
64.824525
  0
LINE
  8
LIVELLO_1
 10
508.40715
 11
508.779901
 20
64.824525
 21
64.538409
  0
LINE
  8
LIVELLO_1
 10
508.779901
 11
509.065902
 20
64.538409
 21
64.165565
  0
LINE
  8
LIVELLO_1
 10
509.065902
 11
509.24566
 20
64.165565
 21
63.731422
  0
LINE
  8
LIVELLO_1
 10
509.24566
 11
509.306928
 20
63.731422
 21
63.26553
  0
LINE
  8
LIVELLO_1
 10
509.306928
 11
509.296994
 20
63.26553
 21
63.19012
  0
LINE
  8
LIVELLO_1
 10
509.296994
 11
509.245528
 20
63.19012
 21
62.799666
  0
LINE
  8
LIVELLO_1
 10
509.245528
 11
509.065645
 20
62.799666
 21
62.36558
  0
LINE
  8
LIVELLO_1
 10
509.065645
 11
508.779537
 20
62.36558
 21
61.992821
  0
LINE
  8
LIVELLO_1
 10
604.276027
 11
604.214615
 20
159.178442
 21
158.712577
  0
LINE
  8
LIVELLO_1
 10
604.214615
 11
604.034727
 20
158.712577
 21
158.278491
  0
LINE
  8
LIVELLO_1
 10
604.034727
 11
603.748638
 20
158.278491
 21
157.905732
  0
LINE
  8
LIVELLO_1
 10
603.748638
 11
603.375794
 20
157.905732
 21
157.619728
  0
LINE
  8
LIVELLO_1
 10
603.375794
 11
602.941652
 20
157.619728
 21
157.439981
  0
LINE
  8
LIVELLO_1
 10
602.941652
 11
602.475759
 20
157.439981
 21
157.378711
  0
LINE
  8
LIVELLO_1
 10
602.475759
 11
602.428036
 20
157.378711
 21
157.384919
  0
LINE
  8
LIVELLO_1
 10
602.428036
 11
602.009895
 20
157.384919
 21
157.440122
  0
LINE
  8
LIVELLO_1
 10
602.009895
 11
601.575809
 20
157.440122
 21
157.619982
  0
LINE
  8
LIVELLO_1
 10
601.575809
 11
601.20305
 20
157.619982
 21
157.906099
  0
LINE
  8
LIVELLO_1
 10
601.20305
 11
600.917046
 20
157.906099
 21
158.278943
  0
LINE
  8
LIVELLO_1
 10
600.917046
 11
600.737299
 20
158.278943
 21
158.713085
  0
LINE
  8
LIVELLO_1
 10
600.737299
 11
600.676028
 20
158.713085
 21
159.178978
  0
LINE
  8
LIVELLO_1
 10
600.676028
 11
600.737412
 20
159.178978
 21
159.644842
  0
LINE
  8
LIVELLO_1
 10
600.737412
 11
600.9173
 20
159.644842
 21
160.078928
  0
LINE
  8
LIVELLO_1
 10
600.9173
 11
601.203417
 20
160.078928
 21
160.451687
  0
LINE
  8
LIVELLO_1
 10
601.203417
 11
601.576232
 20
160.451687
 21
160.737691
  0
LINE
  8
LIVELLO_1
 10
601.576232
 11
602.010403
 20
160.737691
 21
160.917439
  0
LINE
  8
LIVELLO_1
 10
602.010403
 11
602.476267
 20
160.917439
 21
160.978709
  0
LINE
  8
LIVELLO_1
 10
602.476267
 11
602.942132
 20
160.978709
 21
160.917297
  0
LINE
  8
LIVELLO_1
 10
602.942132
 11
603.376246
 20
160.917297
 21
160.737437
  0
LINE
  8
LIVELLO_1
 10
603.376246
 11
603.749005
 20
160.737437
 21
160.45132
  0
LINE
  8
LIVELLO_1
 10
603.749005
 11
604.035009
 20
160.45132
 21
160.078477
  0
LINE
  8
LIVELLO_1
 10
604.035009
 11
604.214756
 20
160.078477
 21
159.644334
  0
LINE
  8
LIVELLO_1
 10
604.214756
 11
604.276027
 20
159.644334
 21
159.178442
  0
LINE
  8
LIVELLO_1
 10
531.385
 11
531.850884
 20
147.761678
 21
147.82292
  0
LINE
  8
LIVELLO_1
 10
531.850884
 11
532.316749
 20
147.82292
 21
147.761537
  0
LINE
  8
LIVELLO_1
 10
532.316749
 11
532.750849
 20
147.761537
 21
147.581648
  0
LINE
  8
LIVELLO_1
 10
532.750849
 11
532.965676
 20
147.581648
 21
147.416746
  0
LINE
  8
LIVELLO_1
 10
532.965676
 11
533.013614
 20
147.416746
 21
147.39699
  0
LINE
  8
LIVELLO_1
 10
533.013614
 11
533.123599
 20
147.39699
 21
147.295531
  0
LINE
  8
LIVELLO_1
 10
533.123599
 11
533.4096
 20
147.295531
 21
146.922716
  0
LINE
  8
LIVELLO_1
 10
533.4096
 11
533.589359
 20
146.922716
 21
146.488545
  0
LINE
  8
LIVELLO_1
 10
533.589359
 11
533.650627
 20
146.488545
 21
146.022681
  0
LINE
  8
LIVELLO_1
 10
533.650627
 11
533.589226
 20
146.022681
 21
145.556817
  0
LINE
  8
LIVELLO_1
 10
533.589226
 11
533.409344
 20
145.556817
 21
145.122703
  0
LINE
  8
LIVELLO_1
 10
533.409344
 11
533.123235
 20
145.122703
 21
144.749972
  0
LINE
  8
LIVELLO_1
 10
533.123235
 11
532.750403
 20
144.749972
 21
144.463968
  0
LINE
  8
LIVELLO_1
 10
532.750403
 11
532.316252
 20
144.463968
 21
144.284192
  0
LINE
  8
LIVELLO_1
 10
532.316252
 11
531.850368
 20
144.284192
 21
144.222922
  0
LINE
  8
LIVELLO_1
 10
531.850368
 11
531.384504
 20
144.222922
 21
144.284333
  0
LINE
  8
LIVELLO_1
 10
531.384504
 11
530.998342
 20
144.284333
 21
144.444353
  0
LINE
  8
LIVELLO_1
 10
530.998342
 11
530.950404
 20
144.444353
 21
144.464109
  0
LINE
  8
LIVELLO_1
 10
530.950404
 11
530.840419
 20
144.464109
 21
144.565568
  0
LINE
  8
LIVELLO_1
 10
530.840419
 11
530.577653
 20
144.565568
 21
144.75031
  0
LINE
  8
LIVELLO_1
 10
530.577653
 11
530.291652
 20
144.75031
 21
145.123154
  0
LINE
  8
LIVELLO_1
 10
530.291652
 11
530.111893
 20
145.123154
 21
145.557297
  0
LINE
  8
LIVELLO_1
 10
530.111893
 11
530.050625
 20
145.557297
 21
146.023189
  0
LINE
  8
LIVELLO_1
 10
530.050625
 11
530.112026
 20
146.023189
 21
146.489053
  0
LINE
  8
LIVELLO_1
 10
530.112026
 11
530.291909
 20
146.489053
 21
146.923167
  0
LINE
  8
LIVELLO_1
 10
530.291909
 11
530.578017
 20
146.923167
 21
147.295898
  0
LINE
  8
LIVELLO_1
 10
530.578017
 11
530.950849
 20
147.295898
 21
147.581902
  0
LINE
  8
LIVELLO_1
 10
530.950849
 11
531.385
 20
147.581902
 21
147.761678
  0
LINE
  8
LIVELLO_1
 10
533.622173
 11
533.44229
 20
70.612282
 21
70.178168
  0
LINE
  8
LIVELLO_1
 10
533.44229
 11
533.156182
 20
70.178168
 21
69.805437
  0
LINE
  8
LIVELLO_1
 10
533.156182
 11
532.783349
 20
69.805437
 21
69.519433
  0
LINE
  8
LIVELLO_1
 10
532.783349
 11
532.349198
 20
69.519433
 21
69.339658
  0
LINE
  8
LIVELLO_1
 10
532.349198
 11
531.883314
 20
69.339658
 21
69.278387
  0
LINE
  8
LIVELLO_1
 10
531.883314
 11
531.41745
 20
69.278387
 21
69.339799
  0
LINE
  8
LIVELLO_1
 10
531.41745
 11
531.057961
 20
69.339799
 21
69.488756
  0
LINE
  8
LIVELLO_1
 10
531.057961
 11
530.98335
 20
69.488756
 21
69.519687
  0
LINE
  8
LIVELLO_1
 10
530.98335
 11
530.795455
 20
69.519687
 21
69.690262
  0
LINE
  8
LIVELLO_1
 10
530.795455
 11
530.610599
 20
69.690262
 21
69.805776
  0
LINE
  8
LIVELLO_1
 10
530.610599
 11
530.324598
 20
69.805776
 21
70.17862
  0
LINE
  8
LIVELLO_1
 10
530.324598
 11
530.14484
 20
70.17862
 21
70.612762
  0
LINE
  8
LIVELLO_1
 10
530.14484
 11
530.083572
 20
70.612762
 21
71.078655
  0
LINE
  8
LIVELLO_1
 10
530.083572
 11
530.144972
 20
71.078655
 21
71.544519
  0
LINE
  8
LIVELLO_1
 10
530.144972
 11
530.324855
 20
71.544519
 21
71.978633
  0
LINE
  8
LIVELLO_1
 10
530.324855
 11
530.610964
 20
71.978633
 21
72.351364
  0
LINE
  8
LIVELLO_1
 10
530.610964
 11
530.983796
 20
72.351364
 21
72.637368
  0
LINE
  8
LIVELLO_1
 10
530.983796
 11
531.417947
 20
72.637368
 21
72.817143
  0
LINE
  8
LIVELLO_1
 10
531.417947
 11
531.883831
 20
72.817143
 21
72.878386
  0
LINE
  8
LIVELLO_1
 10
531.883831
 11
532.349695
 20
72.878386
 21
72.817002
  0
LINE
  8
LIVELLO_1
 10
532.349695
 11
532.783795
 20
72.817002
 21
72.637114
  0
LINE
  8
LIVELLO_1
 10
532.783795
 11
532.89404
 20
72.637114
 21
72.552504
  0
LINE
  8
LIVELLO_1
 10
532.89404
 11
532.968651
 20
72.552504
 21
72.521572
  0
LINE
  8
LIVELLO_1
 10
532.968651
 11
533.156549
 20
72.521572
 21
72.350997
  0
LINE
  8
LIVELLO_1
 10
533.156549
 11
533.442547
 20
72.350997
 21
71.978181
  0
LINE
  8
LIVELLO_1
 10
533.442547
 11
533.622306
 20
71.978181
 21
71.544011
  0
LINE
  8
LIVELLO_1
 10
533.622306
 11
533.683573
 20
71.544011
 21
71.078147
  0
LINE
  8
LIVELLO_1
 10
533.683573
 11
533.622173
 20
71.078147
 21
70.612282
  0
LINE
  8
LIVELLO_1
 10
581.013578
 11
580.579435
 20
150.764635
 21
150.584888
  0
LINE
  8
LIVELLO_1
 10
580.579435
 11
580.113543
 20
150.584888
 21
150.523617
  0
LINE
  8
LIVELLO_1
 10
580.113543
 11
579.647679
 20
150.523617
 21
150.585001
  0
LINE
  8
LIVELLO_1
 10
579.647679
 11
579.287224
 20
150.585001
 21
150.734381
  0
LINE
  8
LIVELLO_1
 10
579.287224
 11
579.213593
 20
150.734381
 21
150.764889
  0
LINE
  8
LIVELLO_1
 10
579.213593
 11
579.062801
 20
150.764889
 21
150.906621
  0
LINE
  8
LIVELLO_1
 10
579.062801
 11
578.840834
 20
150.906621
 21
151.051006
  0
LINE
  8
LIVELLO_1
 10
578.840834
 11
578.55483
 20
151.051006
 21
151.423822
  0
LINE
  8
LIVELLO_1
 10
578.55483
 11
578.375082
 20
151.423822
 21
151.857992
  0
LINE
  8
LIVELLO_1
 10
578.375082
 11
578.313812
 20
151.857992
 21
152.323857
  0
LINE
  8
LIVELLO_1
 10
578.313812
 11
578.375195
 20
152.323857
 21
152.789721
  0
LINE
  8
LIVELLO_1
 10
578.375195
 11
578.555084
 20
152.789721
 21
153.223835
  0
LINE
  8
LIVELLO_1
 10
578.555084
 11
578.8412
 20
153.223835
 21
153.596594
  0
LINE
  8
LIVELLO_1
 10
578.8412
 11
579.214044
 20
153.596594
 21
153.88257
  0
LINE
  8
LIVELLO_1
 10
579.214044
 11
579.648187
 20
153.88257
 21
154.062345
  0
LINE
  8
LIVELLO_1
 10
579.648187
 11
580.114079
 20
154.062345
 21
154.123616
  0
LINE
  8
LIVELLO_1
 10
580.114079
 11
580.579943
 20
154.123616
 21
154.062204
  0
LINE
  8
LIVELLO_1
 10
580.579943
 11
581.014029
 20
154.062204
 21
153.882316
  0
LINE
  8
LIVELLO_1
 10
581.014029
 11
581.162394
 20
153.882316
 21
153.768467
  0
LINE
  8
LIVELLO_1
 10
581.162394
 11
581.235997
 20
153.768467
 21
153.737959
  0
LINE
  8
LIVELLO_1
 10
581.235997
 11
581.386788
 20
153.737959
 21
153.596227
  0
LINE
  8
LIVELLO_1
 10
581.386788
 11
581.672792
 20
153.596227
 21
153.223383
  0
LINE
  8
LIVELLO_1
 10
581.672792
 11
581.85254
 20
153.223383
 21
152.789241
  0
LINE
  8
LIVELLO_1
 10
581.85254
 11
581.91381
 20
152.789241
 21
152.323349
  0
LINE
  8
LIVELLO_1
 10
581.91381
 11
581.852399
 20
152.323349
 21
151.857484
  0
LINE
  8
LIVELLO_1
 10
581.852399
 11
581.672538
 20
151.857484
 21
151.423398
  0
LINE
  8
LIVELLO_1
 10
581.672538
 11
581.386422
 20
151.423398
 21
151.050639
  0
LINE
  8
LIVELLO_1
 10
581.386422
 11
581.013578
 20
151.050639
 21
150.764635
  0
LINE
  8
LIVELLO_1
 10
579.244016
 11
579.678159
 20
72.565881
 21
72.745628
  0
LINE
  8
LIVELLO_1
 10
579.678159
 11
580.144051
 20
72.745628
 21
72.806899
  0
LINE
  8
LIVELLO_1
 10
580.144051
 11
580.609915
 20
72.806899
 21
72.745515
  0
LINE
  8
LIVELLO_1
 10
580.609915
 11
580.809221
 20
72.745515
 21
72.662909
  0
LINE
  8
LIVELLO_1
 10
580.809221
 11
580.864282
 20
72.662909
 21
72.655571
  0
LINE
  8
LIVELLO_1
 10
580.864282
 11
581.044001
 20
72.655571
 21
72.565627
  0
LINE
  8
LIVELLO_1
 10
581.044001
 11
581.41676
 20
72.565627
 21
72.27951
  0
LINE
  8
LIVELLO_1
 10
581.41676
 11
581.702764
 20
72.27951
 21
71.906666
  0
LINE
  8
LIVELLO_1
 10
581.702764
 11
581.882512
 20
71.906666
 21
71.472524
  0
LINE
  8
LIVELLO_1
 10
581.882512
 11
581.943782
 20
71.472524
 21
71.006631
  0
LINE
  8
LIVELLO_1
 10
581.943782
 11
581.882399
 20
71.006631
 21
70.540767
  0
LINE
  8
LIVELLO_1
 10
581.882399
 11
581.70251
 20
70.540767
 21
70.106681
  0
LINE
  8
LIVELLO_1
 10
581.70251
 11
581.416394
 20
70.106681
 21
69.733922
  0
LINE
  8
LIVELLO_1
 10
581.416394
 11
581.04355
 20
69.733922
 21
69.447918
  0
LINE
  8
LIVELLO_1
 10
581.04355
 11
580.609407
 20
69.447918
 21
69.268171
  0
LINE
  8
LIVELLO_1
 10
580.609407
 11
580.143515
 20
69.268171
 21
69.2069
  0
LINE
  8
LIVELLO_1
 10
580.143515
 11
579.732712
 20
69.2069
 21
69.261059
  0
LINE
  8
LIVELLO_1
 10
579.732712
 11
579.677651
 20
69.261059
 21
69.268397
  0
LINE
  8
LIVELLO_1
 10
579.677651
 11
579.497932
 20
69.268397
 21
69.358341
  0
LINE
  8
LIVELLO_1
 10
579.497932
 11
579.243565
 20
69.358341
 21
69.448172
  0
LINE
  8
LIVELLO_1
 10
579.243565
 11
578.870806
 20
69.448172
 21
69.734289
  0
LINE
  8
LIVELLO_1
 10
578.870806
 11
578.584802
 20
69.734289
 21
70.107133
  0
LINE
  8
LIVELLO_1
 10
578.584802
 11
578.405054
 20
70.107133
 21
70.541275
  0
LINE
  8
LIVELLO_1
 10
578.405054
 11
578.343784
 20
70.541275
 21
71.007168
  0
LINE
  8
LIVELLO_1
 10
578.343784
 11
578.405195
 20
71.007168
 21
71.473032
  0
LINE
  8
LIVELLO_1
 10
578.405195
 11
578.585056
 20
71.473032
 21
71.907118
  0
LINE
  8
LIVELLO_1
 10
578.585056
 11
578.871172
 20
71.907118
 21
72.279877
  0
LINE
  8
LIVELLO_1
 10
578.871172
 11
579.244016
 20
72.279877
 21
72.565881
  0
LINE
  8
LIVELLO_1
 10
532.399632
 11
532.338364
 20
157.448137
 21
157.91403
  0
LINE
  8
LIVELLO_1
 10
532.338364
 11
532.399764
 20
157.91403
 21
158.379894
  0
LINE
  8
LIVELLO_1
 10
532.399764
 11
532.579647
 20
158.379894
 21
158.81398
  0
LINE
  8
LIVELLO_1
 10
532.579647
 11
532.865755
 20
158.81398
 21
159.186739
  0
LINE
  8
LIVELLO_1
 10
532.865755
 11
533.238588
 20
159.186739
 21
159.472743
  0
LINE
  8
LIVELLO_1
 10
533.238588
 11
533.672739
 20
159.472743
 21
159.65249
  0
LINE
  8
LIVELLO_1
 10
533.672739
 11
534.138623
 20
159.65249
 21
159.713761
  0
LINE
  8
LIVELLO_1
 10
534.138623
 11
534.604487
 20
159.713761
 21
159.652377
  0
LINE
  8
LIVELLO_1
 10
534.604487
 11
535.038587
 20
159.652377
 21
159.472489
  0
LINE
  8
LIVELLO_1
 10
535.038587
 11
535.411338
 20
159.472489
 21
159.186372
  0
LINE
  8
LIVELLO_1
 10
535.411338
 11
535.697339
 20
159.186372
 21
158.813557
  0
LINE
  8
LIVELLO_1
 10
535.697339
 11
535.877098
 20
158.813557
 21
158.379386
  0
LINE
  8
LIVELLO_1
 10
535.877098
 11
535.930858
 20
158.379386
 21
157.970587
  0
LINE
  8
LIVELLO_1
 10
535.930858
 11
535.938365
 20
157.970587
 21
157.913522
  0
LINE
  8
LIVELLO_1
 10
535.938365
 11
535.876965
 20
157.913522
 21
157.447657
  0
LINE
  8
LIVELLO_1
 10
535.876965
 11
535.697082
 20
157.447657
 21
157.013543
  0
LINE
  8
LIVELLO_1
 10
535.697082
 11
535.410974
 20
157.013543
 21
156.640784
  0
LINE
  8
LIVELLO_1
 10
535.410974
 11
535.038141
 20
156.640784
 21
156.35478
  0
LINE
  8
LIVELLO_1
 10
535.038141
 11
534.60399
 20
156.35478
 21
156.175033
  0
LINE
  8
LIVELLO_1
 10
534.60399
 11
534.138106
 20
156.175033
 21
156.113762
  0
LINE
  8
LIVELLO_1
 10
534.138106
 11
534.083671
 20
156.113762
 21
156.120818
  0
LINE
  8
LIVELLO_1
 10
534.083671
 11
533.672242
 20
156.120818
 21
156.175174
  0
LINE
  8
LIVELLO_1
 10
533.672242
 11
533.238142
 20
156.175174
 21
156.355062
  0
LINE
  8
LIVELLO_1
 10
533.238142
 11
532.865389
 20
156.355062
 21
156.641151
  0
LINE
  8
LIVELLO_1
 10
532.865389
 11
532.57939
 20
156.641151
 21
157.013995
  0
LINE
  8
LIVELLO_1
 10
532.57939
 11
532.399632
 20
157.013995
 21
157.448137
  0
LINE
  8
LIVELLO_1
 10
577.917882
 11
577.506459
 20
156.213161
 21
156.267376
  0
LINE
  8
LIVELLO_1
 10
577.506459
 11
577.072344
 20
156.267376
 21
156.447264
  0
LINE
  8
LIVELLO_1
 10
577.072344
 11
576.699585
 20
156.447264
 21
156.733381
  0
LINE
  8
LIVELLO_1
 10
576.699585
 11
576.413581
 20
156.733381
 21
157.106197
  0
LINE
  8
LIVELLO_1
 10
576.413581
 11
576.233834
 20
157.106197
 21
157.540367
  0
LINE
  8
LIVELLO_1
 10
576.233834
 11
576.17993
 20
157.540367
 21
157.950323
  0
LINE
  8
LIVELLO_1
 10
576.17993
 11
576.172592
 20
157.950323
 21
158.006232
  0
LINE
  8
LIVELLO_1
 10
576.172592
 11
576.233975
 20
158.006232
 21
158.472096
  0
LINE
  8
LIVELLO_1
 10
576.233975
 11
576.413864
 20
158.472096
 21
158.90621
  0
LINE
  8
LIVELLO_1
 10
576.413864
 11
576.699952
 20
158.90621
 21
159.278969
  0
LINE
  8
LIVELLO_1
 10
576.699952
 11
577.072796
 20
159.278969
 21
159.564973
  0
LINE
  8
LIVELLO_1
 10
577.072796
 11
577.506938
 20
159.564973
 21
159.744721
  0
LINE
  8
LIVELLO_1
 10
577.506938
 11
577.972831
 20
159.744721
 21
159.805991
  0
LINE
  8
LIVELLO_1
 10
577.972831
 11
578.438695
 20
159.805991
 21
159.744579
  0
LINE
  8
LIVELLO_1
 10
578.438695
 11
578.872781
 20
159.744579
 21
159.564691
  0
LINE
  8
LIVELLO_1
 10
578.872781
 11
579.24554
 20
159.564691
 21
159.278602
  0
LINE
  8
LIVELLO_1
 10
579.24554
 11
579.531544
 20
159.278602
 21
158.905759
  0
LINE
  8
LIVELLO_1
 10
579.531544
 11
579.711292
 20
158.905759
 21
158.471616
  0
LINE
  8
LIVELLO_1
 10
579.711292
 11
579.765055
 20
158.471616
 21
158.062817
  0
LINE
  8
LIVELLO_1
 10
579.765055
 11
579.772675
 20
158.062817
 21
158.005724
  0
LINE
  8
LIVELLO_1
 10
579.772675
 11
579.711179
 20
158.005724
 21
157.539859
  0
LINE
  8
LIVELLO_1
 10
579.711179
 11
579.53129
 20
157.539859
 21
157.105773
  0
LINE
  8
LIVELLO_1
 10
579.53129
 11
579.245173
 20
157.105773
 21
156.733014
  0
LINE
  8
LIVELLO_1
 10
579.245173
 11
578.87233
 20
156.733014
 21
156.44701
  0
LINE
  8
LIVELLO_1
 10
578.87233
 11
578.438187
 20
156.44701
 21
156.267263
  0
LINE
  8
LIVELLO_1
 10
578.438187
 11
578.07985
 20
156.267263
 21
156.220132
  0
LINE
  8
LIVELLO_1
 10
578.07985
 11
577.972323
 20
156.220132
 21
156.206021
  0
LINE
  8
LIVELLO_1
 10
577.972323
 11
577.917882
 20
156.206021
 21
156.213161
  0
LINE
  8
LIVELLO_1
 10
533.172477
 11
532.799727
 20
62.430604
 21
62.716721
  0
LINE
  8
LIVELLO_1
 10
532.799727
 11
532.513726
 20
62.716721
 21
63.089536
  0
LINE
  8
LIVELLO_1
 10
532.513726
 11
532.333967
 20
63.089536
 21
63.523679
  0
LINE
  8
LIVELLO_1
 10
532.333967
 11
532.272702
 20
63.523679
 21
63.989571
  0
LINE
  8
LIVELLO_1
 10
532.272702
 11
532.334102
 20
63.989571
 21
64.455435
  0
LINE
  8
LIVELLO_1
 10
532.334102
 11
532.513985
 20
64.455435
 21
64.889549
  0
LINE
  8
LIVELLO_1
 10
532.513985
 11
532.800091
 20
64.889549
 21
65.26228
  0
LINE
  8
LIVELLO_1
 10
532.800091
 11
533.172923
 20
65.26228
 21
65.548284
  0
LINE
  8
LIVELLO_1
 10
533.172923
 11
533.607077
 20
65.548284
 21
65.72806
  0
LINE
  8
LIVELLO_1
 10
533.607077
 11
534.072958
 20
65.72806
 21
65.78933
  0
LINE
  8
LIVELLO_1
 10
534.072958
 11
534.538825
 20
65.78933
 21
65.727919
  0
LINE
  8
LIVELLO_1
 10
534.538825
 11
534.972925
 20
65.727919
 21
65.54803
  0
LINE
  8
LIVELLO_1
 10
534.972925
 11
535.345676
 20
65.54803
 21
65.261913
  0
LINE
  8
LIVELLO_1
 10
535.345676
 11
535.631674
 20
65.261913
 21
64.889098
  0
LINE
  8
LIVELLO_1
 10
535.631674
 11
535.811433
 20
64.889098
 21
64.454955
  0
LINE
  8
LIVELLO_1
 10
535.811433
 11
535.865193
 20
64.454955
 21
64.046128
  0
LINE
  8
LIVELLO_1
 10
535.865193
 11
535.872701
 20
64.046128
 21
63.989063
  0
LINE
  8
LIVELLO_1
 10
535.872701
 11
535.867479
 20
63.989063
 21
63.949383
  0
LINE
  8
LIVELLO_1
 10
535.867479
 11
535.8113
 20
63.949383
 21
63.523199
  0
LINE
  8
LIVELLO_1
 10
535.8113
 11
535.631417
 20
63.523199
 21
63.089085
  0
LINE
  8
LIVELLO_1
 10
535.631417
 11
535.345312
 20
63.089085
 21
62.716354
  0
LINE
  8
LIVELLO_1
 10
535.345312
 11
534.972479
 20
62.716354
 21
62.43035
  0
LINE
  8
LIVELLO_1
 10
534.972479
 11
534.538326
 20
62.43035
 21
62.250574
  0
LINE
  8
LIVELLO_1
 10
534.538326
 11
534.072445
 20
62.250574
 21
62.189304
  0
LINE
  8
LIVELLO_1
 10
534.072445
 11
534.018009
 20
62.189304
 21
62.196641
  0
LINE
  8
LIVELLO_1
 10
534.018009
 11
533.606577
 20
62.196641
 21
62.250715
  0
LINE
  8
LIVELLO_1
 10
533.606577
 11
533.172477
 20
62.250715
 21
62.430604
  0
LINE
  8
LIVELLO_1
 10
578.90439
 11
578.470219
 20
62.43035
 21
62.250574
  0
LINE
  8
LIVELLO_1
 10
578.470219
 11
578.004355
 20
62.250574
 21
62.189304
  0
LINE
  8
LIVELLO_1
 10
578.004355
 11
577.949914
 20
62.189304
 21
62.196641
  0
LINE
  8
LIVELLO_1
 10
577.949914
 11
577.538491
 20
62.196641
 21
62.250715
  0
LINE
  8
LIVELLO_1
 10
577.538491
 11
577.104377
 20
62.250715
 21
62.430604
  0
LINE
  8
LIVELLO_1
 10
577.104377
 11
576.731618
 20
62.430604
 21
62.716721
  0
LINE
  8
LIVELLO_1
 10
576.731618
 11
576.445642
 20
62.716721
 21
63.089536
  0
LINE
  8
LIVELLO_1
 10
576.445642
 11
576.265866
 20
63.089536
 21
63.523679
  0
LINE
  8
LIVELLO_1
 10
576.265866
 11
576.209902
 20
63.523679
 21
63.949383
  0
LINE
  8
LIVELLO_1
 10
576.209902
 11
576.204539
 20
63.949383
 21
63.989571
  0
LINE
  8
LIVELLO_1
 10
576.204539
 11
576.266007
 20
63.989571
 21
64.455435
  0
LINE
  8
LIVELLO_1
 10
576.266007
 11
576.445896
 20
64.455435
 21
64.889549
  0
LINE
  8
LIVELLO_1
 10
576.445896
 11
576.731984
 20
64.889549
 21
65.26228
  0
LINE
  8
LIVELLO_1
 10
576.731984
 11
577.104828
 20
65.26228
 21
65.548284
  0
LINE
  8
LIVELLO_1
 10
577.104828
 11
577.538971
 20
65.548284
 21
65.72806
  0
LINE
  8
LIVELLO_1
 10
577.538971
 11
578.004863
 20
65.72806
 21
65.78933
  0
LINE
  8
LIVELLO_1
 10
578.004863
 11
578.07985
 20
65.78933
 21
65.779453
  0
LINE
  8
LIVELLO_1
 10
578.07985
 11
578.470727
 20
65.779453
 21
65.727919
  0
LINE
  8
LIVELLO_1
 10
578.470727
 11
578.904813
 20
65.727919
 21
65.54803
  0
LINE
  8
LIVELLO_1
 10
578.904813
 11
579.277572
 20
65.54803
 21
65.261913
  0
LINE
  8
LIVELLO_1
 10
579.277572
 11
579.563576
 20
65.261913
 21
64.889098
  0
LINE
  8
LIVELLO_1
 10
579.563576
 11
579.743324
 20
64.889098
 21
64.454955
  0
LINE
  8
LIVELLO_1
 10
579.743324
 11
579.797087
 20
64.454955
 21
64.046128
  0
LINE
  8
LIVELLO_1
 10
579.797087
 11
579.804707
 20
64.046128
 21
63.989063
  0
LINE
  8
LIVELLO_1
 10
579.804707
 11
579.743211
 20
63.989063
 21
63.523199
  0
LINE
  8
LIVELLO_1
 10
579.743211
 11
579.563322
 20
63.523199
 21
63.089085
  0
LINE
  8
LIVELLO_1
 10
579.563322
 11
579.277206
 20
63.089085
 21
62.716354
  0
LINE
  8
LIVELLO_1
 10
579.277206
 11
578.90439
 20
62.716354
 21
62.43035
  0
LINE
  8
LIVELLO_1
 10
78.179648
 11
78.567873
 20
178.499996
 21
178.551106
  0
LINE
  8
LIVELLO_1
 10
78.567873
 11
78.929625
 20
178.551106
 21
178.700966
  0
LINE
  8
LIVELLO_1
 10
78.929625
 11
79.240296
 20
178.700966
 21
178.939331
  0
LINE
  8
LIVELLO_1
 10
79.240296
 11
79.478661
 20
178.939331
 21
179.250001
  0
LINE
  8
LIVELLO_1
 10
79.478661
 11
79.628521
 20
179.250001
 21
179.611754
  0
LINE
  8
LIVELLO_1
 10
79.628521
 11
79.679631
 20
179.611754
 21
179.999979
  0
LINE
  8
LIVELLO_1
 10
79.679631
 11
79.628521
 20
179.999979
 21
180.388232
  0
LINE
  8
LIVELLO_1
 10
79.628521
 11
79.478661
 20
180.388232
 21
180.749984
  0
LINE
  8
LIVELLO_1
 10
79.478661
 11
79.240296
 20
180.749984
 21
181.060655
  0
LINE
  8
LIVELLO_1
 10
79.240296
 11
78.929625
 20
181.060655
 21
181.299019
  0
LINE
  8
LIVELLO_1
 10
78.929625
 11
78.567873
 20
181.299019
 21
181.448879
  0
LINE
  8
LIVELLO_1
 10
78.567873
 11
78.179648
 20
181.448879
 21
181.49999
  0
LINE
  8
LIVELLO_1
 10
78.179648
 11
77.791395
 20
181.49999
 21
181.448879
  0
LINE
  8
LIVELLO_1
 10
77.791395
 11
77.429643
 20
181.448879
 21
181.299019
  0
LINE
  8
LIVELLO_1
 10
77.429643
 11
77.118972
 20
181.299019
 21
181.060655
  0
LINE
  8
LIVELLO_1
 10
77.118972
 11
76.880607
 20
181.060655
 21
180.749984
  0
LINE
  8
LIVELLO_1
 10
76.880607
 11
76.730747
 20
180.749984
 21
180.388232
  0
LINE
  8
LIVELLO_1
 10
76.730747
 11
76.679637
 20
180.388232
 21
179.999979
  0
LINE
  8
LIVELLO_1
 10
76.679637
 11
76.730747
 20
179.999979
 21
179.611754
  0
LINE
  8
LIVELLO_1
 10
76.730747
 11
76.880607
 20
179.611754
 21
179.250001
  0
LINE
  8
LIVELLO_1
 10
76.880607
 11
77.118972
 20
179.250001
 21
178.939331
  0
LINE
  8
LIVELLO_1
 10
77.118972
 11
77.429643
 20
178.939331
 21
178.700966
  0
LINE
  8
LIVELLO_1
 10
77.429643
 11
77.791395
 20
178.700966
 21
178.551106
  0
LINE
  8
LIVELLO_1
 10
77.791395
 11
78.179648
 20
178.551106
 21
178.499996
  0
LINE
  8
LIVELLO_1
 10
93.179646
 11
93.179646
 20
262.00704
 21
239.007057
  0
LINE
  8
LIVELLO_1
 10
93.179646
 11
93.145413
 20
239.007057
 21
238.484946
  0
LINE
  8
LIVELLO_1
 10
93.145413
 11
93.043333
 20
238.484946
 21
237.971782
  0
LINE
  8
LIVELLO_1
 10
93.043333
 11
92.875157
 20
237.971782
 21
237.476312
  0
LINE
  8
LIVELLO_1
 10
92.875157
 11
92.643735
 20
237.476312
 21
237.007061
  0
LINE
  8
LIVELLO_1
 10
92.643735
 11
92.353046
 20
237.007061
 21
236.571988
  0
LINE
  8
LIVELLO_1
 10
92.353046
 11
92.008057
 20
236.571988
 21
236.178626
  0
LINE
  8
LIVELLO_1
 10
92.008057
 11
91.614668
 20
236.178626
 21
235.833638
  0
LINE
  8
LIVELLO_1
 10
91.614668
 11
91.179622
 20
235.833638
 21
235.542949
  0
LINE
  8
LIVELLO_1
 10
91.179622
 11
90.710371
 20
235.542949
 21
235.311527
  0
LINE
  8
LIVELLO_1
 10
90.710371
 11
90.214902
 20
235.311527
 21
235.143351
  0
LINE
  8
LIVELLO_1
 10
90.214902
 11
89.701737
 20
235.143351
 21
235.041271
  0
LINE
  8
LIVELLO_1
 10
89.701737
 11
89.179626
 20
235.041271
 21
235.007037
  0
LINE
  8
LIVELLO_1
 10
89.179626
 11
87.17963
 20
235.007037
 21
235.007037
  0
LINE
  8
LIVELLO_1
 10
87.17963
 11
86.657519
 20
235.007037
 21
235.041271
  0
LINE
  8
LIVELLO_1
 10
86.657519
 11
86.144354
 20
235.041271
 21
235.143351
  0
LINE
  8
LIVELLO_1
 10
86.144354
 11
85.648913
 20
235.143351
 21
235.311527
  0
LINE
  8
LIVELLO_1
 10
85.648913
 11
85.179634
 20
235.311527
 21
235.542949
  0
LINE
  8
LIVELLO_1
 10
85.179634
 11
84.744589
 20
235.542949
 21
235.833638
  0
LINE
  8
LIVELLO_1
 10
84.744589
 11
84.351199
 20
235.833638
 21
236.178626
  0
LINE
  8
LIVELLO_1
 10
84.351199
 11
84.006211
 20
236.178626
 21
236.571988
  0
LINE
  8
LIVELLO_1
 10
84.006211
 11
83.715522
 20
236.571988
 21
237.007061
  0
LINE
  8
LIVELLO_1
 10
83.715522
 11
83.484128
 20
237.007061
 21
237.476312
  0
LINE
  8
LIVELLO_1
 10
83.484128
 11
83.315923
 20
237.476312
 21
237.971782
  0
LINE
  8
LIVELLO_1
 10
83.315923
 11
83.213843
 20
237.971782
 21
238.484946
  0
LINE
  8
LIVELLO_1
 10
83.213843
 11
83.179638
 20
238.484946
 21
239.007057
  0
LINE
  8
LIVELLO_1
 10
83.179638
 11
83.179638
 20
239.007057
 21
262.00704
  0
LINE
  8
LIVELLO_1
 10
83.179638
 11
83.213843
 20
262.00704
 21
262.529151
  0
LINE
  8
LIVELLO_1
 10
83.213843
 11
83.315923
 20
262.529151
 21
263.042315
  0
LINE
  8
LIVELLO_1
 10
83.315923
 11
83.484128
 20
263.042315
 21
263.537785
  0
LINE
  8
LIVELLO_1
 10
83.484128
 11
83.715522
 20
263.537785
 21
264.007036
  0
LINE
  8
LIVELLO_1
 10
83.715522
 11
84.006211
 20
264.007036
 21
264.442081
  0
LINE
  8
LIVELLO_1
 10
84.006211
 11
84.351199
 20
264.442081
 21
264.835471
  0
LINE
  8
LIVELLO_1
 10
84.351199
 11
84.744589
 20
264.835471
 21
265.180459
  0
LINE
  8
LIVELLO_1
 10
84.744589
 11
85.179634
 20
265.180459
 21
265.471148
  0
LINE
  8
LIVELLO_1
 10
85.179634
 11
85.648913
 20
265.471148
 21
265.70257
  0
LINE
  8
LIVELLO_1
 10
85.648913
 11
86.144354
 20
265.70257
 21
265.870747
  0
LINE
  8
LIVELLO_1
 10
86.144354
 11
86.657519
 20
265.870747
 21
265.972826
  0
LINE
  8
LIVELLO_1
 10
86.657519
 11
87.17963
 20
265.972826
 21
266.007032
  0
LINE
  8
LIVELLO_1
 10
87.17963
 11
89.179626
 20
266.007032
 21
266.007032
  0
LINE
  8
LIVELLO_1
 10
89.179626
 11
89.701737
 20
266.007032
 21
265.972826
  0
LINE
  8
LIVELLO_1
 10
89.701737
 11
90.214902
 20
265.972826
 21
265.870747
  0
LINE
  8
LIVELLO_1
 10
90.214902
 11
90.710371
 20
265.870747
 21
265.70257
  0
LINE
  8
LIVELLO_1
 10
90.710371
 11
91.179622
 20
265.70257
 21
265.471148
  0
LINE
  8
LIVELLO_1
 10
91.179622
 11
91.614668
 20
265.471148
 21
265.180459
  0
LINE
  8
LIVELLO_1
 10
91.614668
 11
92.008057
 20
265.180459
 21
264.835471
  0
LINE
  8
LIVELLO_1
 10
92.008057
 11
92.353046
 20
264.835471
 21
264.442081
  0
LINE
  8
LIVELLO_1
 10
92.353046
 11
92.643735
 20
264.442081
 21
264.007036
  0
LINE
  8
LIVELLO_1
 10
92.643735
 11
92.875157
 20
264.007036
 21
263.537785
  0
LINE
  8
LIVELLO_1
 10
92.875157
 11
93.043333
 20
263.537785
 21
263.042315
  0
LINE
  8
LIVELLO_1
 10
93.043333
 11
93.145413
 20
263.042315
 21
262.529151
  0
LINE
  8
LIVELLO_1
 10
93.145413
 11
93.179646
 20
262.529151
 21
262.00704
  0
LINE
  8
LIVELLO_1
 10
96.679625
 11
96.730736
 20
250.000008
 21
249.611783
  0
LINE
  8
LIVELLO_1
 10
96.730736
 11
96.880596
 20
249.611783
 21
249.250003
  0
LINE
  8
LIVELLO_1
 10
96.880596
 11
97.118961
 20
249.250003
 21
248.939361
  0
LINE
  8
LIVELLO_1
 10
97.118961
 11
97.429631
 20
248.939361
 21
248.700967
  0
LINE
  8
LIVELLO_1
 10
97.429631
 11
97.791411
 20
248.700967
 21
248.551107
  0
LINE
  8
LIVELLO_1
 10
97.791411
 11
98.179636
 20
248.551107
 21
248.499997
  0
LINE
  8
LIVELLO_1
 10
98.179636
 11
98.567861
 20
248.499997
 21
248.551107
  0
LINE
  8
LIVELLO_1
 10
98.567861
 11
98.929642
 20
248.551107
 21
248.700967
  0
LINE
  8
LIVELLO_1
 10
98.929642
 11
99.240284
 20
248.700967
 21
248.939361
  0
LINE
  8
LIVELLO_1
 10
99.240284
 11
99.478677
 20
248.939361
 21
249.250003
  0
LINE
  8
LIVELLO_1
 10
99.478677
 11
99.628509
 20
249.250003
 21
249.611783
  0
LINE
  8
LIVELLO_1
 10
99.628509
 11
99.679647
 20
249.611783
 21
250.000008
  0
LINE
  8
LIVELLO_1
 10
99.679647
 11
99.628509
 20
250.000008
 21
250.388233
  0
LINE
  8
LIVELLO_1
 10
99.628509
 11
99.478677
 20
250.388233
 21
250.750014
  0
LINE
  8
LIVELLO_1
 10
99.478677
 11
99.240284
 20
250.750014
 21
251.060684
  0
LINE
  8
LIVELLO_1
 10
99.240284
 11
98.929642
 20
251.060684
 21
251.299049
  0
LINE
  8
LIVELLO_1
 10
98.929642
 11
98.567861
 20
251.299049
 21
251.448909
  0
LINE
  8
LIVELLO_1
 10
98.567861
 11
98.179636
 20
251.448909
 21
251.500019
  0
LINE
  8
LIVELLO_1
 10
98.179636
 11
97.791411
 20
251.500019
 21
251.448909
  0
LINE
  8
LIVELLO_1
 10
97.791411
 11
97.429631
 20
251.448909
 21
251.299049
  0
LINE
  8
LIVELLO_1
 10
97.429631
 11
97.118961
 20
251.299049
 21
251.060684
  0
LINE
  8
LIVELLO_1
 10
97.118961
 11
96.880596
 20
251.060684
 21
250.750014
  0
LINE
  8
LIVELLO_1
 10
96.880596
 11
96.730736
 20
250.750014
 21
250.388233
  0
LINE
  8
LIVELLO_1
 10
96.730736
 11
96.679625
 20
250.388233
 21
250.000008
  0
LINE
  8
LIVELLO_1
 10
86.144354
 11
85.648913
 20
195.863718
 21
195.695542
  0
LINE
  8
LIVELLO_1
 10
85.648913
 11
85.179634
 20
195.695542
 21
195.46412
  0
LINE
  8
LIVELLO_1
 10
85.179634
 11
84.744589
 20
195.46412
 21
195.173431
  0
LINE
  8
LIVELLO_1
 10
84.744589
 11
84.351199
 20
195.173431
 21
194.828442
  0
LINE
  8
LIVELLO_1
 10
84.351199
 11
84.006211
 20
194.828442
 21
194.435053
  0
LINE
  8
LIVELLO_1
 10
84.006211
 11
83.715522
 20
194.435053
 21
194.000007
  0
LINE
  8
LIVELLO_1
 10
83.715522
 11
83.484128
 20
194.000007
 21
193.530756
  0
LINE
  8
LIVELLO_1
 10
83.484128
 11
83.315923
 20
193.530756
 21
193.035287
  0
LINE
  8
LIVELLO_1
 10
83.315923
 11
83.213843
 20
193.035287
 21
192.522122
  0
LINE
  8
LIVELLO_1
 10
83.213843
 11
83.179638
 20
192.522122
 21
192.000011
  0
LINE
  8
LIVELLO_1
 10
83.179638
 11
83.179638
 20
192.000011
 21
169.000001
  0
LINE
  8
LIVELLO_1
 10
83.179638
 11
83.213843
 20
169.000001
 21
168.47789
  0
LINE
  8
LIVELLO_1
 10
83.213843
 11
83.315923
 20
168.47789
 21
167.964725
  0
LINE
  8
LIVELLO_1
 10
83.315923
 11
83.484128
 20
167.964725
 21
167.469256
  0
LINE
  8
LIVELLO_1
 10
83.484128
 11
83.715522
 20
167.469256
 21
167.000005
  0
LINE
  8
LIVELLO_1
 10
83.715522
 11
84.006211
 20
167.000005
 21
166.564959
  0
LINE
  8
LIVELLO_1
 10
84.006211
 11
84.351199
 20
166.564959
 21
166.17157
  0
LINE
  8
LIVELLO_1
 10
84.351199
 11
84.744589
 20
166.17157
 21
165.826581
  0
LINE
  8
LIVELLO_1
 10
84.744589
 11
85.179634
 20
165.826581
 21
165.535892
  0
LINE
  8
LIVELLO_1
 10
85.179634
 11
85.648913
 20
165.535892
 21
165.30447
  0
LINE
  8
LIVELLO_1
 10
85.648913
 11
86.144354
 20
165.30447
 21
165.136294
  0
LINE
  8
LIVELLO_1
 10
86.144354
 11
86.657519
 20
165.136294
 21
165.034214
  0
LINE
  8
LIVELLO_1
 10
86.657519
 11
87.17963
 20
165.034214
 21
164.999981
  0
LINE
  8
LIVELLO_1
 10
87.17963
 11
89.179626
 20
164.999981
 21
164.999981
  0
LINE
  8
LIVELLO_1
 10
89.179626
 11
89.701737
 20
164.999981
 21
165.034214
  0
LINE
  8
LIVELLO_1
 10
89.701737
 11
90.214902
 20
165.034214
 21
165.136294
  0
LINE
  8
LIVELLO_1
 10
90.214902
 11
90.710371
 20
165.136294
 21
165.30447
  0
LINE
  8
LIVELLO_1
 10
90.710371
 11
91.179622
 20
165.30447
 21
165.535892
  0
LINE
  8
LIVELLO_1
 10
91.179622
 11
91.614668
 20
165.535892
 21
165.826581
  0
LINE
  8
LIVELLO_1
 10
91.614668
 11
92.008057
 20
165.826581
 21
166.17157
  0
LINE
  8
LIVELLO_1
 10
92.008057
 11
92.353046
 20
166.17157
 21
166.564959
  0
LINE
  8
LIVELLO_1
 10
92.353046
 11
92.643735
 20
166.564959
 21
167.000005
  0
LINE
  8
LIVELLO_1
 10
92.643735
 11
92.875157
 20
167.000005
 21
167.469256
  0
LINE
  8
LIVELLO_1
 10
92.875157
 11
93.043333
 20
167.469256
 21
167.964725
  0
LINE
  8
LIVELLO_1
 10
93.043333
 11
93.145413
 20
167.964725
 21
168.47789
  0
LINE
  8
LIVELLO_1
 10
93.145413
 11
93.179646
 20
168.47789
 21
169.000001
  0
LINE
  8
LIVELLO_1
 10
93.179646
 11
93.179646
 20
169.000001
 21
192.000011
  0
LINE
  8
LIVELLO_1
 10
93.179646
 11
93.145413
 20
192.000011
 21
192.522122
  0
LINE
  8
LIVELLO_1
 10
93.145413
 11
93.043333
 20
192.522122
 21
193.035287
  0
LINE
  8
LIVELLO_1
 10
93.043333
 11
92.875157
 20
193.035287
 21
193.530756
  0
LINE
  8
LIVELLO_1
 10
92.875157
 11
92.643735
 20
193.530756
 21
194.000007
  0
LINE
  8
LIVELLO_1
 10
92.643735
 11
92.353046
 20
194.000007
 21
194.435053
  0
LINE
  8
LIVELLO_1
 10
92.353046
 11
92.008057
 20
194.435053
 21
194.828442
  0
LINE
  8
LIVELLO_1
 10
92.008057
 11
91.614668
 20
194.828442
 21
195.173431
  0
LINE
  8
LIVELLO_1
 10
91.614668
 11
91.179622
 20
195.173431
 21
195.46412
  0
LINE
  8
LIVELLO_1
 10
91.179622
 11
90.710371
 20
195.46412
 21
195.695542
  0
LINE
  8
LIVELLO_1
 10
90.710371
 11
90.214902
 20
195.695542
 21
195.863718
  0
LINE
  8
LIVELLO_1
 10
90.214902
 11
89.701737
 20
195.863718
 21
195.965798
  0
LINE
  8
LIVELLO_1
 10
89.701737
 11
89.179626
 20
195.965798
 21
196.000031
  0
LINE
  8
LIVELLO_1
 10
89.179626
 11
87.17963
 20
196.000031
 21
196.000031
  0
LINE
  8
LIVELLO_1
 10
87.17963
 11
86.657519
 20
196.000031
 21
195.965798
  0
LINE
  8
LIVELLO_1
 10
86.657519
 11
86.144354
 20
195.965798
 21
195.863718
  0
LINE
  8
LIVELLO_1
 10
96.880596
 11
96.730736
 20
180.749984
 21
180.388232
  0
LINE
  8
LIVELLO_1
 10
96.730736
 11
96.679625
 20
180.388232
 21
179.999979
  0
LINE
  8
LIVELLO_1
 10
96.679625
 11
96.730736
 20
179.999979
 21
179.611754
  0
LINE
  8
LIVELLO_1
 10
96.730736
 11
96.880596
 20
179.611754
 21
179.250001
  0
LINE
  8
LIVELLO_1
 10
96.880596
 11
97.118961
 20
179.250001
 21
178.939331
  0
LINE
  8
LIVELLO_1
 10
97.118961
 11
97.429631
 20
178.939331
 21
178.700966
  0
LINE
  8
LIVELLO_1
 10
97.429631
 11
97.791411
 20
178.700966
 21
178.551106
  0
LINE
  8
LIVELLO_1
 10
97.791411
 11
98.179636
 20
178.551106
 21
178.499996
  0
LINE
  8
LIVELLO_1
 10
98.179636
 11
98.567861
 20
178.499996
 21
178.551106
  0
LINE
  8
LIVELLO_1
 10
98.567861
 11
98.929642
 20
178.551106
 21
178.700966
  0
LINE
  8
LIVELLO_1
 10
98.929642
 11
99.240284
 20
178.700966
 21
178.939331
  0
LINE
  8
LIVELLO_1
 10
99.240284
 11
99.478677
 20
178.939331
 21
179.250001
  0
LINE
  8
LIVELLO_1
 10
99.478677
 11
99.628509
 20
179.250001
 21
179.611754
  0
LINE
  8
LIVELLO_1
 10
99.628509
 11
99.679647
 20
179.611754
 21
179.999979
  0
LINE
  8
LIVELLO_1
 10
99.679647
 11
99.628509
 20
179.999979
 21
180.388232
  0
LINE
  8
LIVELLO_1
 10
99.628509
 11
99.478677
 20
180.388232
 21
180.749984
  0
LINE
  8
LIVELLO_1
 10
99.478677
 11
99.240284
 20
180.749984
 21
181.060655
  0
LINE
  8
LIVELLO_1
 10
99.240284
 11
98.929642
 20
181.060655
 21
181.299019
  0
LINE
  8
LIVELLO_1
 10
98.929642
 11
98.567861
 20
181.299019
 21
181.448879
  0
LINE
  8
LIVELLO_1
 10
98.567861
 11
98.179636
 20
181.448879
 21
181.49999
  0
LINE
  8
LIVELLO_1
 10
98.179636
 11
97.791411
 20
181.49999
 21
181.448879
  0
LINE
  8
LIVELLO_1
 10
97.791411
 11
97.429631
 20
181.448879
 21
181.299019
  0
LINE
  8
LIVELLO_1
 10
97.429631
 11
97.118961
 20
181.299019
 21
181.060655
  0
LINE
  8
LIVELLO_1
 10
97.118961
 11
96.880596
 20
181.060655
 21
180.749984
  0
LINE
  8
LIVELLO_1
 10
246.880586
 11
247.118963
 20
214.250016
 21
213.939346
  0
LINE
  8
LIVELLO_1
 10
247.118963
 11
247.429624
 20
213.939346
 21
213.700981
  0
LINE
  8
LIVELLO_1
 10
247.429624
 11
247.791394
 20
213.700981
 21
213.551121
  0
LINE
  8
LIVELLO_1
 10
247.791394
 11
248.179624
 20
213.551121
 21
213.500011
  0
LINE
  8
LIVELLO_1
 10
248.179624
 11
248.567852
 20
213.500011
 21
213.551121
  0
LINE
  8
LIVELLO_1
 10
248.567852
 11
248.929624
 20
213.551121
 21
213.700981
  0
LINE
  8
LIVELLO_1
 10
248.929624
 11
249.240283
 20
213.700981
 21
213.939346
  0
LINE
  8
LIVELLO_1
 10
249.240283
 11
249.478662
 20
213.939346
 21
214.250016
  0
LINE
  8
LIVELLO_1
 10
249.478662
 11
249.628511
 20
214.250016
 21
214.611797
  0
LINE
  8
LIVELLO_1
 10
249.628511
 11
249.679624
 20
214.611797
 21
215.000022
  0
LINE
  8
LIVELLO_1
 10
249.679624
 11
249.628511
 20
215.000022
 21
215.388247
  0
LINE
  8
LIVELLO_1
 10
249.628511
 11
249.478662
 20
215.388247
 21
215.749999
  0
LINE
  8
LIVELLO_1
 10
249.478662
 11
249.240283
 20
215.749999
 21
216.060669
  0
LINE
  8
LIVELLO_1
 10
249.240283
 11
248.929624
 20
216.060669
 21
216.299062
  0
LINE
  8
LIVELLO_1
 10
248.929624
 11
248.567852
 20
216.299062
 21
216.448894
  0
LINE
  8
LIVELLO_1
 10
248.567852
 11
248.179624
 20
216.448894
 21
216.500005
  0
LINE
  8
LIVELLO_1
 10
248.179624
 11
247.791394
 20
216.500005
 21
216.448894
  0
LINE
  8
LIVELLO_1
 10
247.791394
 11
247.429624
 20
216.448894
 21
216.299062
  0
LINE
  8
LIVELLO_1
 10
247.429624
 11
247.118963
 20
216.299062
 21
216.060669
  0
LINE
  8
LIVELLO_1
 10
247.118963
 11
246.880586
 20
216.060669
 21
215.749999
  0
LINE
  8
LIVELLO_1
 10
246.880586
 11
246.730735
 20
215.749999
 21
215.388247
  0
LINE
  8
LIVELLO_1
 10
246.730735
 11
246.679624
 20
215.388247
 21
215.000022
  0
LINE
  8
LIVELLO_1
 10
246.679624
 11
246.730735
 20
215.000022
 21
214.611797
  0
LINE
  8
LIVELLO_1
 10
246.730735
 11
246.880586
 20
214.611797
 21
214.250016
  0
LINE
  8
LIVELLO_1
 10
253.315919
 11
253.484104
 20
201.82761
 21
201.332169
  0
LINE
  8
LIVELLO_1
 10
253.484104
 11
253.71552
 20
201.332169
 21
200.86289
  0
LINE
  8
LIVELLO_1
 10
253.71552
 11
254.006209
 20
200.86289
 21
200.427844
  0
LINE
  8
LIVELLO_1
 10
254.006209
 11
254.351195
 20
200.427844
 21
200.034455
  0
LINE
  8
LIVELLO_1
 10
254.351195
 11
254.744576
 20
200.034455
 21
199.689494
  0
LINE
  8
LIVELLO_1
 10
254.744576
 11
255.179621
 20
199.689494
 21
199.398805
  0
LINE
  8
LIVELLO_1
 10
255.179621
 11
255.648889
 20
199.398805
 21
199.167383
  0
LINE
  8
LIVELLO_1
 10
255.648889
 11
256.144347
 20
199.167383
 21
198.999179
  0
LINE
  8
LIVELLO_1
 10
256.144347
 11
256.657518
 20
198.999179
 21
198.897127
  0
LINE
  8
LIVELLO_1
 10
256.657518
 11
257.179623
 20
198.897127
 21
198.862894
  0
LINE
  8
LIVELLO_1
 10
257.179623
 11
259.179622
 20
198.862894
 21
198.862894
  0
LINE
  8
LIVELLO_1
 10
259.179622
 11
259.701727
 20
198.862894
 21
198.897127
  0
LINE
  8
LIVELLO_1
 10
259.701727
 11
260.214898
 20
198.897127
 21
198.999179
  0
LINE
  8
LIVELLO_1
 10
260.214898
 11
260.710356
 20
198.999179
 21
199.167383
  0
LINE
  8
LIVELLO_1
 10
260.710356
 11
261.179624
 20
199.167383
 21
199.398805
  0
LINE
  8
LIVELLO_1
 10
261.179624
 11
261.614669
 20
199.398805
 21
199.689494
  0
LINE
  8
LIVELLO_1
 10
261.614669
 11
262.00805
 20
199.689494
 21
200.034455
  0
LINE
  8
LIVELLO_1
 10
262.00805
 11
262.353036
 20
200.034455
 21
200.427844
  0
LINE
  8
LIVELLO_1
 10
262.353036
 11
262.643725
 20
200.427844
 21
200.86289
  0
LINE
  8
LIVELLO_1
 10
262.643725
 11
262.875141
 20
200.86289
 21
201.332169
  0
LINE
  8
LIVELLO_1
 10
262.875141
 11
263.043326
 20
201.332169
 21
201.82761
  0
LINE
  8
LIVELLO_1
 10
263.043326
 11
263.145403
 20
201.82761
 21
202.340775
  0
LINE
  8
LIVELLO_1
 10
263.145403
 11
263.179622
 20
202.340775
 21
202.862886
  0
LINE
  8
LIVELLO_1
 10
263.179622
 11
263.179622
 20
202.862886
 21
225.862896
  0
LINE
  8
LIVELLO_1
 10
263.179622
 11
263.145403
 20
225.862896
 21
226.384979
  0
LINE
  8
LIVELLO_1
 10
263.145403
 11
263.043326
 20
226.384979
 21
226.898172
  0
LINE
  8
LIVELLO_1
 10
263.043326
 11
262.875141
 20
226.898172
 21
227.393613
  0
LINE
  8
LIVELLO_1
 10
262.875141
 11
262.643725
 20
227.393613
 21
227.862892
  0
LINE
  8
LIVELLO_1
 10
262.643725
 11
262.353036
 20
227.862892
 21
228.297938
  0
LINE
  8
LIVELLO_1
 10
262.353036
 11
262.00805
 20
228.297938
 21
228.691327
  0
LINE
  8
LIVELLO_1
 10
262.00805
 11
261.614669
 20
228.691327
 21
229.036287
  0
LINE
  8
LIVELLO_1
 10
261.614669
 11
261.179624
 20
229.036287
 21
229.326976
  0
LINE
  8
LIVELLO_1
 10
261.179624
 11
260.710356
 20
229.326976
 21
229.558399
  0
LINE
  8
LIVELLO_1
 10
260.710356
 11
260.214898
 20
229.558399
 21
229.726603
  0
LINE
  8
LIVELLO_1
 10
260.214898
 11
259.701727
 20
229.726603
 21
229.828655
  0
LINE
  8
LIVELLO_1
 10
259.701727
 11
259.179622
 20
229.828655
 21
229.862888
  0
LINE
  8
LIVELLO_1
 10
259.179622
 11
257.179623
 20
229.862888
 21
229.862888
  0
LINE
  8
LIVELLO_1
 10
257.179623
 11
256.657518
 20
229.862888
 21
229.828655
  0
LINE
  8
LIVELLO_1
 10
256.657518
 11
256.144347
 20
229.828655
 21
229.726603
  0
LINE
  8
LIVELLO_1
 10
256.144347
 11
255.648889
 20
229.726603
 21
229.558399
  0
LINE
  8
LIVELLO_1
 10
255.648889
 11
255.179621
 20
229.558399
 21
229.326976
  0
LINE
  8
LIVELLO_1
 10
255.179621
 11
254.744576
 20
229.326976
 21
229.036287
  0
LINE
  8
LIVELLO_1
 10
254.744576
 11
254.351195
 20
229.036287
 21
228.691327
  0
LINE
  8
LIVELLO_1
 10
254.351195
 11
254.006209
 20
228.691327
 21
228.297938
  0
LINE
  8
LIVELLO_1
 10
254.006209
 11
253.71552
 20
228.297938
 21
227.862892
  0
LINE
  8
LIVELLO_1
 10
253.71552
 11
253.484104
 20
227.862892
 21
227.393613
  0
LINE
  8
LIVELLO_1
 10
253.484104
 11
253.315919
 20
227.393613
 21
226.898172
  0
LINE
  8
LIVELLO_1
 10
253.315919
 11
253.213845
 20
226.898172
 21
226.384979
  0
LINE
  8
LIVELLO_1
 10
253.213845
 11
253.179623
 20
226.384979
 21
225.862896
  0
LINE
  8
LIVELLO_1
 10
253.179623
 11
253.179623
 20
225.862896
 21
202.862886
  0
LINE
  8
LIVELLO_1
 10
253.179623
 11
253.213845
 20
202.862886
 21
202.340775
  0
LINE
  8
LIVELLO_1
 10
253.213845
 11
253.315919
 20
202.340775
 21
201.82761
  0
LINE
  8
LIVELLO_1
 10
79.478661
 11
79.240296
 20
250.750014
 21
251.060684
  0
LINE
  8
LIVELLO_1
 10
79.240296
 11
78.929625
 20
251.060684
 21
251.299049
  0
LINE
  8
LIVELLO_1
 10
78.929625
 11
78.567873
 20
251.299049
 21
251.448909
  0
LINE
  8
LIVELLO_1
 10
78.567873
 11
78.179648
 20
251.448909
 21
251.500019
  0
LINE
  8
LIVELLO_1
 10
78.179648
 11
77.791395
 20
251.500019
 21
251.448909
  0
LINE
  8
LIVELLO_1
 10
77.791395
 11
77.429643
 20
251.448909
 21
251.299049
  0
LINE
  8
LIVELLO_1
 10
77.429643
 11
77.118972
 20
251.299049
 21
251.060684
  0
LINE
  8
LIVELLO_1
 10
77.118972
 11
76.880607
 20
251.060684
 21
250.750014
  0
LINE
  8
LIVELLO_1
 10
76.880607
 11
76.730747
 20
250.750014
 21
250.388233
  0
LINE
  8
LIVELLO_1
 10
76.730747
 11
76.679637
 20
250.388233
 21
250.000008
  0
LINE
  8
LIVELLO_1
 10
76.679637
 11
76.730747
 20
250.000008
 21
249.611783
  0
LINE
  8
LIVELLO_1
 10
76.730747
 11
76.880607
 20
249.611783
 21
249.250003
  0
LINE
  8
LIVELLO_1
 10
76.880607
 11
77.118972
 20
249.250003
 21
248.939361
  0
LINE
  8
LIVELLO_1
 10
77.118972
 11
77.429643
 20
248.939361
 21
248.700967
  0
LINE
  8
LIVELLO_1
 10
77.429643
 11
77.791395
 20
248.700967
 21
248.551107
  0
LINE
  8
LIVELLO_1
 10
77.791395
 11
78.179648
 20
248.551107
 21
248.499997
  0
LINE
  8
LIVELLO_1
 10
78.179648
 11
78.567873
 20
248.499997
 21
248.551107
  0
LINE
  8
LIVELLO_1
 10
78.567873
 11
78.929625
 20
248.551107
 21
248.700967
  0
LINE
  8
LIVELLO_1
 10
78.929625
 11
79.240296
 20
248.700967
 21
248.939361
  0
LINE
  8
LIVELLO_1
 10
79.240296
 11
79.478661
 20
248.939361
 21
249.250003
  0
LINE
  8
LIVELLO_1
 10
79.478661
 11
79.628521
 20
249.250003
 21
249.611783
  0
LINE
  8
LIVELLO_1
 10
79.628521
 11
79.679631
 20
249.611783
 21
250.000008
  0
LINE
  8
LIVELLO_1
 10
79.679631
 11
79.628521
 20
250.000008
 21
250.388233
  0
LINE
  8
LIVELLO_1
 10
79.628521
 11
79.478661
 20
250.388233
 21
250.750014
  0
LINE
  8
LIVELLO_1
 10
266.880583
 11
267.118962
 20
214.250016
 21
213.939346
  0
LINE
  8
LIVELLO_1
 10
267.118962
 11
267.429621
 20
213.939346
 21
213.700981
  0
LINE
  8
LIVELLO_1
 10
267.429621
 11
267.791393
 20
213.700981
 21
213.551121
  0
LINE
  8
LIVELLO_1
 10
267.791393
 11
268.179621
 20
213.551121
 21
213.500011
  0
LINE
  8
LIVELLO_1
 10
268.179621
 11
268.567851
 20
213.500011
 21
213.551121
  0
LINE
  8
LIVELLO_1
 10
268.567851
 11
268.929621
 20
213.551121
 21
213.700981
  0
LINE
  8
LIVELLO_1
 10
268.929621
 11
269.240283
 20
213.700981
 21
213.939346
  0
LINE
  8
LIVELLO_1
 10
269.240283
 11
269.478659
 20
213.939346
 21
214.250016
  0
LINE
  8
LIVELLO_1
 10
269.478659
 11
269.5312
 20
214.250016
 21
214.376847
  0
LINE
  8
LIVELLO_1
 10
269.5312
 11
269.62851
 20
214.376847
 21
214.611797
  0
LINE
  8
LIVELLO_1
 10
269.62851
 11
269.679621
 20
214.611797
 21
215.000022
  0
LINE
  8
LIVELLO_1
 10
269.679621
 11
269.62851
 20
215.000022
 21
215.388247
  0
LINE
  8
LIVELLO_1
 10
269.62851
 11
269.544129
 20
215.388247
 21
215.591955
  0
LINE
  8
LIVELLO_1
 10
269.544129
 11
269.478659
 20
215.591955
 21
215.749999
  0
LINE
  8
LIVELLO_1
 10
269.478659
 11
269.240283
 20
215.749999
 21
216.060669
  0
LINE
  8
LIVELLO_1
 10
269.240283
 11
268.929621
 20
216.060669
 21
216.299062
  0
LINE
  8
LIVELLO_1
 10
268.929621
 11
268.567851
 20
216.299062
 21
216.448894
  0
LINE
  8
LIVELLO_1
 10
268.567851
 11
268.179621
 20
216.448894
 21
216.500005
  0
LINE
  8
LIVELLO_1
 10
268.179621
 11
267.791393
 20
216.500005
 21
216.448894
  0
LINE
  8
LIVELLO_1
 10
267.791393
 11
267.429621
 20
216.448894
 21
216.299062
  0
LINE
  8
LIVELLO_1
 10
267.429621
 11
267.118962
 20
216.299062
 21
216.060669
  0
LINE
  8
LIVELLO_1
 10
267.118962
 11
266.880583
 20
216.060669
 21
215.749999
  0
LINE
  8
LIVELLO_1
 10
266.880583
 11
266.730734
 20
215.749999
 21
215.388247
  0
LINE
  8
LIVELLO_1
 10
266.730734
 11
266.679621
 20
215.388247
 21
215.000022
  0
LINE
  8
LIVELLO_1
 10
266.679621
 11
266.730734
 20
215.000022
 21
214.611797
  0
LINE
  8
LIVELLO_1
 10
266.730734
 11
266.880583
 20
214.611797
 21
214.250016
  0
LINE
  8
LIVELLO_1
 10
172.751019
 11
173.17963
 20
233.247466
 21
233.191107
  0
LINE
  8
LIVELLO_1
 10
173.17963
 11
173.216903
 20
233.191107
 21
233.186309
  0
LINE
  8
LIVELLO_1
 10
173.216903
 11
173.682768
 20
233.186309
 21
233.247607
  0
LINE
  8
LIVELLO_1
 10
173.682768
 11
174.116868
 20
233.247607
 21
233.427496
  0
LINE
  8
LIVELLO_1
 10
174.116868
 11
174.489618
 20
233.427496
 21
233.713613
  0
LINE
  8
LIVELLO_1
 10
174.489618
 11
174.77562
 20
233.713613
 21
234.086428
  0
LINE
  8
LIVELLO_1
 10
174.77562
 11
174.955378
 20
234.086428
 21
234.520599
  0
LINE
  8
LIVELLO_1
 10
174.955378
 11
175.016646
 20
234.520599
 21
234.986463
  0
LINE
  8
LIVELLO_1
 10
175.016646
 11
174.955245
 20
234.986463
 21
235.452327
  0
LINE
  8
LIVELLO_1
 10
174.955245
 11
174.775363
 20
235.452327
 21
235.886442
  0
LINE
  8
LIVELLO_1
 10
174.775363
 11
174.489254
 20
235.886442
 21
236.259173
  0
LINE
  8
LIVELLO_1
 10
174.489254
 11
174.116422
 20
236.259173
 21
236.545177
  0
LINE
  8
LIVELLO_1
 10
174.116422
 11
173.682271
 20
236.545177
 21
236.724952
  0
LINE
  8
LIVELLO_1
 10
173.682271
 11
173.216387
 20
236.724952
 21
236.786223
  0
LINE
  8
LIVELLO_1
 10
173.216387
 11
173.17963
 20
236.786223
 21
236.781425
  0
LINE
  8
LIVELLO_1
 10
173.17963
 11
172.750523
 20
236.781425
 21
236.724811
  0
LINE
  8
LIVELLO_1
 10
172.750523
 11
172.316423
 20
236.724811
 21
236.544923
  0
LINE
  8
LIVELLO_1
 10
172.316423
 11
171.943672
 20
236.544923
 21
236.258834
  0
LINE
  8
LIVELLO_1
 10
171.943672
 11
171.657671
 20
236.258834
 21
235.88599
  0
LINE
  8
LIVELLO_1
 10
171.657671
 11
171.477912
 20
235.88599
 21
235.451848
  0
LINE
  8
LIVELLO_1
 10
171.477912
 11
171.416644
 20
235.451848
 21
234.985955
  0
LINE
  8
LIVELLO_1
 10
171.416644
 11
171.478045
 20
234.985955
 21
234.520091
  0
LINE
  8
LIVELLO_1
 10
171.478045
 11
171.657928
 20
234.520091
 21
234.085977
  0
LINE
  8
LIVELLO_1
 10
171.657928
 11
171.944036
 20
234.085977
 21
233.713246
  0
LINE
  8
LIVELLO_1
 10
171.944036
 11
172.316868
 20
233.713246
 21
233.427242
  0
LINE
  8
LIVELLO_1
 10
172.316868
 11
172.751019
 20
233.427242
 21
233.247466
  0
LINE
  8
LIVELLO_1
 10
66.930581
 11
67.110413
 20
319.044518
 21
318.610375
  0
LINE
  8
LIVELLO_1
 10
67.110413
 11
67.396473
 20
318.610375
 21
318.237588
  0
LINE
  8
LIVELLO_1
 10
67.396473
 11
67.769261
 20
318.237588
 21
317.951527
  0
LINE
  8
LIVELLO_1
 10
67.769261
 11
68.203375
 20
317.951527
 21
317.771724
  0
LINE
  8
LIVELLO_1
 10
68.203375
 11
68.669267
 20
317.771724
 21
317.710397
  0
LINE
  8
LIVELLO_1
 10
68.669267
 11
69.135131
 20
317.710397
 21
317.771724
  0
LINE
  8
LIVELLO_1
 10
69.135131
 11
69.569246
 20
317.771724
 21
317.951527
  0
LINE
  8
LIVELLO_1
 10
69.569246
 11
69.942033
 20
317.951527
 21
318.237588
  0
LINE
  8
LIVELLO_1
 10
69.942033
 11
70.228093
 20
318.237588
 21
318.610375
  0
LINE
  8
LIVELLO_1
 10
70.228093
 11
70.407925
 20
318.610375
 21
319.044518
  0
LINE
  8
LIVELLO_1
 10
70.407925
 11
70.469252
 20
319.044518
 21
319.510382
  0
LINE
  8
LIVELLO_1
 10
70.469252
 11
70.407925
 20
319.510382
 21
319.976274
  0
LINE
  8
LIVELLO_1
 10
70.407925
 11
70.228093
 20
319.976274
 21
320.410389
  0
LINE
  8
LIVELLO_1
 10
70.228093
 11
69.942033
 20
320.410389
 21
320.783176
  0
LINE
  8
LIVELLO_1
 10
69.942033
 11
69.569246
 20
320.783176
 21
321.069236
  0
LINE
  8
LIVELLO_1
 10
69.569246
 11
69.135131
 20
321.069236
 21
321.24904
  0
LINE
  8
LIVELLO_1
 10
69.135131
 11
68.669267
 20
321.24904
 21
321.310395
  0
LINE
  8
LIVELLO_1
 10
68.669267
 11
68.249998
 20
321.310395
 21
321.25
  0
LINE
  8
LIVELLO_1
 10
68.249998
 11
68.203375
 20
321.25
 21
321.25
  0
LINE
  8
LIVELLO_1
 10
68.203375
 11
67.769261
 20
321.25
 21
321.069236
  0
LINE
  8
LIVELLO_1
 10
67.769261
 11
67.396473
 20
321.069236
 21
320.783176
  0
LINE
  8
LIVELLO_1
 10
67.396473
 11
67.110413
 20
320.783176
 21
320.410389
  0
LINE
  8
LIVELLO_1
 10
67.110413
 11
67.02775
 20
320.410389
 21
320.210829
  0
LINE
  8
LIVELLO_1
 10
67.02775
 11
66.930581
 20
320.210829
 21
319.976274
  0
LINE
  8
LIVELLO_1
 10
66.930581
 11
66.869254
 20
319.976274
 21
319.510382
  0
LINE
  8
LIVELLO_1
 10
66.869254
 11
66.930581
 20
319.510382
 21
319.044518
  0
LINE
  8
LIVELLO_1
 10
278.590003
 11
278.155877
 20
321.069236
 21
321.24904
  0
LINE
  8
LIVELLO_1
 10
278.155877
 11
277.690002
 20
321.24904
 21
321.310395
  0
LINE
  8
LIVELLO_1
 10
277.690002
 11
277.224129
 20
321.310395
 21
321.24904
  0
LINE
  8
LIVELLO_1
 10
277.224129
 11
276.790004
 20
321.24904
 21
321.069236
  0
LINE
  8
LIVELLO_1
 10
276.790004
 11
276.417211
 20
321.069236
 21
320.783176
  0
LINE
  8
LIVELLO_1
 10
276.417211
 11
276.131159
 20
320.783176
 21
320.410389
  0
LINE
  8
LIVELLO_1
 10
276.131159
 11
275.951338
 20
320.410389
 21
319.976274
  0
LINE
  8
LIVELLO_1
 10
275.951338
 11
275.890003
 20
319.976274
 21
319.510382
  0
LINE
  8
LIVELLO_1
 10
275.890003
 11
275.951338
 20
319.510382
 21
319.044518
  0
LINE
  8
LIVELLO_1
 10
275.951338
 11
276.131159
 20
319.044518
 21
318.610375
  0
LINE
  8
LIVELLO_1
 10
276.131159
 11
276.417211
 20
318.610375
 21
318.237588
  0
LINE
  8
LIVELLO_1
 10
276.417211
 11
276.790004
 20
318.237588
 21
317.951527
  0
LINE
  8
LIVELLO_1
 10
276.790004
 11
277.224129
 20
317.951527
 21
317.771724
  0
LINE
  8
LIVELLO_1
 10
277.224129
 11
277.690002
 20
317.771724
 21
317.710397
  0
LINE
  8
LIVELLO_1
 10
277.690002
 11
278.155877
 20
317.710397
 21
317.771724
  0
LINE
  8
LIVELLO_1
 10
278.155877
 11
278.590003
 20
317.771724
 21
317.951527
  0
LINE
  8
LIVELLO_1
 10
278.590003
 11
278.962796
 20
317.951527
 21
318.237588
  0
LINE
  8
LIVELLO_1
 10
278.962796
 11
279.248848
 20
318.237588
 21
318.610375
  0
LINE
  8
LIVELLO_1
 10
279.248848
 11
279.428668
 20
318.610375
 21
319.044518
  0
LINE
  8
LIVELLO_1
 10
279.428668
 11
279.490004
 20
319.044518
 21
319.510382
  0
LINE
  8
LIVELLO_1
 10
279.490004
 11
279.428668
 20
319.510382
 21
319.976274
  0
LINE
  8
LIVELLO_1
 10
279.428668
 11
279.248848
 20
319.976274
 21
320.410389
  0
LINE
  8
LIVELLO_1
 10
279.248848
 11
278.962796
 20
320.410389
 21
320.783176
  0
LINE
  8
LIVELLO_1
 10
278.962796
 11
278.590003
 20
320.783176
 21
321.069236
  0
LINE
  8
LIVELLO_1
 10
276.131159
 11
276.417211
 20
109.589627
 21
109.216811
  0
LINE
  8
LIVELLO_1
 10
276.417211
 11
276.790004
 20
109.216811
 21
108.930779
  0
LINE
  8
LIVELLO_1
 10
276.790004
 11
277.224129
 20
108.930779
 21
108.750947
  0
LINE
  8
LIVELLO_1
 10
277.224129
 11
277.690002
 20
108.750947
 21
108.68962
  0
LINE
  8
LIVELLO_1
 10
277.690002
 11
278.155877
 20
108.68962
 21
108.750947
  0
LINE
  8
LIVELLO_1
 10
278.155877
 11
278.590003
 20
108.750947
 21
108.930779
  0
LINE
  8
LIVELLO_1
 10
278.590003
 11
278.962796
 20
108.930779
 21
109.216811
  0
LINE
  8
LIVELLO_1
 10
278.962796
 11
279.248848
 20
109.216811
 21
109.589627
  0
LINE
  8
LIVELLO_1
 10
279.248848
 11
279.428668
 20
109.589627
 21
110.023741
  0
LINE
  8
LIVELLO_1
 10
279.428668
 11
279.490004
 20
110.023741
 21
110.489605
  0
LINE
  8
LIVELLO_1
 10
279.490004
 11
279.428668
 20
110.489605
 21
110.955497
  0
LINE
  8
LIVELLO_1
 10
279.428668
 11
279.248848
 20
110.955497
 21
111.389612
  0
LINE
  8
LIVELLO_1
 10
279.248848
 11
278.962796
 20
111.389612
 21
111.762399
  0
LINE
  8
LIVELLO_1
 10
278.962796
 11
278.590003
 20
111.762399
 21
112.048459
  0
LINE
  8
LIVELLO_1
 10
278.590003
 11
278.155877
 20
112.048459
 21
112.228291
  0
LINE
  8
LIVELLO_1
 10
278.155877
 11
277.690002
 20
112.228291
 21
112.289618
  0
LINE
  8
LIVELLO_1
 10
277.690002
 11
277.224129
 20
112.289618
 21
112.228291
  0
LINE
  8
LIVELLO_1
 10
277.224129
 11
276.790004
 20
112.228291
 21
112.048459
  0
LINE
  8
LIVELLO_1
 10
276.790004
 11
276.417211
 20
112.048459
 21
111.762399
  0
LINE
  8
LIVELLO_1
 10
276.417211
 11
276.131159
 20
111.762399
 21
111.389612
  0
LINE
  8
LIVELLO_1
 10
276.131159
 11
275.951338
 20
111.389612
 21
110.955497
  0
LINE
  8
LIVELLO_1
 10
275.951338
 11
275.890003
 20
110.955497
 21
110.489605
  0
LINE
  8
LIVELLO_1
 10
275.890003
 11
275.951338
 20
110.489605
 21
110.023741
  0
LINE
  8
LIVELLO_1
 10
275.951338
 11
276.131159
 20
110.023741
 21
109.589627
  0
LINE
  8
LIVELLO_1
 10
67.410782
 11
67.120573
 20
111.797338
 21
111.427768
  0
LINE
  8
LIVELLO_1
 10
67.120573
 11
66.935915
 20
111.427768
 21
110.995658
  0
LINE
  8
LIVELLO_1
 10
66.935915
 11
66.869367
 20
110.995658
 21
110.530499
  0
LINE
  8
LIVELLO_1
 10
66.869367
 11
66.925501
 20
110.530499
 21
110.063986
  0
LINE
  8
LIVELLO_1
 10
66.925501
 11
67.10045
 20
110.063986
 21
109.627868
  0
LINE
  8
LIVELLO_1
 10
67.10045
 11
67.382306
 20
109.627868
 21
109.251891
  0
LINE
  8
LIVELLO_1
 10
67.382306
 11
67.751876
 20
109.251891
 21
108.961682
  0
LINE
  8
LIVELLO_1
 10
67.751876
 11
68.183958
 20
108.961682
 21
108.777024
  0
LINE
  8
LIVELLO_1
 10
68.183958
 11
68.649117
 20
108.777024
 21
108.710504
  0
LINE
  8
LIVELLO_1
 10
68.649117
 11
69.115658
 20
108.710504
 21
108.76661
  0
LINE
  8
LIVELLO_1
 10
69.115658
 11
69.551776
 20
108.76661
 21
108.94156
  0
LINE
  8
LIVELLO_1
 10
69.551776
 11
69.927724
 20
108.94156
 21
109.223443
  0
LINE
  8
LIVELLO_1
 10
69.927724
 11
70.217933
 20
109.223443
 21
109.593013
  0
LINE
  8
LIVELLO_1
 10
70.217933
 11
70.402591
 20
109.593013
 21
110.025095
  0
LINE
  8
LIVELLO_1
 10
70.402591
 11
70.469139
 20
110.025095
 21
110.490254
  0
LINE
  8
LIVELLO_1
 10
70.469139
 11
70.413034
 20
110.490254
 21
110.956767
  0
LINE
  8
LIVELLO_1
 10
70.413034
 11
70.238056
 20
110.956767
 21
111.392885
  0
LINE
  8
LIVELLO_1
 10
70.238056
 11
69.956201
 20
111.392885
 21
111.768862
  0
LINE
  8
LIVELLO_1
 10
69.956201
 11
69.586631
 20
111.768862
 21
112.059071
  0
LINE
  8
LIVELLO_1
 10
69.586631
 11
69.154548
 20
112.059071
 21
112.243729
  0
LINE
  8
LIVELLO_1
 10
69.154548
 11
68.68939
 20
112.243729
 21
112.310277
  0
LINE
  8
LIVELLO_1
 10
68.68939
 11
68.222848
 20
112.310277
 21
112.254143
  0
LINE
  8
LIVELLO_1
 10
68.222848
 11
67.78673
 20
112.254143
 21
112.079193
  0
LINE
  8
LIVELLO_1
 10
67.78673
 11
67.410782
 20
112.079193
 21
111.797338
  0
LINE
  8
LIVELLO_1
 10
55.049985
 11
54.988658
 20
6.000016
 21
6.465881
  0
LINE
  8
LIVELLO_1
 10
54.988658
 11
54.808826
 20
6.465881
 21
6.899995
  0
LINE
  8
LIVELLO_1
 10
54.808826
 11
54.522794
 20
6.899995
 21
7.27281
  0
LINE
  8
LIVELLO_1
 10
54.522794
 11
54.149978
 20
7.27281
 21
7.558843
  0
LINE
  8
LIVELLO_1
 10
54.149978
 11
53.715864
 20
7.558843
 21
7.738675
  0
LINE
  8
LIVELLO_1
 10
53.715864
 11
53.25
 20
7.738675
 21
7.800001
  0
LINE
  8
LIVELLO_1
 10
53.25
 11
52.784107
 20
7.800001
 21
7.738675
  0
LINE
  8
LIVELLO_1
 10
52.784107
 11
52.349993
 20
7.738675
 21
7.558843
  0
LINE
  8
LIVELLO_1
 10
52.349993
 11
51.977206
 20
7.558843
 21
7.27281
  0
LINE
  8
LIVELLO_1
 10
51.977206
 11
51.691145
 20
7.27281
 21
6.899995
  0
LINE
  8
LIVELLO_1
 10
51.691145
 11
51.511313
 20
6.899995
 21
6.465881
  0
LINE
  8
LIVELLO_1
 10
51.511313
 11
51.449986
 20
6.465881
 21
6.000016
  0
LINE
  8
LIVELLO_1
 10
51.449986
 11
51.511313
 20
6.000016
 21
5.534124
  0
LINE
  8
LIVELLO_1
 10
51.511313
 11
51.691145
 20
5.534124
 21
5.10001
  0
LINE
  8
LIVELLO_1
 10
51.691145
 11
51.977206
 20
5.10001
 21
4.727222
  0
LINE
  8
LIVELLO_1
 10
51.977206
 11
52.349993
 20
4.727222
 21
4.441162
  0
LINE
  8
LIVELLO_1
 10
52.349993
 11
52.784107
 20
4.441162
 21
4.26133
  0
LINE
  8
LIVELLO_1
 10
52.784107
 11
53.25
 20
4.26133
 21
4.200003
  0
LINE
  8
LIVELLO_1
 10
53.25
 11
53.715864
 20
4.200003
 21
4.26133
  0
LINE
  8
LIVELLO_1
 10
53.715864
 11
54.149978
 20
4.26133
 21
4.441162
  0
LINE
  8
LIVELLO_1
 10
54.149978
 11
54.522794
 20
4.441162
 21
4.727222
  0
LINE
  8
LIVELLO_1
 10
54.522794
 11
54.808826
 20
4.727222
 21
5.10001
  0
LINE
  8
LIVELLO_1
 10
54.808826
 11
54.988658
 20
5.10001
 21
5.534124
  0
LINE
  8
LIVELLO_1
 10
54.988658
 11
55.049985
 20
5.534124
 21
6.000016
  0
LINE
  8
LIVELLO_1
 10
145.049985
 11
144.98865
 20
6.000016
 21
6.465881
  0
LINE
  8
LIVELLO_1
 10
144.98865
 11
144.808829
 20
6.465881
 21
6.899995
  0
LINE
  8
LIVELLO_1
 10
144.808829
 11
144.522777
 20
6.899995
 21
7.27281
  0
LINE
  8
LIVELLO_1
 10
144.522777
 11
144.149984
 20
7.27281
 21
7.558843
  0
LINE
  8
LIVELLO_1
 10
144.149984
 11
143.715859
 20
7.558843
 21
7.738675
  0
LINE
  8
LIVELLO_1
 10
143.715859
 11
143.249986
 20
7.738675
 21
7.800001
  0
LINE
  8
LIVELLO_1
 10
143.249986
 11
142.784111
 20
7.800001
 21
7.738675
  0
LINE
  8
LIVELLO_1
 10
142.784111
 11
142.349985
 20
7.738675
 21
7.558843
  0
LINE
  8
LIVELLO_1
 10
142.349985
 11
141.977192
 20
7.558843
 21
7.27281
  0
LINE
  8
LIVELLO_1
 10
141.977192
 11
141.69114
 20
7.27281
 21
6.899995
  0
LINE
  8
LIVELLO_1
 10
141.69114
 11
141.511319
 20
6.899995
 21
6.465881
  0
LINE
  8
LIVELLO_1
 10
141.511319
 11
141.449984
 20
6.465881
 21
6.000016
  0
LINE
  8
LIVELLO_1
 10
141.449984
 11
141.511319
 20
6.000016
 21
5.534124
  0
LINE
  8
LIVELLO_1
 10
141.511319
 11
141.69114
 20
5.534124
 21
5.10001
  0
LINE
  8
LIVELLO_1
 10
141.69114
 11
141.977192
 20
5.10001
 21
4.727222
  0
LINE
  8
LIVELLO_1
 10
141.977192
 11
142.349985
 20
4.727222
 21
4.441162
  0
LINE
  8
LIVELLO_1
 10
142.349985
 11
142.784111
 20
4.441162
 21
4.26133
  0
LINE
  8
LIVELLO_1
 10
142.784111
 11
143.249986
 20
4.26133
 21
4.200003
  0
LINE
  8
LIVELLO_1
 10
143.249986
 11
143.715859
 20
4.200003
 21
4.26133
  0
LINE
  8
LIVELLO_1
 10
143.715859
 11
144.149984
 20
4.26133
 21
4.441162
  0
LINE
  8
LIVELLO_1
 10
144.149984
 11
144.522777
 20
4.441162
 21
4.727222
  0
LINE
  8
LIVELLO_1
 10
144.522777
 11
144.808829
 20
4.727222
 21
5.10001
  0
LINE
  8
LIVELLO_1
 10
144.808829
 11
144.98865
 20
5.10001
 21
5.534124
  0
LINE
  8
LIVELLO_1
 10
144.98865
 11
145.049985
 20
5.534124
 21
6.000016
  0
LINE
  8
LIVELLO_1
 10
235.049978
 11
234.988645
 20
6.000016
 21
6.465881
  0
LINE
  8
LIVELLO_1
 10
234.988645
 11
234.808824
 20
6.465881
 21
6.899995
  0
LINE
  8
LIVELLO_1
 10
234.808824
 11
234.52277
 20
6.899995
 21
7.27281
  0
LINE
  8
LIVELLO_1
 10
234.52277
 11
234.149977
 20
7.27281
 21
7.558843
  0
LINE
  8
LIVELLO_1
 10
234.149977
 11
233.715851
 20
7.558843
 21
7.738675
  0
LINE
  8
LIVELLO_1
 10
233.715851
 11
233.249978
 20
7.738675
 21
7.800001
  0
LINE
  8
LIVELLO_1
 10
233.249978
 11
232.784103
 20
7.800001
 21
7.738675
  0
LINE
  8
LIVELLO_1
 10
232.784103
 11
232.349977
 20
7.738675
 21
7.558843
  0
LINE
  8
LIVELLO_1
 10
232.349977
 11
231.977187
 20
7.558843
 21
7.27281
  0
LINE
  8
LIVELLO_1
 10
231.977187
 11
231.691132
 20
7.27281
 21
6.899995
  0
LINE
  8
LIVELLO_1
 10
231.691132
 11
231.511312
 20
6.899995
 21
6.465881
  0
LINE
  8
LIVELLO_1
 10
231.511312
 11
231.449979
 20
6.465881
 21
6.000016
  0
LINE
  8
LIVELLO_1
 10
231.449979
 11
231.511312
 20
6.000016
 21
5.534124
  0
LINE
  8
LIVELLO_1
 10
231.511312
 11
231.691132
 20
5.534124
 21
5.10001
  0
LINE
  8
LIVELLO_1
 10
231.691132
 11
231.977187
 20
5.10001
 21
4.727222
  0
LINE
  8
LIVELLO_1
 10
231.977187
 11
232.349977
 20
4.727222
 21
4.441162
  0
LINE
  8
LIVELLO_1
 10
232.349977
 11
232.784103
 20
4.441162
 21
4.26133
  0
LINE
  8
LIVELLO_1
 10
232.784103
 11
233.249978
 20
4.26133
 21
4.200003
  0
LINE
  8
LIVELLO_1
 10
233.249978
 11
233.715851
 20
4.200003
 21
4.26133
  0
LINE
  8
LIVELLO_1
 10
233.715851
 11
234.149977
 20
4.26133
 21
4.441162
  0
LINE
  8
LIVELLO_1
 10
234.149977
 11
234.52277
 20
4.441162
 21
4.727222
  0
LINE
  8
LIVELLO_1
 10
234.52277
 11
234.808824
 20
4.727222
 21
5.10001
  0
LINE
  8
LIVELLO_1
 10
234.808824
 11
234.988645
 20
5.10001
 21
5.534124
  0
LINE
  8
LIVELLO_1
 10
234.988645
 11
235.049978
 20
5.534124
 21
6.000016
  0
LINE
  8
LIVELLO_1
 10
321.449971
 11
321.511307
 20
6.000016
 21
5.534124
  0
LINE
  8
LIVELLO_1
 10
321.511307
 11
321.691127
 20
5.534124
 21
5.10001
  0
LINE
  8
LIVELLO_1
 10
321.691127
 11
321.977179
 20
5.10001
 21
4.727222
  0
LINE
  8
LIVELLO_1
 10
321.977179
 11
322.349972
 20
4.727222
 21
4.441162
  0
LINE
  8
LIVELLO_1
 10
322.349972
 11
322.784098
 20
4.441162
 21
4.26133
  0
LINE
  8
LIVELLO_1
 10
322.784098
 11
323.249973
 20
4.26133
 21
4.200003
  0
LINE
  8
LIVELLO_1
 10
323.249973
 11
323.715846
 20
4.200003
 21
4.26133
  0
LINE
  8
LIVELLO_1
 10
323.715846
 11
324.149972
 20
4.26133
 21
4.441162
  0
LINE
  8
LIVELLO_1
 10
324.149972
 11
324.522764
 20
4.441162
 21
4.727222
  0
LINE
  8
LIVELLO_1
 10
324.522764
 11
324.808819
 20
4.727222
 21
5.10001
  0
LINE
  8
LIVELLO_1
 10
324.808819
 11
324.98864
 20
5.10001
 21
5.534124
  0
LINE
  8
LIVELLO_1
 10
324.98864
 11
325.049973
 20
5.534124
 21
6.000016
  0
LINE
  8
LIVELLO_1
 10
325.049973
 11
324.98864
 20
6.000016
 21
6.465881
  0
LINE
  8
LIVELLO_1
 10
324.98864
 11
324.808819
 20
6.465881
 21
6.899995
  0
LINE
  8
LIVELLO_1
 10
324.808819
 11
324.522764
 20
6.899995
 21
7.27281
  0
LINE
  8
LIVELLO_1
 10
324.522764
 11
324.149972
 20
7.27281
 21
7.558843
  0
LINE
  8
LIVELLO_1
 10
324.149972
 11
323.715846
 20
7.558843
 21
7.738675
  0
LINE
  8
LIVELLO_1
 10
323.715846
 11
323.249973
 20
7.738675
 21
7.800001
  0
LINE
  8
LIVELLO_1
 10
323.249973
 11
322.784098
 20
7.800001
 21
7.738675
  0
LINE
  8
LIVELLO_1
 10
322.784098
 11
322.349972
 20
7.738675
 21
7.558843
  0
LINE
  8
LIVELLO_1
 10
322.349972
 11
321.977179
 20
7.558843
 21
7.27281
  0
LINE
  8
LIVELLO_1
 10
321.977179
 11
321.691127
 20
7.27281
 21
6.899995
  0
LINE
  8
LIVELLO_1
 10
321.691127
 11
321.511307
 20
6.899995
 21
6.465881
  0
LINE
  8
LIVELLO_1
 10
321.511307
 11
321.449971
 20
6.465881
 21
6.000016
  0
LINE
  8
LIVELLO_1
 10
133.249986
 11
153.179631
 20
240.0
 21
220.000012
  0
LINE
  8
LIVELLO_1
 10
153.179631
 11
153.179631
 20
220.000012
 21
210.000003
  0
LINE
  8
LIVELLO_1
 10
153.179631
 11
133.179631
 20
210.000003
 21
190.000015
  0
LINE
  8
LIVELLO_1
 10
133.179631
 11
113.179635
 20
190.000015
 21
190.000015
  0
LINE
  8
LIVELLO_1
 10
113.179635
 11
93.179646
 20
190.000015
 21
210.000003
  0
LINE
  8
LIVELLO_1
 10
93.179646
 11
93.179646
 20
210.000003
 21
220.000012
  0
LINE
  8
LIVELLO_1
 10
93.179646
 11
113.179635
 20
220.000012
 21
240.0
  0
LINE
  8
LIVELLO_1
 10
113.179635
 11
133.249986
 20
240.0
 21
240.0
  0
LINE
  8
LIVELLO_1
 10
233.249978
 11
233.249978
 20
200.070353
 21
200.000023
  0
LINE
  8
LIVELLO_1
 10
241.179624
 11
201.179628
 20
290.000013
 21
250.000008
  0
LINE
  8
LIVELLO_1
 10
201.179628
 11
145.179633
 20
250.000008
 21
250.000008
  0
LINE
  8
LIVELLO_1
 10
145.179633
 11
105.179622
 20
250.000008
 21
290.000013
  0
LINE
  8
LIVELLO_1
 10
105.179622
 11
241.179624
 20
290.000013
 21
290.000013
  0
LINE
  8
LIVELLO_1
 10
63.24998
 11
58.24999
 20
40.000005
 21
44.999995
  0
LINE
  8
LIVELLO_1
 10
58.24999
 11
58.24999
 20
44.999995
 21
324.999999
  0
LINE
  8
LIVELLO_1
 10
58.24999
 11
63.24998
 20
324.999999
 21
330.000017
  0
LINE
  8
LIVELLO_1
 10
63.24998
 11
313.249974
 20
330.000017
 21
330.000017
  0
LINE
  8
LIVELLO_1
 10
313.249974
 11
318.249972
 20
330.000017
 21
324.999999
  0
LINE
  8
LIVELLO_1
 10
318.249972
 11
318.249972
 20
324.999999
 21
44.999995
  0
LINE
  8
LIVELLO_1
 10
318.249972
 11
313.249974
 20
44.999995
 21
40.000005
  0
LINE
  8
LIVELLO_1
 10
313.249974
 11
283.249977
 20
40.000005
 21
40.000005
  0
LINE
  8
LIVELLO_1
 10
283.249977
 11
278.249973
 20
40.000005
 21
35.000015
  0
LINE
  8
LIVELLO_1
 10
278.249973
 11
278.249973
 20
35.000015
 21
19.934456
  0
LINE
  8
LIVELLO_1
 10
278.249973
 11
278.087938
 20
19.934456
 21
18.703685
  0
LINE
  8
LIVELLO_1
 10
278.087938
 11
277.587575
 20
18.703685
 21
17.495689
  0
LINE
  8
LIVELLO_1
 10
277.587575
 11
276.791609
 20
17.495689
 21
16.458382
  0
LINE
  8
LIVELLO_1
 10
276.791609
 11
275.75429
 20
16.458382
 21
15.662402
  0
LINE
  8
LIVELLO_1
 10
275.75429
 11
274.546303
 20
15.662402
 21
15.16205
  0
LINE
  8
LIVELLO_1
 10
274.546303
 11
273.249975
 20
15.16205
 21
14.991362
  0
LINE
  8
LIVELLO_1
 10
273.249975
 11
271.953646
 20
14.991362
 21
15.16205
  0
LINE
  8
LIVELLO_1
 10
271.953646
 11
270.745662
 20
15.16205
 21
15.662402
  0
LINE
  8
LIVELLO_1
 10
270.745662
 11
269.70834
 20
15.662402
 21
16.458382
  0
LINE
  8
LIVELLO_1
 10
269.70834
 11
268.912374
 20
16.458382
 21
17.495689
  0
LINE
  8
LIVELLO_1
 10
268.912374
 11
268.412011
 20
17.495689
 21
18.703685
  0
LINE
  8
LIVELLO_1
 10
268.412011
 11
268.249976
 20
18.703685
 21
19.934456
  0
LINE
  8
LIVELLO_1
 10
268.249976
 11
268.249976
 20
19.934456
 21
35.000015
  0
LINE
  8
LIVELLO_1
 10
268.249976
 11
263.249975
 20
35.000015
 21
40.000005
  0
LINE
  8
LIVELLO_1
 10
263.249975
 11
218.24998
 20
40.000005
 21
40.000005
  0
LINE
  8
LIVELLO_1
 10
218.24998
 11
193.249982
 20
40.000005
 21
14.999998
  0
LINE
  8
LIVELLO_1
 10
193.249982
 11
183.249982
 20
14.999998
 21
14.999998
  0
LINE
  8
LIVELLO_1
 10
183.249982
 11
158.249984
 20
14.999998
 21
40.000005
  0
LINE
  8
LIVELLO_1
 10
158.249984
 11
113.249993
 20
40.000005
 21
40.000005
  0
LINE
  8
LIVELLO_1
 10
113.249993
 11
108.249974
 20
40.000005
 21
35.000015
  0
LINE
  8
LIVELLO_1
 10
108.249974
 11
108.249974
 20
35.000015
 21
19.934456
  0
LINE
  8
LIVELLO_1
 10
108.249974
 11
108.087951
 20
19.934456
 21
18.703685
  0
LINE
  8
LIVELLO_1
 10
108.087951
 11
107.587599
 20
18.703685
 21
17.495689
  0
LINE
  8
LIVELLO_1
 10
107.587599
 11
106.791619
 20
17.495689
 21
16.458382
  0
LINE
  8
LIVELLO_1
 10
106.791619
 11
105.754311
 20
16.458382
 21
15.662402
  0
LINE
  8
LIVELLO_1
 10
105.754311
 11
104.546316
 20
15.662402
 21
15.16205
  0
LINE
  8
LIVELLO_1
 10
104.546316
 11
103.249984
 20
15.16205
 21
14.991362
  0
LINE
  8
LIVELLO_1
 10
103.249984
 11
101.953653
 20
14.991362
 21
15.16205
  0
LINE
  8
LIVELLO_1
 10
101.953653
 11
100.745685
 20
15.16205
 21
15.662402
  0
LINE
  8
LIVELLO_1
 10
100.745685
 11
99.708349
 20
15.662402
 21
16.458382
  0
LINE
  8
LIVELLO_1
 10
99.708349
 11
98.912398
 20
16.458382
 21
17.495689
  0
LINE
  8
LIVELLO_1
 10
98.912398
 11
98.412018
 20
17.495689
 21
18.703685
  0
LINE
  8
LIVELLO_1
 10
98.412018
 11
98.249994
 20
18.703685
 21
19.934456
  0
LINE
  8
LIVELLO_1
 10
98.249994
 11
98.249994
 20
19.934456
 21
35.000015
  0
LINE
  8
LIVELLO_1
 10
98.249994
 11
93.249976
 20
35.000015
 21
40.000005
  0
LINE
  8
LIVELLO_1
 10
93.249976
 11
63.24998
 20
40.000005
 21
40.000005
  0
LINE
  8
LIVELLO_1
 10
223.179626
 11
243.179623
 20
240.0
 21
220.000012
  0
LINE
  8
LIVELLO_1
 10
243.179623
 11
243.179623
 20
220.000012
 21
210.000003
  0
LINE
  8
LIVELLO_1
 10
243.179623
 11
223.179626
 20
210.000003
 21
190.000015
  0
LINE
  8
LIVELLO_1
 10
223.179626
 11
213.179626
 20
190.000015
 21
190.000015
  0
LINE
  8
LIVELLO_1
 10
213.179626
 11
193.179627
 20
190.000015
 21
210.000003
  0
LINE
  8
LIVELLO_1
 10
193.179627
 11
193.179627
 20
210.000003
 21
220.000012
  0
LINE
  8
LIVELLO_1
 10
193.179627
 11
213.179626
 20
220.000012
 21
240.0
  0
LINE
  8
LIVELLO_1
 10
213.179626
 11
223.179626
 20
240.0
 21
240.0
  0
LINE
  8
LIVELLO_1
 10
83.179638
 11
83.179638
 20
297.999997
 21
278.000009
  0
LINE
  8
LIVELLO_1
 10
83.179638
 11
73.17963
 20
278.000009
 21
268.0
  0
LINE
  8
LIVELLO_1
 10
73.17963
 11
73.17963
 20
268.0
 21
230.00002
  0
LINE
  8
LIVELLO_1
 10
73.17963
 11
83.179638
 20
230.00002
 21
220.000012
  0
LINE
  8
LIVELLO_1
 10
83.179638
 11
83.179638
 20
220.000012
 21
210.000003
  0
LINE
  8
LIVELLO_1
 10
83.179638
 11
73.17963
 20
210.000003
 21
200.000023
  0
LINE
  8
LIVELLO_1
 10
73.17963
 11
73.17963
 20
200.000023
 21
161.999987
  0
LINE
  8
LIVELLO_1
 10
73.17963
 11
83.179638
 20
161.999987
 21
152.000007
  0
LINE
  8
LIVELLO_1
 10
83.179638
 11
83.179638
 20
152.000007
 21
131.99999
  0
LINE
  8
LIVELLO_1
 10
83.179638
 11
63.17965
 20
131.99999
 21
112.000002
  0
LINE
  8
LIVELLO_1
 10
63.17965
 11
63.17965
 20
112.000002
 21
108.00001
  0
LINE
  8
LIVELLO_1
 10
63.17965
 11
66.179644
 20
108.00001
 21
104.999988
  0
LINE
  8
LIVELLO_1
 10
66.179644
 11
70.179636
 20
104.999988
 21
104.999988
  0
LINE
  8
LIVELLO_1
 10
70.179636
 11
95.179642
 20
104.999988
 21
129.999994
  0
LINE
  8
LIVELLO_1
 10
95.179642
 11
251.179624
 20
129.999994
 21
129.999994
  0
LINE
  8
LIVELLO_1
 10
251.179624
 11
276.179622
 20
129.999994
 21
104.999988
  0
LINE
  8
LIVELLO_1
 10
276.179622
 11
280.179619
 20
104.999988
 21
104.999988
  0
LINE
  8
LIVELLO_1
 10
280.179619
 11
283.179622
 20
104.999988
 21
108.00001
  0
LINE
  8
LIVELLO_1
 10
283.179622
 11
283.179622
 20
108.00001
 21
112.000002
  0
LINE
  8
LIVELLO_1
 10
283.179622
 11
243.179623
 20
112.000002
 21
152.000007
  0
LINE
  8
LIVELLO_1
 10
243.179623
 11
243.179623
 20
152.000007
 21
171.999995
  0
LINE
  8
LIVELLO_1
 10
243.179623
 11
273.179622
 20
171.999995
 21
202.000019
  0
LINE
  8
LIVELLO_1
 10
273.179622
 11
273.179622
 20
202.000019
 21
228.000024
  0
LINE
  8
LIVELLO_1
 10
273.179622
 11
243.179623
 20
228.000024
 21
258.00002
  0
LINE
  8
LIVELLO_1
 10
243.179623
 11
243.179623
 20
258.00002
 21
278.000009
  0
LINE
  8
LIVELLO_1
 10
243.179623
 11
283.179622
 20
278.000009
 21
318.000013
  0
LINE
  8
LIVELLO_1
 10
283.179622
 11
283.179622
 20
318.000013
 21
322.000005
  0
LINE
  8
LIVELLO_1
 10
283.179622
 11
280.179619
 20
322.000005
 21
324.999999
  0
LINE
  8
LIVELLO_1
 10
280.179619
 11
276.179622
 20
324.999999
 21
324.999999
  0
LINE
  8
LIVELLO_1
 10
276.179622
 11
251.179624
 20
324.999999
 21
299.999993
  0
LINE
  8
LIVELLO_1
 10
251.179624
 11
95.179642
 20
299.999993
 21
299.999993
  0
LINE
  8
LIVELLO_1
 10
95.179642
 11
70.179636
 20
299.999993
 21
324.999999
  0
LINE
  8
LIVELLO_1
 10
70.179636
 11
66.179644
 20
324.999999
 21
324.999999
  0
LINE
  8
LIVELLO_1
 10
66.179644
 11
63.17965
 20
324.999999
 21
322.000005
  0
LINE
  8
LIVELLO_1
 10
63.17965
 11
63.17965
 20
322.000005
 21
318.000013
  0
LINE
  8
LIVELLO_1
 10
63.17965
 11
83.179638
 20
318.000013
 21
297.999997
  0
LINE
  8
LIVELLO_1
 10
201.179628
 11
201.24998
 20
250.000008
 21
250.000008
  0
LINE
  8
LIVELLO_1
 10
145.179633
 11
105.179622
 20
179.999979
 21
140.000002
  0
LINE
  8
LIVELLO_1
 10
105.179622
 11
241.249976
 20
140.000002
 21
140.000002
  0
LINE
  8
LIVELLO_1
 10
241.249976
 11
201.24998
 20
140.000002
 21
179.999979
  0
LINE
  8
LIVELLO_1
 10
201.24998
 11
145.179633
 20
179.999979
 21
179.999979
  0
LINE
  8
LIVELLO_1
 10
382.97165
 11
382.97165
 20
333.31373
 21
324.51373
  0
LINE
  8
LIVELLO_1
 10
382.97165
 11
392.32165
 20
324.51373
 21
324.51373
  0
LINE
  8
LIVELLO_1
 10
392.32165
 11
392.32165
 20
324.51373
 21
205.613706
  0
LINE
  8
LIVELLO_1
 10
392.32165
 11
382.97165
 20
205.613706
 21
205.613706
  0
LINE
  8
LIVELLO_1
 10
382.97165
 11
382.97165
 20
205.613706
 21
196.813706
  0
LINE
  8
LIVELLO_1
 10
382.97165
 11
392.32165
 20
196.813706
 21
196.813706
  0
LINE
  8
LIVELLO_1
 10
392.32165
 11
392.32165
 20
196.813706
 21
187.263673
  0
LINE
  8
LIVELLO_1
 10
392.32165
 11
404.321649
 20
187.263673
 21
187.263673
  0
LINE
  8
LIVELLO_1
 10
404.321649
 11
404.321649
 20
187.263673
 21
189.063658
  0
LINE
  8
LIVELLO_1
 10
404.321649
 11
409.42165
 20
189.063658
 21
189.063658
  0
LINE
  8
LIVELLO_1
 10
409.42165
 11
409.42165
 20
189.063658
 21
187.263673
  0
LINE
  8
LIVELLO_1
 10
409.42165
 11
413.42165
 20
187.263673
 21
187.263673
  0
LINE
  8
LIVELLO_1
 10
413.42165
 11
413.42165
 20
187.263673
 21
182.863659
  0
LINE
  8
LIVELLO_1
 10
413.42165
 11
409.42165
 20
182.863659
 21
182.863659
  0
LINE
  8
LIVELLO_1
 10
409.42165
 11
409.42165
 20
182.863659
 21
181.063674
  0
LINE
  8
LIVELLO_1
 10
409.42165
 11
404.321649
 20
181.063674
 21
181.063674
  0
LINE
  8
LIVELLO_1
 10
404.321649
 11
404.321649
 20
181.063674
 21
182.863659
  0
LINE
  8
LIVELLO_1
 10
404.321649
 11
392.32165
 20
182.863659
 21
182.863659
  0
LINE
  8
LIVELLO_1
 10
392.32165
 11
392.32165
 20
182.863659
 21
173.313683
  0
LINE
  8
LIVELLO_1
 10
392.32165
 11
382.97165
 20
173.313683
 21
173.313683
  0
LINE
  8
LIVELLO_1
 10
382.97165
 11
382.97165
 20
173.313683
 21
164.513683
  0
LINE
  8
LIVELLO_1
 10
382.97165
 11
392.32165
 20
164.513683
 21
164.513683
  0
LINE
  8
LIVELLO_1
 10
392.32165
 11
392.32165
 20
164.513683
 21
50.520911
  0
LINE
  8
LIVELLO_1
 10
392.32165
 11
382.97165
 20
50.520911
 21
50.520911
  0
LINE
  8
LIVELLO_1
 10
382.97165
 11
382.97165
 20
50.520911
 21
41.720911
  0
LINE
  8
LIVELLO_1
 10
382.97165
 11
392.32165
 20
41.720911
 21
41.720911
  0
LINE
  8
LIVELLO_1
 10
392.32165
 11
392.32165
 20
41.720911
 21
32.178724
  0
LINE
  8
LIVELLO_1
 10
392.32165
 11
404.321649
 20
32.178724
 21
32.178724
  0
LINE
  8
LIVELLO_1
 10
404.321649
 11
404.321649
 20
32.178724
 21
33.978709
  0
LINE
  8
LIVELLO_1
 10
404.321649
 11
409.42165
 20
33.978709
 21
33.978709
  0
LINE
  8
LIVELLO_1
 10
409.42165
 11
409.42165
 20
33.978709
 21
32.178724
  0
LINE
  8
LIVELLO_1
 10
409.42165
 11
413.42165
 20
32.178724
 21
32.178724
  0
LINE
  8
LIVELLO_1
 10
413.42165
 11
413.42165
 20
32.178724
 21
27.77871
  0
LINE
  8
LIVELLO_1
 10
413.42165
 11
409.42165
 20
27.77871
 21
27.77871
  0
LINE
  8
LIVELLO_1
 10
409.42165
 11
409.42165
 20
27.77871
 21
25.978725
  0
LINE
  8
LIVELLO_1
 10
409.42165
 11
404.321649
 20
25.978725
 21
25.978725
  0
LINE
  8
LIVELLO_1
 10
404.321649
 11
404.321649
 20
25.978725
 21
27.77871
  0
LINE
  8
LIVELLO_1
 10
404.321649
 11
392.32165
 20
27.77871
 21
27.77871
  0
LINE
  8
LIVELLO_1
 10
392.32165
 11
392.32165
 20
27.77871
 21
18.220916
  0
LINE
  8
LIVELLO_1
 10
392.32165
 11
382.97165
 20
18.220916
 21
18.220916
  0
LINE
  8
LIVELLO_1
 10
382.97165
 11
382.97165
 20
18.220916
 21
9.420917
  0
LINE
  8
LIVELLO_1
 10
382.97165
 11
392.32165
 20
9.420917
 21
9.420917
  0
LINE
  8
LIVELLO_1
 10
392.32165
 11
392.32165
 20
9.420917
 21
0.063698
  0
LINE
  8
LIVELLO_1
 10
392.32165
 11
417.72165
 20
0.063698
 21
0.063698
  0
LINE
  8
LIVELLO_1
 10
417.72165
 11
570.12164
 20
0.063698
 21
323.063673
  0
LINE
  8
LIVELLO_1
 10
570.12164
 11
570.12164
 20
323.063673
 21
330.663691
  0
LINE
  8
LIVELLO_1
 10
570.12164
 11
565.12165
 20
330.663691
 21
335.663681
  0
LINE
  8
LIVELLO_1
 10
565.12165
 11
495.121641
 20
335.663681
 21
335.663681
  0
LINE
  8
LIVELLO_1
 10
495.121641
 11
493.982837
 20
335.663681
 21
335.813598
  0
LINE
  8
LIVELLO_1
 10
493.982837
 11
492.921642
 20
335.813598
 21
336.253159
  0
LINE
  8
LIVELLO_1
 10
492.921642
 11
492.010372
 20
336.253159
 21
336.952421
  0
LINE
  8
LIVELLO_1
 10
492.010372
 11
491.31113
 20
336.952421
 21
337.863688
  0
LINE
  8
LIVELLO_1
 10
491.31113
 11
490.871569
 20
337.863688
 21
338.924872
  0
LINE
  8
LIVELLO_1
 10
490.871569
 11
490.721641
 20
338.924872
 21
340.063695
  0
LINE
  8
LIVELLO_1
 10
490.721641
 11
490.871569
 20
340.063695
 21
341.20249
  0
LINE
  8
LIVELLO_1
 10
490.871569
 11
491.31113
 20
341.20249
 21
342.263674
  0
LINE
  8
LIVELLO_1
 10
491.31113
 11
492.010372
 20
342.263674
 21
343.174941
  0
LINE
  8
LIVELLO_1
 10
492.010372
 11
492.921642
 20
343.174941
 21
343.874203
  0
LINE
  8
LIVELLO_1
 10
492.921642
 11
493.982837
 20
343.874203
 21
344.313764
  0
LINE
  8
LIVELLO_1
 10
493.982837
 11
495.121641
 20
344.313764
 21
344.463681
  0
LINE
  8
LIVELLO_1
 10
495.121641
 11
565.12165
 20
344.463681
 21
344.463681
  0
LINE
  8
LIVELLO_1
 10
565.12165
 11
570.12164
 20
344.463681
 21
349.463671
  0
LINE
  8
LIVELLO_1
 10
570.12164
 11
570.12164
 20
349.463671
 21
365.063673
  0
LINE
  8
LIVELLO_1
 10
570.12164
 11
565.12165
 20
365.063673
 21
370.063691
  0
LINE
  8
LIVELLO_1
 10
565.12165
 11
545.121637
 20
370.063691
 21
370.063691
  0
LINE
  8
LIVELLO_1
 10
545.121637
 11
543.121638
 20
370.063691
 21
368.063667
  0
LINE
  8
LIVELLO_1
 10
543.121638
 11
392.32165
 20
368.063667
 21
368.063667
  0
LINE
  8
LIVELLO_1
 10
392.32165
 11
392.32165
 20
368.063667
 21
347.269252
  0
LINE
  8
LIVELLO_1
 10
392.32165
 11
404.321649
 20
347.269252
 21
347.269252
  0
LINE
  8
LIVELLO_1
 10
404.321649
 11
404.321649
 20
347.269252
 21
349.069237
  0
LINE
  8
LIVELLO_1
 10
404.321649
 11
409.42165
 20
349.069237
 21
349.069237
  0
LINE
  8
LIVELLO_1
 10
409.42165
 11
409.42165
 20
349.069237
 21
347.269252
  0
LINE
  8
LIVELLO_1
 10
409.42165
 11
413.42165
 20
347.269252
 21
347.269252
  0
LINE
  8
LIVELLO_1
 10
413.42165
 11
413.42165
 20
347.269252
 21
342.869238
  0
LINE
  8
LIVELLO_1
 10
413.42165
 11
409.42165
 20
342.869238
 21
342.869238
  0
LINE
  8
LIVELLO_1
 10
409.42165
 11
409.42165
 20
342.869238
 21
341.069253
  0
LINE
  8
LIVELLO_1
 10
409.42165
 11
404.321649
 20
341.069253
 21
341.069253
  0
LINE
  8
LIVELLO_1
 10
404.321649
 11
404.321649
 20
341.069253
 21
342.869238
  0
LINE
  8
LIVELLO_1
 10
404.321649
 11
392.32165
 20
342.869238
 21
342.869238
  0
LINE
  8
LIVELLO_1
 10
392.32165
 11
392.32165
 20
342.869238
 21
333.31373
  0
LINE
  8
LIVELLO_1
 10
392.32165
 11
382.97165
 20
333.31373
 21
333.31373
  0
LINE
  8
LIVELLO_1
 10
631.258921
 11
631.258921
 20
319.542781
 21
328.34278
  0
LINE
  8
LIVELLO_1
 10
631.258921
 11
621.908904
 20
328.34278
 21
328.34278
  0
LINE
  8
LIVELLO_1
 10
621.908904
 11
621.908904
 20
328.34278
 21
337.884968
  0
LINE
  8
LIVELLO_1
 10
621.908904
 11
609.908872
 20
337.884968
 21
337.884968
  0
LINE
  8
LIVELLO_1
 10
609.908872
 11
609.908872
 20
337.884968
 21
336.084983
  0
LINE
  8
LIVELLO_1
 10
609.908872
 11
604.80889
 20
336.084983
 21
336.084983
  0
LINE
  8
LIVELLO_1
 10
604.80889
 11
604.80889
 20
336.084983
 21
337.884968
  0
LINE
  8
LIVELLO_1
 10
604.80889
 11
600.808898
 20
337.884968
 21
337.884968
  0
LINE
  8
LIVELLO_1
 10
600.808898
 11
600.808898
 20
337.884968
 21
342.284981
  0
LINE
  8
LIVELLO_1
 10
600.808898
 11
604.80889
 20
342.284981
 21
342.284981
  0
LINE
  8
LIVELLO_1
 10
604.80889
 11
604.80889
 20
342.284981
 21
344.084967
  0
LINE
  8
LIVELLO_1
 10
604.80889
 11
609.908872
 20
344.084967
 21
344.084967
  0
LINE
  8
LIVELLO_1
 10
609.908872
 11
609.908872
 20
344.084967
 21
342.284981
  0
LINE
  8
LIVELLO_1
 10
609.908872
 11
621.908904
 20
342.284981
 21
342.284981
  0
LINE
  8
LIVELLO_1
 10
621.908904
 11
621.908904
 20
342.284981
 21
351.842776
  0
LINE
  8
LIVELLO_1
 10
621.908904
 11
631.258921
 20
351.842776
 21
351.842776
  0
LINE
  8
LIVELLO_1
 10
631.258921
 11
631.258921
 20
351.842776
 21
360.642775
  0
LINE
  8
LIVELLO_1
 10
631.258921
 11
621.908904
 20
360.642775
 21
360.642775
  0
LINE
  8
LIVELLO_1
 10
621.908904
 11
621.908904
 20
360.642775
 21
369.999994
  0
LINE
  8
LIVELLO_1
 10
621.908904
 11
596.508904
 20
369.999994
 21
369.999994
  0
LINE
  8
LIVELLO_1
 10
596.508904
 11
444.108901
 20
369.999994
 21
46.999991
  0
LINE
  8
LIVELLO_1
 10
444.108901
 11
444.108901
 20
46.999991
 21
39.4
  0
LINE
  8
LIVELLO_1
 10
444.108901
 11
449.108903
 20
39.4
 21
34.40001
  0
LINE
  8
LIVELLO_1
 10
449.108903
 11
519.108895
 20
34.40001
 21
34.40001
  0
LINE
  8
LIVELLO_1
 10
519.108895
 11
520.247701
 20
34.40001
 21
34.250066
  0
LINE
  8
LIVELLO_1
 10
520.247701
 11
521.308897
 20
34.250066
 21
33.810505
  0
LINE
  8
LIVELLO_1
 10
521.308897
 11
522.220167
 20
33.810505
 21
33.111271
  0
LINE
  8
LIVELLO_1
 10
522.220167
 11
522.919409
 20
33.111271
 21
32.200003
  0
LINE
  8
LIVELLO_1
 10
522.919409
 11
523.35897
 20
32.200003
 21
31.13882
  0
LINE
  8
LIVELLO_1
 10
523.35897
 11
523.508895
 20
31.13882
 21
29.999997
  0
LINE
  8
LIVELLO_1
 10
523.508895
 11
523.35897
 20
29.999997
 21
28.861202
  0
LINE
  8
LIVELLO_1
 10
523.35897
 11
522.919409
 20
28.861202
 21
27.79999
  0
LINE
  8
LIVELLO_1
 10
522.919409
 11
522.220167
 20
27.79999
 21
26.888722
  0
LINE
  8
LIVELLO_1
 10
522.220167
 11
521.308897
 20
26.888722
 21
26.189489
  0
LINE
  8
LIVELLO_1
 10
521.308897
 11
520.247701
 20
26.189489
 21
25.749927
  0
LINE
  8
LIVELLO_1
 10
520.247701
 11
519.108895
 20
25.749927
 21
25.600011
  0
LINE
  8
LIVELLO_1
 10
519.108895
 11
449.108903
 20
25.600011
 21
25.600011
  0
LINE
  8
LIVELLO_1
 10
449.108903
 11
444.108901
 20
25.600011
 21
20.599993
  0
LINE
  8
LIVELLO_1
 10
444.108901
 11
444.108901
 20
20.599993
 21
5.000018
  0
LINE
  8
LIVELLO_1
 10
444.108901
 11
449.108903
 20
5.000018
 21
0.0
  0
LINE
  8
LIVELLO_1
 10
449.108903
 11
469.108899
 20
0.0
 21
0.0
  0
LINE
  8
LIVELLO_1
 10
469.108899
 11
471.108901
 20
0.0
 21
1.999996
  0
LINE
  8
LIVELLO_1
 10
471.108901
 11
621.908904
 20
1.999996
 21
1.999996
  0
LINE
  8
LIVELLO_1
 10
621.908904
 11
621.908904
 20
1.999996
 21
22.79444
  0
LINE
  8
LIVELLO_1
 10
621.908904
 11
609.908872
 20
22.79444
 21
22.79444
  0
LINE
  8
LIVELLO_1
 10
609.908872
 11
609.908872
 20
22.79444
 21
20.994455
  0
LINE
  8
LIVELLO_1
 10
609.908872
 11
604.80889
 20
20.994455
 21
20.994455
  0
LINE
  8
LIVELLO_1
 10
604.80889
 11
604.80889
 20
20.994455
 21
22.79444
  0
LINE
  8
LIVELLO_1
 10
604.80889
 11
600.808898
 20
22.79444
 21
22.79444
  0
LINE
  8
LIVELLO_1
 10
600.808898
 11
600.808898
 20
22.79444
 21
27.194454
  0
LINE
  8
LIVELLO_1
 10
600.808898
 11
604.80889
 20
27.194454
 21
27.194454
  0
LINE
  8
LIVELLO_1
 10
604.80889
 11
604.80889
 20
27.194454
 21
28.994439
  0
LINE
  8
LIVELLO_1
 10
604.80889
 11
609.908872
 20
28.994439
 21
28.994439
  0
LINE
  8
LIVELLO_1
 10
609.908872
 11
609.908872
 20
28.994439
 21
27.194454
  0
LINE
  8
LIVELLO_1
 10
609.908872
 11
621.908904
 20
27.194454
 21
27.194454
  0
LINE
  8
LIVELLO_1
 10
621.908904
 11
621.908904
 20
27.194454
 21
36.749934
  0
LINE
  8
LIVELLO_1
 10
621.908904
 11
631.258921
 20
36.749934
 21
36.749934
  0
LINE
  8
LIVELLO_1
 10
631.258921
 11
631.258921
 20
36.749934
 21
45.549933
  0
LINE
  8
LIVELLO_1
 10
631.258921
 11
621.908904
 20
45.549933
 21
45.549933
  0
LINE
  8
LIVELLO_1
 10
621.908904
 11
621.908904
 20
45.549933
 21
164.449986
  0
LINE
  8
LIVELLO_1
 10
621.908904
 11
631.258921
 20
164.449986
 21
164.449986
  0
LINE
  8
LIVELLO_1
 10
631.258921
 11
631.258921
 20
164.449986
 21
173.249985
  0
LINE
  8
LIVELLO_1
 10
631.258921
 11
621.908904
 20
173.249985
 21
173.249985
  0
LINE
  8
LIVELLO_1
 10
621.908904
 11
621.908904
 20
173.249985
 21
182.79999
  0
LINE
  8
LIVELLO_1
 10
621.908904
 11
609.908872
 20
182.79999
 21
182.79999
  0
LINE
  8
LIVELLO_1
 10
609.908872
 11
609.908872
 20
182.79999
 21
181.000005
  0
LINE
  8
LIVELLO_1
 10
609.908872
 11
604.80889
 20
181.000005
 21
181.000005
  0
LINE
  8
LIVELLO_1
 10
604.80889
 11
604.80889
 20
181.000005
 21
182.79999
  0
LINE
  8
LIVELLO_1
 10
604.80889
 11
600.808898
 20
182.79999
 21
182.79999
  0
LINE
  8
LIVELLO_1
 10
600.808898
 11
600.808898
 20
182.79999
 21
187.200004
  0
LINE
  8
LIVELLO_1
 10
600.808898
 11
604.80889
 20
187.200004
 21
187.200004
  0
LINE
  8
LIVELLO_1
 10
604.80889
 11
604.80889
 20
187.200004
 21
188.999989
  0
LINE
  8
LIVELLO_1
 10
604.80889
 11
609.908872
 20
188.999989
 21
188.999989
  0
LINE
  8
LIVELLO_1
 10
609.908872
 11
609.908872
 20
188.999989
 21
187.200004
  0
LINE
  8
LIVELLO_1
 10
609.908872
 11
621.908904
 20
187.200004
 21
187.200004
  0
LINE
  8
LIVELLO_1
 10
621.908904
 11
621.908904
 20
187.200004
 21
196.750009
  0
LINE
  8
LIVELLO_1
 10
621.908904
 11
631.258921
 20
196.750009
 21
196.750009
  0
LINE
  8
LIVELLO_1
 10
631.258921
 11
631.258921
 20
196.750009
 21
205.550008
  0
LINE
  8
LIVELLO_1
 10
631.258921
 11
621.908904
 20
205.550008
 21
205.550008
  0
LINE
  8
LIVELLO_1
 10
621.908904
 11
621.908904
 20
205.550008
 21
319.542781
  0
LINE
  8
LIVELLO_1
 10
621.908904
 11
631.258921
 20
319.542781
 21
319.542781
  0
LINE
  8
LIVELLO_1
 10
349.49997
 11
27.000003
 20
1.999996
 21
1.999996
  0
LINE
  8
LIVELLO_1
 10
27.000003
 11
25.000007
 20
1.999996
 21
0.0
  0
LINE
  8
LIVELLO_1
 10
25.000007
 11
5.000019
 20
0.0
 21
0.0
  0
LINE
  8
LIVELLO_1
 10
5.000019
 11
0.0
 20
0.0
 21
4.808248
  0
LINE
  8
LIVELLO_1
 10
0.0
 11
0.0
 20
4.808248
 21
365.000004
  0
LINE
  8
LIVELLO_1
 10
0.0
 11
4.965475
 20
365.000004
 21
369.999994
  0
LINE
  8
LIVELLO_1
 10
4.965475
 11
371.534838
 20
369.999994
 21
369.999994
  0
LINE
  8
LIVELLO_1
 10
371.534838
 11
376.499966
 20
369.999994
 21
365.000004
  0
LINE
  8
LIVELLO_1
 10
376.499966
 11
376.499966
 20
365.000004
 21
5.000018
  0
LINE
  8
LIVELLO_1
 10
376.499966
 11
371.499968
 20
5.000018
 21
0.0
  0
LINE
  8
LIVELLO_1
 10
371.499968
 11
351.499969
 20
0.0
 21
0.0
  0
LINE
  8
LIVELLO_1
 10
351.499969
 11
349.49997
 20
0.0
 21
1.999996
  0
LINE
  8
LIVELLO_1
 10
352.063959
 11
351.028683
 20
6.036818
 21
6.173131
  0
LINE
  8
LIVELLO_1
 10
351.028683
 11
350.06396
 20
6.173131
 21
6.57273
  0
LINE
  8
LIVELLO_1
 10
350.06396
 11
349.235534
 20
6.57273
 21
7.208407
  0
LINE
  8
LIVELLO_1
 10
349.235534
 11
348.599859
 20
7.208407
 21
8.036814
  0
LINE
  8
LIVELLO_1
 10
348.599859
 11
348.200258
 20
8.036814
 21
9.001563
  0
LINE
  8
LIVELLO_1
 10
348.200258
 11
348.063959
 20
9.001563
 21
10.036838
  0
LINE
  8
LIVELLO_1
 10
348.063959
 11
348.200258
 20
10.036838
 21
11.072114
  0
LINE
  8
LIVELLO_1
 10
348.200258
 11
348.599859
 20
11.072114
 21
12.036834
  0
LINE
  8
LIVELLO_1
 10
348.599859
 11
349.235534
 20
12.036834
 21
12.865241
  0
LINE
  8
LIVELLO_1
 10
349.235534
 11
350.06396
 20
12.865241
 21
13.500919
  0
LINE
  8
LIVELLO_1
 10
350.06396
 11
351.028683
 20
13.500919
 21
13.900517
  0
LINE
  8
LIVELLO_1
 10
351.028683
 11
352.063959
 20
13.900517
 21
14.03683
  0
LINE
  8
LIVELLO_1
 10
352.063959
 11
360.059927
 20
14.03683
 21
14.03683
  0
LINE
  8
LIVELLO_1
 10
360.059927
 11
361.095206
 20
14.03683
 21
13.900517
  0
LINE
  8
LIVELLO_1
 10
361.095206
 11
362.059929
 20
13.900517
 21
13.500919
  0
LINE
  8
LIVELLO_1
 10
362.059929
 11
362.888355
 20
13.500919
 21
12.865241
  0
LINE
  8
LIVELLO_1
 10
362.888355
 11
363.52403
 20
12.865241
 21
12.036834
  0
LINE
  8
LIVELLO_1
 10
363.52403
 11
363.923631
 20
12.036834
 21
11.072114
  0
LINE
  8
LIVELLO_1
 10
363.923631
 11
364.059928
 20
11.072114
 21
10.036838
  0
LINE
  8
LIVELLO_1
 10
364.059928
 11
363.923631
 20
10.036838
 21
9.001563
  0
LINE
  8
LIVELLO_1
 10
363.923631
 11
363.52403
 20
9.001563
 21
8.036814
  0
LINE
  8
LIVELLO_1
 10
363.52403
 11
362.888355
 20
8.036814
 21
7.208407
  0
LINE
  8
LIVELLO_1
 10
362.888355
 11
362.059929
 20
7.208407
 21
6.57273
  0
LINE
  8
LIVELLO_1
 10
362.059929
 11
361.095206
 20
6.57273
 21
6.173131
  0
LINE
  8
LIVELLO_1
 10
361.095206
 11
360.126788
 20
6.173131
 21
6.036818
  0
LINE
  8
LIVELLO_1
 10
360.126788
 11
352.063959
 20
6.036818
 21
6.036818
  0
LINE
  8
GEOMETRIA_APS
 10
326.799973
 11
326.799973
 20
351.515437
 21
360.913839
  0
LINE
  8
GEOMETRIA_APS
 10
326.799973
 11
336.949972
 20
360.913839
 21
360.913839
  0
LINE
  8
GEOMETRIA_APS
 10
336.949972
 11
336.949972
 20
360.913839
 21
351.515437
  0
LINE
  8
GEOMETRIA_APS
 10
336.949972
 11
326.799973
 20
351.515437
 21
351.515437
  0
LINE
  8
GEOMETRIA_APS
 10
326.799973
 11
326.799973
 20
319.2212
 21
328.619601
  0
LINE
  8
GEOMETRIA_APS
 10
326.799973
 11
336.949972
 20
328.619601
 21
328.619601
  0
LINE
  8
GEOMETRIA_APS
 10
336.949972
 11
336.949972
 20
328.619601
 21
319.2212
  0
LINE
  8
GEOMETRIA_APS
 10
336.949972
 11
326.799973
 20
319.2212
 21
319.2212
  0
LINE
  8
GEOMETRIA_APS
 10
326.799973
 11
326.799973
 20
196.450017
 21
205.850024
  0
LINE
  8
GEOMETRIA_APS
 10
326.799973
 11
336.949972
 20
205.850024
 21
205.848733
  0
LINE
  8
GEOMETRIA_APS
 10
336.949972
 11
336.949972
 20
205.848733
 21
196.450017
  0
LINE
  8
GEOMETRIA_APS
 10
336.949972
 11
326.799973
 20
196.450017
 21
196.450017
  0
LINE
  8
GEOMETRIA_APS
 10
326.799973
 11
326.799973
 20
164.156203
 21
173.55452
  0
LINE
  8
GEOMETRIA_APS
 10
326.799973
 11
336.949972
 20
173.55452
 21
173.55452
  0
LINE
  8
GEOMETRIA_APS
 10
336.949972
 11
336.949972
 20
173.55452
 21
164.14987
  0
LINE
  8
GEOMETRIA_APS
 10
336.949972
 11
326.799973
 20
164.14987
 21
164.156203
  0
LINE
  8
GEOMETRIA_APS
 10
326.799973
 11
326.799973
 20
36.478898
 21
45.8773
  0
LINE
  8
GEOMETRIA_APS
 10
326.799973
 11
336.949972
 20
45.8773
 21
45.8773
  0
LINE
  8
GEOMETRIA_APS
 10
336.949972
 11
336.949972
 20
45.8773
 21
36.478898
  0
LINE
  8
GEOMETRIA_APS
 10
336.949972
 11
326.799973
 20
36.478898
 21
36.478898
  0
LINE
  8
GEOMETRIA_APS
 10
39.550013
 11
39.550013
 20
351.515437
 21
360.913839
  0
LINE
  8
GEOMETRIA_APS
 10
39.550013
 11
49.700012
 20
360.913839
 21
360.913839
  0
LINE
  8
GEOMETRIA_APS
 10
49.700012
 11
49.700012
 20
360.913839
 21
351.515437
  0
LINE
  8
GEOMETRIA_APS
 10
49.700012
 11
39.550013
 20
351.515437
 21
351.515437
  0
LINE
  8
GEOMETRIA_APS
 10
39.550013
 11
39.550013
 20
319.2212
 21
328.619601
  0
LINE
  8
GEOMETRIA_APS
 10
39.550013
 11
49.700012
 20
328.619601
 21
328.619601
  0
LINE
  8
GEOMETRIA_APS
 10
49.700012
 11
49.700012
 20
328.619601
 21
319.2212
  0
LINE
  8
GEOMETRIA_APS
 10
49.700012
 11
39.550013
 20
319.2212
 21
319.2212
  0
LINE
  8
GEOMETRIA_APS
 10
39.550013
 11
39.550013
 20
196.450017
 21
205.850024
  0
LINE
  8
GEOMETRIA_APS
 10
39.550013
 11
49.700012
 20
205.850024
 21
205.848733
  0
LINE
  8
GEOMETRIA_APS
 10
49.700012
 11
49.700012
 20
205.848733
 21
196.450017
  0
LINE
  8
GEOMETRIA_APS
 10
49.700012
 11
39.550013
 20
196.450017
 21
196.450017
  0
LINE
  8
GEOMETRIA_APS
 10
39.550013
 11
39.550013
 20
164.156203
 21
173.55452
  0
LINE
  8
GEOMETRIA_APS
 10
39.550013
 11
49.700012
 20
173.55452
 21
173.55452
  0
LINE
  8
GEOMETRIA_APS
 10
49.700012
 11
49.700012
 20
173.55452
 21
164.14987
  0
LINE
  8
GEOMETRIA_APS
 10
49.700012
 11
39.550013
 20
164.14987
 21
164.156203
  0
LINE
  8
GEOMETRIA_APS
 10
39.550013
 11
39.550013
 20
36.478898
 21
45.8773
  0
LINE
  8
GEOMETRIA_APS
 10
39.550013
 11
49.700012
 20
45.8773
 21
45.8773
  0
LINE
  8
GEOMETRIA_APS
 10
49.700012
 11
49.700012
 20
45.8773
 21
36.478898
  0
LINE
  8
GEOMETRIA_APS
 10
49.700012
 11
39.550013
 20
36.478898
 21
36.478898
  0
ENDSEC
  0
EOF
